{"glyphs":{"0":{"ha":1153,"x_min":58,"x_max":1124,"o":"m 58 944 l 58 700 l 97 700 l 97 800 l 115 800 q 158 815 144 800 q 172 860 172 829 l 172 885 q 158 929 172 915 q 115 944 144 944 l 58 944 m 115 835 l 97 835 l 97 910 l 115 910 q 129 904 125 910 q 135 886 135 899 l 135 858 q 129 840 135 846 q 115 835 125 835 m 193 944 l 193 700 l 299 700 l 299 735 l 232 735 l 232 810 l 285 810 l 285 846 l 232 846 l 232 910 l 299 910 l 299 944 l 193 944 m 321 944 l 321 700 l 360 700 l 360 806 l 372 806 q 392 799 385 806 q 397 775 397 790 l 397 731 l 397 711 q 400 700 397 708 l 439 700 q 436 713 436 708 q 435 729 435 717 l 435 772 q 429 807 435 796 q 410 825 424 821 q 435 874 435 836 l 435 889 q 421 931 435 918 q 378 944 408 944 l 321 944 m 374 840 l 360 840 l 360 910 l 376 910 q 392 904 388 910 q 396 885 396 897 l 396 865 q 390 846 396 851 q 374 840 385 840 m 469 713 q 513 696 483 696 q 556 713 539 696 q 569 758 569 728 q 561 799 569 782 q 528 838 549 818 q 501 865 508 854 q 494 890 494 876 q 514 914 494 914 q 528 907 524 914 q 533 889 533 901 l 533 876 l 569 876 l 569 886 q 556 932 569 915 q 514 949 542 949 q 471 932 486 949 q 456 888 456 917 q 465 849 456 867 q 499 811 475 832 q 525 783 513 799 q 532 756 532 769 q 526 738 532 746 q 511 732 522 732 q 492 756 492 732 l 492 772 l 456 772 l 456 758 q 469 713 456 728 m 604 713 q 647 696 619 696 q 692 713 675 696 q 706 758 706 728 l 706 886 q 692 932 706 918 q 647 949 675 949 q 604 932 619 949 q 589 886 589 917 l 589 758 q 604 713 589 731 m 668 756 q 647 732 668 732 q 628 756 628 732 l 628 889 q 647 914 628 914 q 668 889 668 914 l 668 756 m 732 944 l 732 700 l 767 700 l 767 879 l 813 700 l 853 700 l 853 944 l 818 944 l 818 799 l 781 944 l 732 944 m 911 944 l 871 700 l 907 700 l 914 747 l 958 747 l 958 749 l 965 700 l 1003 700 l 964 944 l 911 944 m 953 781 l 918 781 l 935 903 l 936 903 l 953 781 m 1022 944 l 1022 700 l 1124 700 l 1124 735 l 1060 735 l 1060 944 l 1022 944 m 74 433 q 117 417 88 417 q 158 433 144 417 q 174 478 174 449 l 174 665 l 136 665 l 136 475 q 131 457 136 463 q 117 451 125 451 q 103 457 108 451 q 97 475 97 463 l 97 665 l 58 665 l 58 478 q 74 433 58 449 m 208 433 q 251 417 224 417 q 294 433 281 417 q 308 479 308 447 q 300 519 308 503 q 267 557 289 536 q 240 586 250 572 q 233 610 233 597 q 253 633 233 633 q 267 628 263 633 q 272 610 272 619 l 272 597 l 308 597 l 308 607 q 294 653 308 635 q 253 669 281 669 q 210 653 225 669 q 194 608 194 635 q 204 569 194 585 q 238 532 214 553 q 264 504 251 519 q 271 476 271 490 q 265 458 271 464 q 250 451 261 451 q 231 475 231 451 l 231 493 l 194 493 l 194 478 q 208 433 194 447 m 331 665 l 331 421 l 436 421 l 436 456 l 369 456 l 369 531 l 422 531 l 422 565 l 369 565 l 369 631 l 436 631 l 436 665 l 331 665 m 526 433 q 569 417 542 417 q 613 433 597 417 q 628 478 628 447 l 628 607 q 613 653 628 638 q 569 669 597 669 q 526 653 542 669 q 511 607 511 635 l 511 478 q 526 433 511 449 m 589 476 q 569 451 589 451 q 550 476 550 451 l 550 610 q 569 633 550 633 q 589 610 589 633 l 589 476 m 654 665 l 654 421 l 689 421 l 689 599 l 735 421 l 775 421 l 775 665 l 740 665 l 740 518 l 703 665 l 654 665 m 803 665 l 803 421 l 906 421 l 906 456 l 842 456 l 842 665 l 803 665 m 928 525 l 928 421 l 967 421 l 967 525 l 1014 665 l 976 665 l 950 575 l 949 575 l 922 665 l 882 665 l 928 525 m 1033 563 l 1039 485 l 1068 485 l 1072 563 l 1072 665 l 1033 665 l 1033 563 m 1035 457 l 1035 421 l 1072 421 l 1072 457 l 1035 457 m 118 363 l 118 271 l 133 271 l 133 308 l 140 308 q 156 314 151 308 q 161 331 161 319 l 161 340 q 156 357 161 351 q 140 363 151 363 l 118 363 m 140 321 l 133 321 l 133 350 l 140 350 q 144 347 144 350 q 147 342 147 344 l 147 331 q 144 324 147 326 q 140 321 144 321 m 168 292 q 174 275 168 281 q 190 269 179 269 q 206 275 201 269 q 211 292 211 281 l 211 363 l 197 363 l 197 292 q 196 285 197 286 q 190 282 193 282 q 185 285 188 282 q 182 292 182 288 l 182 363 l 168 363 l 168 292 m 221 363 l 221 271 l 235 271 l 235 310 l 240 310 q 247 307 246 310 q 250 299 250 304 l 250 282 l 250 275 q 251 271 250 272 l 265 271 q 264 275 265 272 l 264 282 l 264 297 q 263 311 264 308 q 254 318 260 317 q 264 336 264 322 l 264 342 q 258 358 264 353 q 243 363 254 363 l 221 363 m 240 324 l 235 324 l 235 350 l 242 350 q 247 347 244 350 q 250 340 250 344 l 250 333 q 247 325 250 328 q 240 324 246 324 m 272 292 q 278 275 272 281 q 293 269 283 269 q 310 275 304 269 q 315 292 315 281 l 315 306 l 301 306 l 301 290 q 294 282 301 282 q 288 290 288 282 l 288 343 q 294 351 288 351 q 301 343 301 351 l 301 332 l 315 332 l 315 342 q 310 358 315 353 q 293 364 304 364 q 278 358 283 364 q 272 342 272 353 l 272 292 m 324 363 l 324 271 l 338 271 l 338 313 l 353 313 l 353 271 l 368 271 l 368 363 l 353 363 l 353 325 l 338 325 l 338 363 l 324 363 m 389 363 l 374 271 l 388 271 l 390 289 l 407 289 l 410 271 l 424 271 l 408 363 l 389 363 m 404 301 l 392 301 l 399 347 l 404 301 m 432 275 q 449 269 438 269 q 465 275 460 269 q 471 293 471 283 q 467 308 471 300 q 454 322 465 314 q 444 333 446 331 q 442 342 442 339 q 449 351 442 351 q 454 349 451 351 q 457 342 457 346 l 457 338 l 469 338 l 469 342 q 465 358 469 353 q 449 364 460 364 q 433 358 438 364 q 428 342 428 353 q 431 326 428 331 q 443 313 433 322 q 453 301 450 307 q 456 292 456 299 q 454 285 456 286 q 449 282 451 282 q 440 292 440 282 l 440 297 l 426 297 l 426 292 q 432 275 426 283 m 478 363 l 478 271 l 518 271 l 518 283 l 492 283 l 492 313 l 513 313 l 513 325 l 492 325 l 492 350 l 518 350 l 518 363 l 478 363 m 546 363 l 546 271 l 560 271 l 560 311 l 579 311 l 579 324 l 560 324 l 560 350 l 583 350 l 583 363 l 546 363 m 589 292 q 594 275 589 281 q 611 269 600 269 q 628 275 622 269 q 633 292 633 283 l 633 342 q 628 358 633 350 q 611 364 622 364 q 594 358 600 364 q 589 342 589 353 l 589 292 m 618 292 q 611 282 618 282 q 603 292 603 282 l 603 342 q 611 351 603 351 q 618 342 618 351 l 618 292 m 642 363 l 642 271 l 657 271 l 657 310 l 661 310 q 668 307 667 310 q 671 299 671 304 l 671 282 l 671 275 q 672 271 671 272 l 686 271 q 685 275 686 274 l 685 282 l 685 297 q 683 311 685 308 q 675 318 681 317 q 685 336 685 322 l 685 342 q 679 358 685 353 q 664 363 675 363 l 642 363 m 661 324 l 657 324 l 657 350 l 663 350 q 668 347 668 350 q 671 340 671 344 l 671 333 q 668 325 671 328 q 661 324 667 324 m 726 350 l 726 271 l 740 271 l 740 350 l 756 350 l 756 363 l 711 363 l 711 350 l 726 350 m 761 363 l 761 271 l 776 271 l 776 313 l 792 313 l 792 271 l 807 271 l 807 363 l 792 363 l 792 325 l 776 325 l 776 363 l 761 363 m 817 363 l 817 271 l 856 271 l 856 283 l 831 283 l 831 313 l 851 313 l 851 325 l 831 325 l 831 350 l 856 350 l 856 363 l 817 363 m 883 363 l 883 271 l 899 271 l 899 311 l 917 311 l 917 324 l 899 324 l 899 350 l 922 350 l 922 363 l 883 363 m 928 292 q 933 275 928 281 q 950 269 939 269 q 965 275 961 269 q 971 292 971 281 l 971 363 l 957 363 l 957 292 q 956 285 957 286 q 950 282 953 282 q 944 285 947 282 q 943 292 943 286 l 943 363 l 928 363 l 928 292 m 981 363 l 981 271 l 1019 271 l 1019 283 l 996 283 l 996 363 l 981 363 m 1025 363 l 1025 271 l 1064 271 l 1064 283 l 1040 283 l 1040 363 l 1025 363 m 88 238 l 72 146 l 86 146 l 89 164 l 104 164 l 107 146 l 122 146 l 107 238 l 88 238 m 103 176 l 90 176 l 96 222 l 97 222 l 103 176 m 128 238 l 128 146 l 142 146 l 142 213 l 158 146 l 174 146 l 174 238 l 161 238 l 161 182 l 146 238 l 128 238 m 183 238 l 183 146 l 206 146 q 222 151 217 146 q 228 168 228 157 l 228 215 q 222 232 228 226 q 206 238 217 238 l 183 238 m 206 158 l 199 158 l 199 225 l 206 225 q 211 222 208 225 q 213 215 213 221 l 213 168 q 211 161 213 163 q 206 158 208 158 m 261 150 q 278 144 267 144 q 293 150 289 144 q 299 167 299 156 l 299 179 l 285 179 l 285 165 q 278 157 285 157 q 271 165 271 157 l 271 218 q 278 226 271 226 q 285 218 285 226 l 285 207 l 299 207 l 299 217 q 293 233 299 228 q 278 239 289 239 q 261 233 267 239 q 256 217 256 225 l 256 167 q 261 150 256 158 m 311 150 q 328 144 317 144 q 344 150 339 144 q 350 167 350 156 l 350 217 q 344 233 350 228 q 328 239 339 239 q 311 233 317 239 q 306 217 306 225 l 306 167 q 311 150 306 158 m 336 167 q 328 157 336 157 q 321 167 321 157 l 321 217 q 328 226 321 226 q 336 217 336 226 l 336 167 m 358 238 l 358 146 l 372 146 l 372 215 l 382 146 l 394 146 l 406 215 l 406 146 l 419 146 l 419 238 l 399 238 l 389 172 l 379 238 l 358 238 m 429 238 l 429 146 l 442 146 l 442 215 l 453 146 l 465 146 l 475 215 l 476 215 l 476 146 l 489 146 l 489 238 l 469 238 l 460 172 l 450 238 l 429 238 m 500 238 l 500 146 l 539 146 l 539 158 l 514 158 l 514 188 l 535 188 l 535 200 l 514 200 l 514 225 l 539 225 l 539 238 l 500 238 m 547 238 l 547 146 l 561 146 l 561 185 l 567 185 q 574 182 572 185 q 575 174 575 181 l 575 157 l 575 150 q 576 146 576 149 l 592 146 q 590 150 590 147 l 590 157 l 590 172 q 588 186 590 181 q 581 193 585 190 q 590 211 590 197 l 590 217 q 585 233 590 225 q 568 238 578 238 l 547 238 m 567 199 l 561 199 l 561 225 l 568 225 q 574 222 571 225 q 575 215 575 221 l 575 208 q 574 200 575 201 q 567 199 572 199 m 604 150 q 619 144 608 144 q 636 150 631 144 q 642 167 642 158 l 642 179 l 628 179 l 628 165 q 619 157 628 157 q 613 165 613 157 l 613 218 q 619 226 613 226 q 628 218 628 226 l 628 207 l 642 207 l 642 217 q 636 233 642 225 q 619 239 631 239 q 604 233 608 239 q 599 217 599 228 l 599 167 q 604 150 599 156 m 649 238 l 649 146 l 664 146 l 664 238 l 649 238 m 685 238 l 669 146 l 683 146 l 686 164 l 703 164 l 704 146 l 719 146 l 704 238 l 685 238 m 700 176 l 688 176 l 693 222 l 694 222 l 700 176 m 725 238 l 725 146 l 764 146 l 764 158 l 740 158 l 740 238 l 725 238 m 786 238 l 800 146 l 819 146 l 833 238 l 821 238 l 811 167 l 801 238 l 786 238 m 840 238 l 840 146 l 879 146 l 879 158 l 854 158 l 854 188 l 875 188 l 875 200 l 854 200 l 854 225 l 879 225 l 879 238 l 840 238 m 888 238 l 888 146 l 901 146 l 901 185 l 907 185 q 914 182 913 185 q 915 174 915 181 l 915 157 q 917 150 915 151 l 917 146 l 932 146 q 931 150 932 147 l 931 157 l 931 172 q 928 186 931 181 q 921 193 925 190 q 931 211 931 197 l 931 217 q 925 233 931 228 q 908 238 921 238 l 888 238 m 907 199 l 901 199 l 901 225 l 908 225 q 914 222 911 225 q 915 215 915 221 l 915 208 q 914 200 915 201 q 907 199 913 199 m 943 150 q 958 144 947 144 q 975 150 969 144 q 981 168 981 156 q 976 183 981 175 q 964 197 975 189 q 958 203 961 200 q 954 208 956 207 q 951 217 951 214 q 960 226 951 226 q 964 224 964 226 q 967 217 967 221 l 967 213 l 981 213 l 981 217 q 975 233 981 225 q 958 239 969 239 q 943 233 949 239 q 938 217 938 228 q 940 201 938 210 q 953 188 943 197 q 958 184 956 186 q 961 180 960 182 q 964 176 963 178 q 965 167 965 174 q 964 160 965 161 q 958 157 961 157 q 951 167 951 157 l 951 172 l 938 172 l 938 167 q 943 150 938 156 m 988 238 l 988 146 l 1003 146 l 1003 238 l 988 238 m 1011 167 q 1017 150 1011 156 q 1033 144 1022 144 q 1050 150 1044 144 q 1056 167 1056 156 l 1056 217 q 1050 233 1056 228 q 1033 239 1044 239 q 1017 233 1022 239 q 1011 217 1011 228 l 1011 167 m 1040 167 q 1033 157 1040 157 q 1026 167 1026 157 l 1026 217 q 1033 226 1026 226 q 1040 217 1040 226 l 1040 167 m 1064 238 l 1064 146 l 1078 146 l 1078 213 l 1094 146 l 1110 146 l 1110 238 l 1097 238 l 1097 182 l 1083 238 l 1064 238 m 93 113 l 103 21 l 122 21 l 129 83 l 136 21 l 154 21 l 164 113 l 151 113 l 144 42 l 138 113 l 121 113 l 114 42 l 108 113 l 93 113 m 167 113 l 176 21 l 196 21 l 203 83 l 210 21 l 228 21 l 238 113 l 224 113 l 218 42 l 211 113 l 194 113 l 188 42 l 181 113 l 167 113 m 240 113 l 250 21 l 269 21 l 276 83 l 283 21 l 301 21 l 310 113 l 297 113 l 292 42 l 285 113 l 268 113 l 261 42 l 254 113 l 240 113 m 314 35 l 314 21 l 328 21 l 328 35 l 314 35 m 338 113 l 338 21 l 378 21 l 378 33 l 351 33 l 351 63 l 372 63 l 372 75 l 351 75 l 351 100 l 378 100 l 378 113 l 338 113 m 385 113 l 385 21 l 399 21 l 399 61 l 418 61 l 418 74 l 399 74 l 399 100 l 424 100 l 424 113 l 385 113 m 432 25 q 449 19 438 19 q 464 25 460 19 q 471 43 471 32 q 467 58 471 50 q 454 72 464 63 q 444 83 444 81 q 442 92 442 89 q 449 101 442 101 q 454 99 451 101 q 456 92 456 97 l 456 88 l 469 88 l 469 90 q 464 108 469 103 q 449 114 460 114 q 432 108 438 114 q 426 92 426 100 q 431 76 426 83 q 443 63 433 72 q 453 51 451 54 q 456 42 456 46 q 454 35 456 36 q 449 32 451 32 q 440 42 440 32 l 440 47 l 426 47 l 426 42 q 432 25 426 33 m 489 100 l 489 21 l 504 21 l 504 100 l 518 100 l 518 113 l 474 113 l 474 100 l 489 100 m 529 25 q 546 19 535 19 q 563 25 557 19 q 568 42 568 33 l 568 113 l 554 113 l 554 42 q 551 35 554 38 q 546 32 549 32 q 540 35 543 32 q 539 42 539 36 l 539 113 l 524 113 l 524 42 q 529 25 524 33 m 578 113 l 578 21 l 600 21 q 615 26 611 21 q 621 43 621 32 l 621 90 q 615 107 621 101 q 600 113 611 113 l 578 113 m 599 33 l 592 33 l 592 100 l 599 100 q 604 97 601 100 q 607 90 607 94 l 607 43 q 604 36 607 39 q 599 33 601 33 m 631 113 l 631 21 l 644 21 l 644 113 l 631 113 m 660 25 q 675 19 664 19 q 692 25 686 19 q 697 42 697 31 l 697 90 q 692 108 697 103 q 675 114 686 114 q 660 108 664 114 q 653 90 653 101 l 653 42 q 660 25 653 32 m 683 42 q 675 32 683 32 q 668 42 668 32 l 668 92 q 675 101 668 101 q 683 92 683 101 l 683 42 m 717 100 l 717 21 l 732 21 l 732 100 l 747 100 l 747 113 l 703 113 l 703 100 l 717 100 m 767 60 l 767 21 l 782 21 l 782 60 l 799 113 l 785 113 l 775 79 l 765 113 l 750 113 l 767 60 m 806 113 l 806 21 l 819 21 l 819 58 l 826 58 q 843 64 838 58 q 849 81 849 72 l 849 90 q 843 107 849 99 q 826 113 838 113 l 806 113 m 826 71 l 819 71 l 819 100 l 826 100 q 832 97 829 100 q 833 90 833 96 l 833 81 q 832 74 833 75 q 826 71 829 71 m 856 113 l 856 21 l 894 21 l 894 33 l 869 33 l 869 63 l 890 63 l 890 75 l 869 75 l 869 100 l 894 100 l 894 113 l 856 113 m 903 35 l 903 21 l 917 21 l 917 35 l 903 35 m 925 42 q 931 25 925 31 q 947 19 936 19 q 963 25 957 19 q 968 42 968 31 l 968 54 l 954 54 l 954 40 q 947 32 954 32 q 940 40 940 32 l 940 93 q 947 101 940 101 q 954 93 954 101 l 954 82 l 968 82 l 968 92 q 963 108 968 103 q 947 114 957 114 q 931 108 936 114 q 925 92 925 103 l 925 42 m 975 42 q 981 25 975 31 q 997 19 986 19 q 1014 25 1008 19 q 1019 42 1019 31 l 1019 90 q 1014 108 1019 103 q 997 114 1008 114 q 981 108 986 114 q 975 90 975 103 l 975 42 m 1004 42 q 997 32 1004 32 q 990 42 990 32 l 990 92 q 997 101 990 101 q 1004 92 1004 101 l 1004 42 m 1028 113 l 1028 21 l 1040 21 l 1040 90 l 1042 90 l 1051 21 l 1064 21 l 1075 90 l 1075 21 l 1089 21 l 1089 113 l 1068 113 l 1058 47 l 1049 113 l 1028 113 z "},"1":{"ha":1153,"x_min":58,"x_max":1124,"o":"m 58 944 l 58 700 l 97 700 l 97 800 l 115 800 q 158 815 144 800 q 172 860 172 829 l 172 885 q 158 929 172 915 q 115 944 144 944 l 58 944 m 115 835 l 97 835 l 97 910 l 115 910 q 129 904 125 910 q 135 886 135 899 l 135 858 q 129 840 135 846 q 115 835 125 835 m 193 944 l 193 700 l 299 700 l 299 735 l 232 735 l 232 810 l 285 810 l 285 846 l 232 846 l 232 910 l 299 910 l 299 944 l 193 944 m 321 944 l 321 700 l 360 700 l 360 806 l 372 806 q 392 799 385 806 q 397 775 397 790 l 397 731 l 397 711 q 400 700 397 708 l 439 700 q 436 713 436 708 q 435 729 435 717 l 435 772 q 429 807 435 796 q 410 825 424 821 q 435 874 435 836 l 435 889 q 421 931 435 918 q 378 944 408 944 l 321 944 m 374 840 l 360 840 l 360 910 l 376 910 q 392 904 388 910 q 396 885 396 897 l 396 865 q 390 846 396 851 q 374 840 385 840 m 469 713 q 513 696 483 696 q 556 713 539 696 q 569 758 569 728 q 561 799 569 782 q 528 838 549 818 q 501 865 508 854 q 494 890 494 876 q 514 914 494 914 q 528 907 524 914 q 533 889 533 901 l 533 876 l 569 876 l 569 886 q 556 932 569 915 q 514 949 542 949 q 471 932 486 949 q 456 888 456 917 q 465 849 456 867 q 499 811 475 832 q 525 783 513 799 q 532 756 532 769 q 526 738 532 746 q 511 732 522 732 q 492 756 492 732 l 492 772 l 456 772 l 456 758 q 469 713 456 728 m 604 713 q 647 696 619 696 q 692 713 675 696 q 706 758 706 728 l 706 886 q 692 932 706 918 q 647 949 675 949 q 604 932 619 949 q 589 886 589 917 l 589 758 q 604 713 589 731 m 668 756 q 647 732 668 732 q 628 756 628 732 l 628 889 q 647 914 628 914 q 668 889 668 914 l 668 756 m 732 944 l 732 700 l 767 700 l 767 879 l 813 700 l 853 700 l 853 944 l 818 944 l 818 799 l 781 944 l 732 944 m 911 944 l 871 700 l 907 700 l 914 747 l 958 747 l 958 749 l 965 700 l 1003 700 l 964 944 l 911 944 m 953 781 l 918 781 l 935 903 l 936 903 l 953 781 m 1022 944 l 1022 700 l 1124 700 l 1124 735 l 1060 735 l 1060 944 l 1022 944 m 74 433 q 117 417 88 417 q 158 433 144 417 q 174 478 174 449 l 174 665 l 136 665 l 136 475 q 131 457 136 463 q 117 451 125 451 q 103 457 108 451 q 97 475 97 463 l 97 665 l 58 665 l 58 478 q 74 433 58 449 m 208 433 q 251 417 224 417 q 294 433 281 417 q 308 479 308 447 q 300 519 308 503 q 267 557 289 536 q 240 586 250 572 q 233 610 233 597 q 253 633 233 633 q 267 628 263 633 q 272 610 272 619 l 272 597 l 308 597 l 308 607 q 294 653 308 635 q 253 669 281 669 q 210 653 225 669 q 194 608 194 635 q 204 569 194 585 q 238 532 214 553 q 264 504 251 519 q 271 476 271 490 q 265 458 271 464 q 250 451 261 451 q 231 475 231 451 l 231 493 l 194 493 l 194 478 q 208 433 194 447 m 331 665 l 331 421 l 436 421 l 436 456 l 369 456 l 369 531 l 422 531 l 422 565 l 369 565 l 369 631 l 436 631 l 436 665 l 331 665 m 526 433 q 569 417 542 417 q 613 433 597 417 q 628 478 628 447 l 628 607 q 613 653 628 638 q 569 669 597 669 q 526 653 542 669 q 511 607 511 635 l 511 478 q 526 433 511 449 m 589 476 q 569 451 589 451 q 550 476 550 451 l 550 610 q 569 633 550 633 q 589 610 589 633 l 589 476 m 654 665 l 654 421 l 689 421 l 689 599 l 735 421 l 775 421 l 775 665 l 740 665 l 740 518 l 703 665 l 654 665 m 803 665 l 803 421 l 906 421 l 906 456 l 842 456 l 842 665 l 803 665 m 928 525 l 928 421 l 967 421 l 967 525 l 1014 665 l 976 665 l 950 575 l 949 575 l 922 665 l 882 665 l 928 525 m 1033 563 l 1039 485 l 1068 485 l 1072 563 l 1072 665 l 1033 665 l 1033 563 m 1035 457 l 1035 421 l 1072 421 l 1072 457 l 1035 457 m 118 363 l 118 271 l 133 271 l 133 308 l 140 308 q 156 314 151 308 q 161 331 161 319 l 161 340 q 156 357 161 351 q 140 363 151 363 l 118 363 m 140 321 l 133 321 l 133 350 l 140 350 q 144 347 144 350 q 147 342 147 344 l 147 331 q 144 324 147 326 q 140 321 144 321 m 168 292 q 174 275 168 281 q 190 269 179 269 q 206 275 201 269 q 211 292 211 281 l 211 363 l 197 363 l 197 292 q 196 285 197 286 q 190 282 193 282 q 185 285 188 282 q 182 292 182 288 l 182 363 l 168 363 l 168 292 m 221 363 l 221 271 l 235 271 l 235 310 l 240 310 q 247 307 246 310 q 250 299 250 304 l 250 282 l 250 275 q 251 271 250 272 l 265 271 q 264 275 265 272 l 264 282 l 264 297 q 263 311 264 308 q 254 318 260 317 q 264 336 264 322 l 264 342 q 258 358 264 353 q 243 363 254 363 l 221 363 m 240 324 l 235 324 l 235 350 l 242 350 q 247 347 244 350 q 250 340 250 344 l 250 333 q 247 325 250 328 q 240 324 246 324 m 272 292 q 278 275 272 281 q 293 269 283 269 q 310 275 304 269 q 315 292 315 281 l 315 306 l 301 306 l 301 290 q 294 282 301 282 q 288 290 288 282 l 288 343 q 294 351 288 351 q 301 343 301 351 l 301 332 l 315 332 l 315 342 q 310 358 315 353 q 293 364 304 364 q 278 358 283 364 q 272 342 272 353 l 272 292 m 324 363 l 324 271 l 338 271 l 338 313 l 353 313 l 353 271 l 368 271 l 368 363 l 353 363 l 353 325 l 338 325 l 338 363 l 324 363 m 389 363 l 374 271 l 388 271 l 390 289 l 407 289 l 410 271 l 424 271 l 408 363 l 389 363 m 404 301 l 392 301 l 399 347 l 404 301 m 432 275 q 449 269 438 269 q 465 275 460 269 q 471 293 471 283 q 467 308 471 300 q 454 322 465 314 q 444 333 446 331 q 442 342 442 339 q 449 351 442 351 q 454 349 451 351 q 457 342 457 346 l 457 338 l 469 338 l 469 342 q 465 358 469 353 q 449 364 460 364 q 433 358 438 364 q 428 342 428 353 q 431 326 428 331 q 443 313 433 322 q 453 301 450 307 q 456 292 456 299 q 454 285 456 286 q 449 282 451 282 q 440 292 440 282 l 440 297 l 426 297 l 426 292 q 432 275 426 283 m 478 363 l 478 271 l 518 271 l 518 283 l 492 283 l 492 313 l 513 313 l 513 325 l 492 325 l 492 350 l 518 350 l 518 363 l 478 363 m 546 363 l 546 271 l 560 271 l 560 311 l 579 311 l 579 324 l 560 324 l 560 350 l 583 350 l 583 363 l 546 363 m 589 292 q 594 275 589 281 q 611 269 600 269 q 628 275 622 269 q 633 292 633 283 l 633 342 q 628 358 633 350 q 611 364 622 364 q 594 358 600 364 q 589 342 589 353 l 589 292 m 618 292 q 611 282 618 282 q 603 292 603 282 l 603 342 q 611 351 603 351 q 618 342 618 351 l 618 292 m 642 363 l 642 271 l 657 271 l 657 310 l 661 310 q 668 307 667 310 q 671 299 671 304 l 671 282 l 671 275 q 672 271 671 272 l 686 271 q 685 275 686 274 l 685 282 l 685 297 q 683 311 685 308 q 675 318 681 317 q 685 336 685 322 l 685 342 q 679 358 685 353 q 664 363 675 363 l 642 363 m 661 324 l 657 324 l 657 350 l 663 350 q 668 347 668 350 q 671 340 671 344 l 671 333 q 668 325 671 328 q 661 324 667 324 m 726 350 l 726 271 l 740 271 l 740 350 l 756 350 l 756 363 l 711 363 l 711 350 l 726 350 m 761 363 l 761 271 l 776 271 l 776 313 l 792 313 l 792 271 l 807 271 l 807 363 l 792 363 l 792 325 l 776 325 l 776 363 l 761 363 m 817 363 l 817 271 l 856 271 l 856 283 l 831 283 l 831 313 l 851 313 l 851 325 l 831 325 l 831 350 l 856 350 l 856 363 l 817 363 m 883 363 l 883 271 l 899 271 l 899 311 l 917 311 l 917 324 l 899 324 l 899 350 l 922 350 l 922 363 l 883 363 m 928 292 q 933 275 928 281 q 950 269 939 269 q 965 275 961 269 q 971 292 971 281 l 971 363 l 957 363 l 957 292 q 956 285 957 286 q 950 282 953 282 q 944 285 947 282 q 943 292 943 286 l 943 363 l 928 363 l 928 292 m 981 363 l 981 271 l 1019 271 l 1019 283 l 996 283 l 996 363 l 981 363 m 1025 363 l 1025 271 l 1064 271 l 1064 283 l 1040 283 l 1040 363 l 1025 363 m 88 238 l 72 146 l 86 146 l 89 164 l 104 164 l 107 146 l 122 146 l 107 238 l 88 238 m 103 176 l 90 176 l 96 222 l 97 222 l 103 176 m 128 238 l 128 146 l 142 146 l 142 213 l 158 146 l 174 146 l 174 238 l 161 238 l 161 182 l 146 238 l 128 238 m 183 238 l 183 146 l 206 146 q 222 151 217 146 q 228 168 228 157 l 228 215 q 222 232 228 226 q 206 238 217 238 l 183 238 m 206 158 l 199 158 l 199 225 l 206 225 q 211 222 208 225 q 213 215 213 221 l 213 168 q 211 161 213 163 q 206 158 208 158 m 261 150 q 278 144 267 144 q 293 150 289 144 q 299 167 299 156 l 299 179 l 285 179 l 285 165 q 278 157 285 157 q 271 165 271 157 l 271 218 q 278 226 271 226 q 285 218 285 226 l 285 207 l 299 207 l 299 217 q 293 233 299 228 q 278 239 289 239 q 261 233 267 239 q 256 217 256 225 l 256 167 q 261 150 256 158 m 311 150 q 328 144 317 144 q 344 150 339 144 q 350 167 350 156 l 350 217 q 344 233 350 228 q 328 239 339 239 q 311 233 317 239 q 306 217 306 225 l 306 167 q 311 150 306 158 m 336 167 q 328 157 336 157 q 321 167 321 157 l 321 217 q 328 226 321 226 q 336 217 336 226 l 336 167 m 358 238 l 358 146 l 372 146 l 372 215 l 382 146 l 394 146 l 406 215 l 406 146 l 419 146 l 419 238 l 399 238 l 389 172 l 379 238 l 358 238 m 429 238 l 429 146 l 442 146 l 442 215 l 453 146 l 465 146 l 475 215 l 476 215 l 476 146 l 489 146 l 489 238 l 469 238 l 460 172 l 450 238 l 429 238 m 500 238 l 500 146 l 539 146 l 539 158 l 514 158 l 514 188 l 535 188 l 535 200 l 514 200 l 514 225 l 539 225 l 539 238 l 500 238 m 547 238 l 547 146 l 561 146 l 561 185 l 567 185 q 574 182 572 185 q 575 174 575 181 l 575 157 l 575 150 q 576 146 576 149 l 592 146 q 590 150 590 147 l 590 157 l 590 172 q 588 186 590 181 q 581 193 585 190 q 590 211 590 197 l 590 217 q 585 233 590 225 q 568 238 578 238 l 547 238 m 567 199 l 561 199 l 561 225 l 568 225 q 574 222 571 225 q 575 215 575 221 l 575 208 q 574 200 575 201 q 567 199 572 199 m 604 150 q 619 144 608 144 q 636 150 631 144 q 642 167 642 158 l 642 179 l 628 179 l 628 165 q 619 157 628 157 q 613 165 613 157 l 613 218 q 619 226 613 226 q 628 218 628 226 l 628 207 l 642 207 l 642 217 q 636 233 642 225 q 619 239 631 239 q 604 233 608 239 q 599 217 599 228 l 599 167 q 604 150 599 156 m 649 238 l 649 146 l 664 146 l 664 238 l 649 238 m 685 238 l 669 146 l 683 146 l 686 164 l 703 164 l 704 146 l 719 146 l 704 238 l 685 238 m 700 176 l 688 176 l 693 222 l 694 222 l 700 176 m 725 238 l 725 146 l 764 146 l 764 158 l 740 158 l 740 238 l 725 238 m 786 238 l 800 146 l 819 146 l 833 238 l 821 238 l 811 167 l 801 238 l 786 238 m 840 238 l 840 146 l 879 146 l 879 158 l 854 158 l 854 188 l 875 188 l 875 200 l 854 200 l 854 225 l 879 225 l 879 238 l 840 238 m 888 238 l 888 146 l 901 146 l 901 185 l 907 185 q 914 182 913 185 q 915 174 915 181 l 915 157 q 917 150 915 151 l 917 146 l 932 146 q 931 150 932 147 l 931 157 l 931 172 q 928 186 931 181 q 921 193 925 190 q 931 211 931 197 l 931 217 q 925 233 931 228 q 908 238 921 238 l 888 238 m 907 199 l 901 199 l 901 225 l 908 225 q 914 222 911 225 q 915 215 915 221 l 915 208 q 914 200 915 201 q 907 199 913 199 m 943 150 q 958 144 947 144 q 975 150 969 144 q 981 168 981 156 q 976 183 981 175 q 964 197 975 189 q 958 203 961 200 q 954 208 956 207 q 951 217 951 214 q 960 226 951 226 q 964 224 964 226 q 967 217 967 221 l 967 213 l 981 213 l 981 217 q 975 233 981 225 q 958 239 969 239 q 943 233 949 239 q 938 217 938 228 q 940 201 938 210 q 953 188 943 197 q 958 184 956 186 q 961 180 960 182 q 964 176 963 178 q 965 167 965 174 q 964 160 965 161 q 958 157 961 157 q 951 167 951 157 l 951 172 l 938 172 l 938 167 q 943 150 938 156 m 988 238 l 988 146 l 1003 146 l 1003 238 l 988 238 m 1011 167 q 1017 150 1011 156 q 1033 144 1022 144 q 1050 150 1044 144 q 1056 167 1056 156 l 1056 217 q 1050 233 1056 228 q 1033 239 1044 239 q 1017 233 1022 239 q 1011 217 1011 228 l 1011 167 m 1040 167 q 1033 157 1040 157 q 1026 167 1026 157 l 1026 217 q 1033 226 1026 226 q 1040 217 1040 226 l 1040 167 m 1064 238 l 1064 146 l 1078 146 l 1078 213 l 1094 146 l 1110 146 l 1110 238 l 1097 238 l 1097 182 l 1083 238 l 1064 238 m 93 113 l 103 21 l 122 21 l 129 83 l 136 21 l 154 21 l 164 113 l 151 113 l 144 42 l 138 113 l 121 113 l 114 42 l 108 113 l 93 113 m 167 113 l 176 21 l 196 21 l 203 83 l 210 21 l 228 21 l 238 113 l 224 113 l 218 42 l 211 113 l 194 113 l 188 42 l 181 113 l 167 113 m 240 113 l 250 21 l 269 21 l 276 83 l 283 21 l 301 21 l 310 113 l 297 113 l 292 42 l 285 113 l 268 113 l 261 42 l 254 113 l 240 113 m 314 35 l 314 21 l 328 21 l 328 35 l 314 35 m 338 113 l 338 21 l 378 21 l 378 33 l 351 33 l 351 63 l 372 63 l 372 75 l 351 75 l 351 100 l 378 100 l 378 113 l 338 113 m 385 113 l 385 21 l 399 21 l 399 61 l 418 61 l 418 74 l 399 74 l 399 100 l 424 100 l 424 113 l 385 113 m 432 25 q 449 19 438 19 q 464 25 460 19 q 471 43 471 32 q 467 58 471 50 q 454 72 464 63 q 444 83 444 81 q 442 92 442 89 q 449 101 442 101 q 454 99 451 101 q 456 92 456 97 l 456 88 l 469 88 l 469 90 q 464 108 469 103 q 449 114 460 114 q 432 108 438 114 q 426 92 426 100 q 431 76 426 83 q 443 63 433 72 q 453 51 451 54 q 456 42 456 46 q 454 35 456 36 q 449 32 451 32 q 440 42 440 32 l 440 47 l 426 47 l 426 42 q 432 25 426 33 m 489 100 l 489 21 l 504 21 l 504 100 l 518 100 l 518 113 l 474 113 l 474 100 l 489 100 m 529 25 q 546 19 535 19 q 563 25 557 19 q 568 42 568 33 l 568 113 l 554 113 l 554 42 q 551 35 554 38 q 546 32 549 32 q 540 35 543 32 q 539 42 539 36 l 539 113 l 524 113 l 524 42 q 529 25 524 33 m 578 113 l 578 21 l 600 21 q 615 26 611 21 q 621 43 621 32 l 621 90 q 615 107 621 101 q 600 113 611 113 l 578 113 m 599 33 l 592 33 l 592 100 l 599 100 q 604 97 601 100 q 607 90 607 94 l 607 43 q 604 36 607 39 q 599 33 601 33 m 631 113 l 631 21 l 644 21 l 644 113 l 631 113 m 660 25 q 675 19 664 19 q 692 25 686 19 q 697 42 697 31 l 697 90 q 692 108 697 103 q 675 114 686 114 q 660 108 664 114 q 653 90 653 101 l 653 42 q 660 25 653 32 m 683 42 q 675 32 683 32 q 668 42 668 32 l 668 92 q 675 101 668 101 q 683 92 683 101 l 683 42 m 717 100 l 717 21 l 732 21 l 732 100 l 747 100 l 747 113 l 703 113 l 703 100 l 717 100 m 767 60 l 767 21 l 782 21 l 782 60 l 799 113 l 785 113 l 775 79 l 765 113 l 750 113 l 767 60 m 806 113 l 806 21 l 819 21 l 819 58 l 826 58 q 843 64 838 58 q 849 81 849 72 l 849 90 q 843 107 849 99 q 826 113 838 113 l 806 113 m 826 71 l 819 71 l 819 100 l 826 100 q 832 97 829 100 q 833 90 833 96 l 833 81 q 832 74 833 75 q 826 71 829 71 m 856 113 l 856 21 l 894 21 l 894 33 l 869 33 l 869 63 l 890 63 l 890 75 l 869 75 l 869 100 l 894 100 l 894 113 l 856 113 m 903 35 l 903 21 l 917 21 l 917 35 l 903 35 m 925 42 q 931 25 925 31 q 947 19 936 19 q 963 25 957 19 q 968 42 968 31 l 968 54 l 954 54 l 954 40 q 947 32 954 32 q 940 40 940 32 l 940 93 q 947 101 940 101 q 954 93 954 101 l 954 82 l 968 82 l 968 92 q 963 108 968 103 q 947 114 957 114 q 931 108 936 114 q 925 92 925 103 l 925 42 m 975 42 q 981 25 975 31 q 997 19 986 19 q 1014 25 1008 19 q 1019 42 1019 31 l 1019 90 q 1014 108 1019 103 q 997 114 1008 114 q 981 108 986 114 q 975 90 975 103 l 975 42 m 1004 42 q 997 32 1004 32 q 990 42 990 32 l 990 92 q 997 101 990 101 q 1004 92 1004 101 l 1004 42 m 1028 113 l 1028 21 l 1040 21 l 1040 90 l 1042 90 l 1051 21 l 1064 21 l 1075 90 l 1075 21 l 1089 21 l 1089 113 l 1068 113 l 1058 47 l 1049 113 l 1028 113 z "},"2":{"ha":1153,"x_min":58,"x_max":1124,"o":"m 58 944 l 58 700 l 97 700 l 97 800 l 115 800 q 158 815 144 800 q 172 860 172 829 l 172 885 q 158 929 172 915 q 115 944 144 944 l 58 944 m 115 835 l 97 835 l 97 910 l 115 910 q 129 904 125 910 q 135 886 135 899 l 135 858 q 129 840 135 846 q 115 835 125 835 m 193 944 l 193 700 l 299 700 l 299 735 l 232 735 l 232 810 l 285 810 l 285 846 l 232 846 l 232 910 l 299 910 l 299 944 l 193 944 m 321 944 l 321 700 l 360 700 l 360 806 l 372 806 q 392 799 385 806 q 397 775 397 790 l 397 731 l 397 711 q 400 700 397 708 l 439 700 q 436 713 436 708 q 435 729 435 717 l 435 772 q 429 807 435 796 q 410 825 424 821 q 435 874 435 836 l 435 889 q 421 931 435 918 q 378 944 408 944 l 321 944 m 374 840 l 360 840 l 360 910 l 376 910 q 392 904 388 910 q 396 885 396 897 l 396 865 q 390 846 396 851 q 374 840 385 840 m 469 713 q 513 696 483 696 q 556 713 539 696 q 569 758 569 728 q 561 799 569 782 q 528 838 549 818 q 501 865 508 854 q 494 890 494 876 q 514 914 494 914 q 528 907 524 914 q 533 889 533 901 l 533 876 l 569 876 l 569 886 q 556 932 569 915 q 514 949 542 949 q 471 932 486 949 q 456 888 456 917 q 465 849 456 867 q 499 811 475 832 q 525 783 513 799 q 532 756 532 769 q 526 738 532 746 q 511 732 522 732 q 492 756 492 732 l 492 772 l 456 772 l 456 758 q 469 713 456 728 m 604 713 q 647 696 619 696 q 692 713 675 696 q 706 758 706 728 l 706 886 q 692 932 706 918 q 647 949 675 949 q 604 932 619 949 q 589 886 589 917 l 589 758 q 604 713 589 731 m 668 756 q 647 732 668 732 q 628 756 628 732 l 628 889 q 647 914 628 914 q 668 889 668 914 l 668 756 m 732 944 l 732 700 l 767 700 l 767 879 l 813 700 l 853 700 l 853 944 l 818 944 l 818 799 l 781 944 l 732 944 m 911 944 l 871 700 l 907 700 l 914 747 l 958 747 l 958 749 l 965 700 l 1003 700 l 964 944 l 911 944 m 953 781 l 918 781 l 935 903 l 936 903 l 953 781 m 1022 944 l 1022 700 l 1124 700 l 1124 735 l 1060 735 l 1060 944 l 1022 944 m 74 433 q 117 417 88 417 q 158 433 144 417 q 174 478 174 449 l 174 665 l 136 665 l 136 475 q 131 457 136 463 q 117 451 125 451 q 103 457 108 451 q 97 475 97 463 l 97 665 l 58 665 l 58 478 q 74 433 58 449 m 208 433 q 251 417 224 417 q 294 433 281 417 q 308 479 308 447 q 300 519 308 503 q 267 557 289 536 q 240 586 250 572 q 233 610 233 597 q 253 633 233 633 q 267 628 263 633 q 272 610 272 619 l 272 597 l 308 597 l 308 607 q 294 653 308 635 q 253 669 281 669 q 210 653 225 669 q 194 608 194 635 q 204 569 194 585 q 238 532 214 553 q 264 504 251 519 q 271 476 271 490 q 265 458 271 464 q 250 451 261 451 q 231 475 231 451 l 231 493 l 194 493 l 194 478 q 208 433 194 447 m 331 665 l 331 421 l 436 421 l 436 456 l 369 456 l 369 531 l 422 531 l 422 565 l 369 565 l 369 631 l 436 631 l 436 665 l 331 665 m 526 433 q 569 417 542 417 q 613 433 597 417 q 628 478 628 447 l 628 607 q 613 653 628 638 q 569 669 597 669 q 526 653 542 669 q 511 607 511 635 l 511 478 q 526 433 511 449 m 589 476 q 569 451 589 451 q 550 476 550 451 l 550 610 q 569 633 550 633 q 589 610 589 633 l 589 476 m 654 665 l 654 421 l 689 421 l 689 599 l 735 421 l 775 421 l 775 665 l 740 665 l 740 518 l 703 665 l 654 665 m 803 665 l 803 421 l 906 421 l 906 456 l 842 456 l 842 665 l 803 665 m 928 525 l 928 421 l 967 421 l 967 525 l 1014 665 l 976 665 l 950 575 l 949 575 l 922 665 l 882 665 l 928 525 m 1033 563 l 1039 485 l 1068 485 l 1072 563 l 1072 665 l 1033 665 l 1033 563 m 1035 457 l 1035 421 l 1072 421 l 1072 457 l 1035 457 m 118 363 l 118 271 l 133 271 l 133 308 l 140 308 q 156 314 151 308 q 161 331 161 319 l 161 340 q 156 357 161 351 q 140 363 151 363 l 118 363 m 140 321 l 133 321 l 133 350 l 140 350 q 144 347 144 350 q 147 342 147 344 l 147 331 q 144 324 147 326 q 140 321 144 321 m 168 292 q 174 275 168 281 q 190 269 179 269 q 206 275 201 269 q 211 292 211 281 l 211 363 l 197 363 l 197 292 q 196 285 197 286 q 190 282 193 282 q 185 285 188 282 q 182 292 182 288 l 182 363 l 168 363 l 168 292 m 221 363 l 221 271 l 235 271 l 235 310 l 240 310 q 247 307 246 310 q 250 299 250 304 l 250 282 l 250 275 q 251 271 250 272 l 265 271 q 264 275 265 272 l 264 282 l 264 297 q 263 311 264 308 q 254 318 260 317 q 264 336 264 322 l 264 342 q 258 358 264 353 q 243 363 254 363 l 221 363 m 240 324 l 235 324 l 235 350 l 242 350 q 247 347 244 350 q 250 340 250 344 l 250 333 q 247 325 250 328 q 240 324 246 324 m 272 292 q 278 275 272 281 q 293 269 283 269 q 310 275 304 269 q 315 292 315 281 l 315 306 l 301 306 l 301 290 q 294 282 301 282 q 288 290 288 282 l 288 343 q 294 351 288 351 q 301 343 301 351 l 301 332 l 315 332 l 315 342 q 310 358 315 353 q 293 364 304 364 q 278 358 283 364 q 272 342 272 353 l 272 292 m 324 363 l 324 271 l 338 271 l 338 313 l 353 313 l 353 271 l 368 271 l 368 363 l 353 363 l 353 325 l 338 325 l 338 363 l 324 363 m 389 363 l 374 271 l 388 271 l 390 289 l 407 289 l 410 271 l 424 271 l 408 363 l 389 363 m 404 301 l 392 301 l 399 347 l 404 301 m 432 275 q 449 269 438 269 q 465 275 460 269 q 471 293 471 283 q 467 308 471 300 q 454 322 465 314 q 444 333 446 331 q 442 342 442 339 q 449 351 442 351 q 454 349 451 351 q 457 342 457 346 l 457 338 l 469 338 l 469 342 q 465 358 469 353 q 449 364 460 364 q 433 358 438 364 q 428 342 428 353 q 431 326 428 331 q 443 313 433 322 q 453 301 450 307 q 456 292 456 299 q 454 285 456 286 q 449 282 451 282 q 440 292 440 282 l 440 297 l 426 297 l 426 292 q 432 275 426 283 m 478 363 l 478 271 l 518 271 l 518 283 l 492 283 l 492 313 l 513 313 l 513 325 l 492 325 l 492 350 l 518 350 l 518 363 l 478 363 m 546 363 l 546 271 l 560 271 l 560 311 l 579 311 l 579 324 l 560 324 l 560 350 l 583 350 l 583 363 l 546 363 m 589 292 q 594 275 589 281 q 611 269 600 269 q 628 275 622 269 q 633 292 633 283 l 633 342 q 628 358 633 350 q 611 364 622 364 q 594 358 600 364 q 589 342 589 353 l 589 292 m 618 292 q 611 282 618 282 q 603 292 603 282 l 603 342 q 611 351 603 351 q 618 342 618 351 l 618 292 m 642 363 l 642 271 l 657 271 l 657 310 l 661 310 q 668 307 667 310 q 671 299 671 304 l 671 282 l 671 275 q 672 271 671 272 l 686 271 q 685 275 686 274 l 685 282 l 685 297 q 683 311 685 308 q 675 318 681 317 q 685 336 685 322 l 685 342 q 679 358 685 353 q 664 363 675 363 l 642 363 m 661 324 l 657 324 l 657 350 l 663 350 q 668 347 668 350 q 671 340 671 344 l 671 333 q 668 325 671 328 q 661 324 667 324 m 726 350 l 726 271 l 740 271 l 740 350 l 756 350 l 756 363 l 711 363 l 711 350 l 726 350 m 761 363 l 761 271 l 776 271 l 776 313 l 792 313 l 792 271 l 807 271 l 807 363 l 792 363 l 792 325 l 776 325 l 776 363 l 761 363 m 817 363 l 817 271 l 856 271 l 856 283 l 831 283 l 831 313 l 851 313 l 851 325 l 831 325 l 831 350 l 856 350 l 856 363 l 817 363 m 883 363 l 883 271 l 899 271 l 899 311 l 917 311 l 917 324 l 899 324 l 899 350 l 922 350 l 922 363 l 883 363 m 928 292 q 933 275 928 281 q 950 269 939 269 q 965 275 961 269 q 971 292 971 281 l 971 363 l 957 363 l 957 292 q 956 285 957 286 q 950 282 953 282 q 944 285 947 282 q 943 292 943 286 l 943 363 l 928 363 l 928 292 m 981 363 l 981 271 l 1019 271 l 1019 283 l 996 283 l 996 363 l 981 363 m 1025 363 l 1025 271 l 1064 271 l 1064 283 l 1040 283 l 1040 363 l 1025 363 m 88 238 l 72 146 l 86 146 l 89 164 l 104 164 l 107 146 l 122 146 l 107 238 l 88 238 m 103 176 l 90 176 l 96 222 l 97 222 l 103 176 m 128 238 l 128 146 l 142 146 l 142 213 l 158 146 l 174 146 l 174 238 l 161 238 l 161 182 l 146 238 l 128 238 m 183 238 l 183 146 l 206 146 q 222 151 217 146 q 228 168 228 157 l 228 215 q 222 232 228 226 q 206 238 217 238 l 183 238 m 206 158 l 199 158 l 199 225 l 206 225 q 211 222 208 225 q 213 215 213 221 l 213 168 q 211 161 213 163 q 206 158 208 158 m 261 150 q 278 144 267 144 q 293 150 289 144 q 299 167 299 156 l 299 179 l 285 179 l 285 165 q 278 157 285 157 q 271 165 271 157 l 271 218 q 278 226 271 226 q 285 218 285 226 l 285 207 l 299 207 l 299 217 q 293 233 299 228 q 278 239 289 239 q 261 233 267 239 q 256 217 256 225 l 256 167 q 261 150 256 158 m 311 150 q 328 144 317 144 q 344 150 339 144 q 350 167 350 156 l 350 217 q 344 233 350 228 q 328 239 339 239 q 311 233 317 239 q 306 217 306 225 l 306 167 q 311 150 306 158 m 336 167 q 328 157 336 157 q 321 167 321 157 l 321 217 q 328 226 321 226 q 336 217 336 226 l 336 167 m 358 238 l 358 146 l 372 146 l 372 215 l 382 146 l 394 146 l 406 215 l 406 146 l 419 146 l 419 238 l 399 238 l 389 172 l 379 238 l 358 238 m 429 238 l 429 146 l 442 146 l 442 215 l 453 146 l 465 146 l 475 215 l 476 215 l 476 146 l 489 146 l 489 238 l 469 238 l 460 172 l 450 238 l 429 238 m 500 238 l 500 146 l 539 146 l 539 158 l 514 158 l 514 188 l 535 188 l 535 200 l 514 200 l 514 225 l 539 225 l 539 238 l 500 238 m 547 238 l 547 146 l 561 146 l 561 185 l 567 185 q 574 182 572 185 q 575 174 575 181 l 575 157 l 575 150 q 576 146 576 149 l 592 146 q 590 150 590 147 l 590 157 l 590 172 q 588 186 590 181 q 581 193 585 190 q 590 211 590 197 l 590 217 q 585 233 590 225 q 568 238 578 238 l 547 238 m 567 199 l 561 199 l 561 225 l 568 225 q 574 222 571 225 q 575 215 575 221 l 575 208 q 574 200 575 201 q 567 199 572 199 m 604 150 q 619 144 608 144 q 636 150 631 144 q 642 167 642 158 l 642 179 l 628 179 l 628 165 q 619 157 628 157 q 613 165 613 157 l 613 218 q 619 226 613 226 q 628 218 628 226 l 628 207 l 642 207 l 642 217 q 636 233 642 225 q 619 239 631 239 q 604 233 608 239 q 599 217 599 228 l 599 167 q 604 150 599 156 m 649 238 l 649 146 l 664 146 l 664 238 l 649 238 m 685 238 l 669 146 l 683 146 l 686 164 l 703 164 l 704 146 l 719 146 l 704 238 l 685 238 m 700 176 l 688 176 l 693 222 l 694 222 l 700 176 m 725 238 l 725 146 l 764 146 l 764 158 l 740 158 l 740 238 l 725 238 m 786 238 l 800 146 l 819 146 l 833 238 l 821 238 l 811 167 l 801 238 l 786 238 m 840 238 l 840 146 l 879 146 l 879 158 l 854 158 l 854 188 l 875 188 l 875 200 l 854 200 l 854 225 l 879 225 l 879 238 l 840 238 m 888 238 l 888 146 l 901 146 l 901 185 l 907 185 q 914 182 913 185 q 915 174 915 181 l 915 157 q 917 150 915 151 l 917 146 l 932 146 q 931 150 932 147 l 931 157 l 931 172 q 928 186 931 181 q 921 193 925 190 q 931 211 931 197 l 931 217 q 925 233 931 228 q 908 238 921 238 l 888 238 m 907 199 l 901 199 l 901 225 l 908 225 q 914 222 911 225 q 915 215 915 221 l 915 208 q 914 200 915 201 q 907 199 913 199 m 943 150 q 958 144 947 144 q 975 150 969 144 q 981 168 981 156 q 976 183 981 175 q 964 197 975 189 q 958 203 961 200 q 954 208 956 207 q 951 217 951 214 q 960 226 951 226 q 964 224 964 226 q 967 217 967 221 l 967 213 l 981 213 l 981 217 q 975 233 981 225 q 958 239 969 239 q 943 233 949 239 q 938 217 938 228 q 940 201 938 210 q 953 188 943 197 q 958 184 956 186 q 961 180 960 182 q 964 176 963 178 q 965 167 965 174 q 964 160 965 161 q 958 157 961 157 q 951 167 951 157 l 951 172 l 938 172 l 938 167 q 943 150 938 156 m 988 238 l 988 146 l 1003 146 l 1003 238 l 988 238 m 1011 167 q 1017 150 1011 156 q 1033 144 1022 144 q 1050 150 1044 144 q 1056 167 1056 156 l 1056 217 q 1050 233 1056 228 q 1033 239 1044 239 q 1017 233 1022 239 q 1011 217 1011 228 l 1011 167 m 1040 167 q 1033 157 1040 157 q 1026 167 1026 157 l 1026 217 q 1033 226 1026 226 q 1040 217 1040 226 l 1040 167 m 1064 238 l 1064 146 l 1078 146 l 1078 213 l 1094 146 l 1110 146 l 1110 238 l 1097 238 l 1097 182 l 1083 238 l 1064 238 m 93 113 l 103 21 l 122 21 l 129 83 l 136 21 l 154 21 l 164 113 l 151 113 l 144 42 l 138 113 l 121 113 l 114 42 l 108 113 l 93 113 m 167 113 l 176 21 l 196 21 l 203 83 l 210 21 l 228 21 l 238 113 l 224 113 l 218 42 l 211 113 l 194 113 l 188 42 l 181 113 l 167 113 m 240 113 l 250 21 l 269 21 l 276 83 l 283 21 l 301 21 l 310 113 l 297 113 l 292 42 l 285 113 l 268 113 l 261 42 l 254 113 l 240 113 m 314 35 l 314 21 l 328 21 l 328 35 l 314 35 m 338 113 l 338 21 l 378 21 l 378 33 l 351 33 l 351 63 l 372 63 l 372 75 l 351 75 l 351 100 l 378 100 l 378 113 l 338 113 m 385 113 l 385 21 l 399 21 l 399 61 l 418 61 l 418 74 l 399 74 l 399 100 l 424 100 l 424 113 l 385 113 m 432 25 q 449 19 438 19 q 464 25 460 19 q 471 43 471 32 q 467 58 471 50 q 454 72 464 63 q 444 83 444 81 q 442 92 442 89 q 449 101 442 101 q 454 99 451 101 q 456 92 456 97 l 456 88 l 469 88 l 469 90 q 464 108 469 103 q 449 114 460 114 q 432 108 438 114 q 426 92 426 100 q 431 76 426 83 q 443 63 433 72 q 453 51 451 54 q 456 42 456 46 q 454 35 456 36 q 449 32 451 32 q 440 42 440 32 l 440 47 l 426 47 l 426 42 q 432 25 426 33 m 489 100 l 489 21 l 504 21 l 504 100 l 518 100 l 518 113 l 474 113 l 474 100 l 489 100 m 529 25 q 546 19 535 19 q 563 25 557 19 q 568 42 568 33 l 568 113 l 554 113 l 554 42 q 551 35 554 38 q 546 32 549 32 q 540 35 543 32 q 539 42 539 36 l 539 113 l 524 113 l 524 42 q 529 25 524 33 m 578 113 l 578 21 l 600 21 q 615 26 611 21 q 621 43 621 32 l 621 90 q 615 107 621 101 q 600 113 611 113 l 578 113 m 599 33 l 592 33 l 592 100 l 599 100 q 604 97 601 100 q 607 90 607 94 l 607 43 q 604 36 607 39 q 599 33 601 33 m 631 113 l 631 21 l 644 21 l 644 113 l 631 113 m 660 25 q 675 19 664 19 q 692 25 686 19 q 697 42 697 31 l 697 90 q 692 108 697 103 q 675 114 686 114 q 660 108 664 114 q 653 90 653 101 l 653 42 q 660 25 653 32 m 683 42 q 675 32 683 32 q 668 42 668 32 l 668 92 q 675 101 668 101 q 683 92 683 101 l 683 42 m 717 100 l 717 21 l 732 21 l 732 100 l 747 100 l 747 113 l 703 113 l 703 100 l 717 100 m 767 60 l 767 21 l 782 21 l 782 60 l 799 113 l 785 113 l 775 79 l 765 113 l 750 113 l 767 60 m 806 113 l 806 21 l 819 21 l 819 58 l 826 58 q 843 64 838 58 q 849 81 849 72 l 849 90 q 843 107 849 99 q 826 113 838 113 l 806 113 m 826 71 l 819 71 l 819 100 l 826 100 q 832 97 829 100 q 833 90 833 96 l 833 81 q 832 74 833 75 q 826 71 829 71 m 856 113 l 856 21 l 894 21 l 894 33 l 869 33 l 869 63 l 890 63 l 890 75 l 869 75 l 869 100 l 894 100 l 894 113 l 856 113 m 903 35 l 903 21 l 917 21 l 917 35 l 903 35 m 925 42 q 931 25 925 31 q 947 19 936 19 q 963 25 957 19 q 968 42 968 31 l 968 54 l 954 54 l 954 40 q 947 32 954 32 q 940 40 940 32 l 940 93 q 947 101 940 101 q 954 93 954 101 l 954 82 l 968 82 l 968 92 q 963 108 968 103 q 947 114 957 114 q 931 108 936 114 q 925 92 925 103 l 925 42 m 975 42 q 981 25 975 31 q 997 19 986 19 q 1014 25 1008 19 q 1019 42 1019 31 l 1019 90 q 1014 108 1019 103 q 997 114 1008 114 q 981 108 986 114 q 975 90 975 103 l 975 42 m 1004 42 q 997 32 1004 32 q 990 42 990 32 l 990 92 q 997 101 990 101 q 1004 92 1004 101 l 1004 42 m 1028 113 l 1028 21 l 1040 21 l 1040 90 l 1042 90 l 1051 21 l 1064 21 l 1075 90 l 1075 21 l 1089 21 l 1089 113 l 1068 113 l 1058 47 l 1049 113 l 1028 113 z "},"3":{"ha":1153,"x_min":58,"x_max":1124,"o":"m 58 944 l 58 700 l 97 700 l 97 800 l 115 800 q 158 815 144 800 q 172 860 172 829 l 172 885 q 158 929 172 915 q 115 944 144 944 l 58 944 m 115 835 l 97 835 l 97 910 l 115 910 q 129 904 125 910 q 135 886 135 899 l 135 858 q 129 840 135 846 q 115 835 125 835 m 193 944 l 193 700 l 299 700 l 299 735 l 232 735 l 232 810 l 285 810 l 285 846 l 232 846 l 232 910 l 299 910 l 299 944 l 193 944 m 321 944 l 321 700 l 360 700 l 360 806 l 372 806 q 392 799 385 806 q 397 775 397 790 l 397 731 l 397 711 q 400 700 397 708 l 439 700 q 436 713 436 708 q 435 729 435 717 l 435 772 q 429 807 435 796 q 410 825 424 821 q 435 874 435 836 l 435 889 q 421 931 435 918 q 378 944 408 944 l 321 944 m 374 840 l 360 840 l 360 910 l 376 910 q 392 904 388 910 q 396 885 396 897 l 396 865 q 390 846 396 851 q 374 840 385 840 m 469 713 q 513 696 483 696 q 556 713 539 696 q 569 758 569 728 q 561 799 569 782 q 528 838 549 818 q 501 865 508 854 q 494 890 494 876 q 514 914 494 914 q 528 907 524 914 q 533 889 533 901 l 533 876 l 569 876 l 569 886 q 556 932 569 915 q 514 949 542 949 q 471 932 486 949 q 456 888 456 917 q 465 849 456 867 q 499 811 475 832 q 525 783 513 799 q 532 756 532 769 q 526 738 532 746 q 511 732 522 732 q 492 756 492 732 l 492 772 l 456 772 l 456 758 q 469 713 456 728 m 604 713 q 647 696 619 696 q 692 713 675 696 q 706 758 706 728 l 706 886 q 692 932 706 918 q 647 949 675 949 q 604 932 619 949 q 589 886 589 917 l 589 758 q 604 713 589 731 m 668 756 q 647 732 668 732 q 628 756 628 732 l 628 889 q 647 914 628 914 q 668 889 668 914 l 668 756 m 732 944 l 732 700 l 767 700 l 767 879 l 813 700 l 853 700 l 853 944 l 818 944 l 818 799 l 781 944 l 732 944 m 911 944 l 871 700 l 907 700 l 914 747 l 958 747 l 958 749 l 965 700 l 1003 700 l 964 944 l 911 944 m 953 781 l 918 781 l 935 903 l 936 903 l 953 781 m 1022 944 l 1022 700 l 1124 700 l 1124 735 l 1060 735 l 1060 944 l 1022 944 m 74 433 q 117 417 88 417 q 158 433 144 417 q 174 478 174 449 l 174 665 l 136 665 l 136 475 q 131 457 136 463 q 117 451 125 451 q 103 457 108 451 q 97 475 97 463 l 97 665 l 58 665 l 58 478 q 74 433 58 449 m 208 433 q 251 417 224 417 q 294 433 281 417 q 308 479 308 447 q 300 519 308 503 q 267 557 289 536 q 240 586 250 572 q 233 610 233 597 q 253 633 233 633 q 267 628 263 633 q 272 610 272 619 l 272 597 l 308 597 l 308 607 q 294 653 308 635 q 253 669 281 669 q 210 653 225 669 q 194 608 194 635 q 204 569 194 585 q 238 532 214 553 q 264 504 251 519 q 271 476 271 490 q 265 458 271 464 q 250 451 261 451 q 231 475 231 451 l 231 493 l 194 493 l 194 478 q 208 433 194 447 m 331 665 l 331 421 l 436 421 l 436 456 l 369 456 l 369 531 l 422 531 l 422 565 l 369 565 l 369 631 l 436 631 l 436 665 l 331 665 m 526 433 q 569 417 542 417 q 613 433 597 417 q 628 478 628 447 l 628 607 q 613 653 628 638 q 569 669 597 669 q 526 653 542 669 q 511 607 511 635 l 511 478 q 526 433 511 449 m 589 476 q 569 451 589 451 q 550 476 550 451 l 550 610 q 569 633 550 633 q 589 610 589 633 l 589 476 m 654 665 l 654 421 l 689 421 l 689 599 l 735 421 l 775 421 l 775 665 l 740 665 l 740 518 l 703 665 l 654 665 m 803 665 l 803 421 l 906 421 l 906 456 l 842 456 l 842 665 l 803 665 m 928 525 l 928 421 l 967 421 l 967 525 l 1014 665 l 976 665 l 950 575 l 949 575 l 922 665 l 882 665 l 928 525 m 1033 563 l 1039 485 l 1068 485 l 1072 563 l 1072 665 l 1033 665 l 1033 563 m 1035 457 l 1035 421 l 1072 421 l 1072 457 l 1035 457 m 118 363 l 118 271 l 133 271 l 133 308 l 140 308 q 156 314 151 308 q 161 331 161 319 l 161 340 q 156 357 161 351 q 140 363 151 363 l 118 363 m 140 321 l 133 321 l 133 350 l 140 350 q 144 347 144 350 q 147 342 147 344 l 147 331 q 144 324 147 326 q 140 321 144 321 m 168 292 q 174 275 168 281 q 190 269 179 269 q 206 275 201 269 q 211 292 211 281 l 211 363 l 197 363 l 197 292 q 196 285 197 286 q 190 282 193 282 q 185 285 188 282 q 182 292 182 288 l 182 363 l 168 363 l 168 292 m 221 363 l 221 271 l 235 271 l 235 310 l 240 310 q 247 307 246 310 q 250 299 250 304 l 250 282 l 250 275 q 251 271 250 272 l 265 271 q 264 275 265 272 l 264 282 l 264 297 q 263 311 264 308 q 254 318 260 317 q 264 336 264 322 l 264 342 q 258 358 264 353 q 243 363 254 363 l 221 363 m 240 324 l 235 324 l 235 350 l 242 350 q 247 347 244 350 q 250 340 250 344 l 250 333 q 247 325 250 328 q 240 324 246 324 m 272 292 q 278 275 272 281 q 293 269 283 269 q 310 275 304 269 q 315 292 315 281 l 315 306 l 301 306 l 301 290 q 294 282 301 282 q 288 290 288 282 l 288 343 q 294 351 288 351 q 301 343 301 351 l 301 332 l 315 332 l 315 342 q 310 358 315 353 q 293 364 304 364 q 278 358 283 364 q 272 342 272 353 l 272 292 m 324 363 l 324 271 l 338 271 l 338 313 l 353 313 l 353 271 l 368 271 l 368 363 l 353 363 l 353 325 l 338 325 l 338 363 l 324 363 m 389 363 l 374 271 l 388 271 l 390 289 l 407 289 l 410 271 l 424 271 l 408 363 l 389 363 m 404 301 l 392 301 l 399 347 l 404 301 m 432 275 q 449 269 438 269 q 465 275 460 269 q 471 293 471 283 q 467 308 471 300 q 454 322 465 314 q 444 333 446 331 q 442 342 442 339 q 449 351 442 351 q 454 349 451 351 q 457 342 457 346 l 457 338 l 469 338 l 469 342 q 465 358 469 353 q 449 364 460 364 q 433 358 438 364 q 428 342 428 353 q 431 326 428 331 q 443 313 433 322 q 453 301 450 307 q 456 292 456 299 q 454 285 456 286 q 449 282 451 282 q 440 292 440 282 l 440 297 l 426 297 l 426 292 q 432 275 426 283 m 478 363 l 478 271 l 518 271 l 518 283 l 492 283 l 492 313 l 513 313 l 513 325 l 492 325 l 492 350 l 518 350 l 518 363 l 478 363 m 546 363 l 546 271 l 560 271 l 560 311 l 579 311 l 579 324 l 560 324 l 560 350 l 583 350 l 583 363 l 546 363 m 589 292 q 594 275 589 281 q 611 269 600 269 q 628 275 622 269 q 633 292 633 283 l 633 342 q 628 358 633 350 q 611 364 622 364 q 594 358 600 364 q 589 342 589 353 l 589 292 m 618 292 q 611 282 618 282 q 603 292 603 282 l 603 342 q 611 351 603 351 q 618 342 618 351 l 618 292 m 642 363 l 642 271 l 657 271 l 657 310 l 661 310 q 668 307 667 310 q 671 299 671 304 l 671 282 l 671 275 q 672 271 671 272 l 686 271 q 685 275 686 274 l 685 282 l 685 297 q 683 311 685 308 q 675 318 681 317 q 685 336 685 322 l 685 342 q 679 358 685 353 q 664 363 675 363 l 642 363 m 661 324 l 657 324 l 657 350 l 663 350 q 668 347 668 350 q 671 340 671 344 l 671 333 q 668 325 671 328 q 661 324 667 324 m 726 350 l 726 271 l 740 271 l 740 350 l 756 350 l 756 363 l 711 363 l 711 350 l 726 350 m 761 363 l 761 271 l 776 271 l 776 313 l 792 313 l 792 271 l 807 271 l 807 363 l 792 363 l 792 325 l 776 325 l 776 363 l 761 363 m 817 363 l 817 271 l 856 271 l 856 283 l 831 283 l 831 313 l 851 313 l 851 325 l 831 325 l 831 350 l 856 350 l 856 363 l 817 363 m 883 363 l 883 271 l 899 271 l 899 311 l 917 311 l 917 324 l 899 324 l 899 350 l 922 350 l 922 363 l 883 363 m 928 292 q 933 275 928 281 q 950 269 939 269 q 965 275 961 269 q 971 292 971 281 l 971 363 l 957 363 l 957 292 q 956 285 957 286 q 950 282 953 282 q 944 285 947 282 q 943 292 943 286 l 943 363 l 928 363 l 928 292 m 981 363 l 981 271 l 1019 271 l 1019 283 l 996 283 l 996 363 l 981 363 m 1025 363 l 1025 271 l 1064 271 l 1064 283 l 1040 283 l 1040 363 l 1025 363 m 88 238 l 72 146 l 86 146 l 89 164 l 104 164 l 107 146 l 122 146 l 107 238 l 88 238 m 103 176 l 90 176 l 96 222 l 97 222 l 103 176 m 128 238 l 128 146 l 142 146 l 142 213 l 158 146 l 174 146 l 174 238 l 161 238 l 161 182 l 146 238 l 128 238 m 183 238 l 183 146 l 206 146 q 222 151 217 146 q 228 168 228 157 l 228 215 q 222 232 228 226 q 206 238 217 238 l 183 238 m 206 158 l 199 158 l 199 225 l 206 225 q 211 222 208 225 q 213 215 213 221 l 213 168 q 211 161 213 163 q 206 158 208 158 m 261 150 q 278 144 267 144 q 293 150 289 144 q 299 167 299 156 l 299 179 l 285 179 l 285 165 q 278 157 285 157 q 271 165 271 157 l 271 218 q 278 226 271 226 q 285 218 285 226 l 285 207 l 299 207 l 299 217 q 293 233 299 228 q 278 239 289 239 q 261 233 267 239 q 256 217 256 225 l 256 167 q 261 150 256 158 m 311 150 q 328 144 317 144 q 344 150 339 144 q 350 167 350 156 l 350 217 q 344 233 350 228 q 328 239 339 239 q 311 233 317 239 q 306 217 306 225 l 306 167 q 311 150 306 158 m 336 167 q 328 157 336 157 q 321 167 321 157 l 321 217 q 328 226 321 226 q 336 217 336 226 l 336 167 m 358 238 l 358 146 l 372 146 l 372 215 l 382 146 l 394 146 l 406 215 l 406 146 l 419 146 l 419 238 l 399 238 l 389 172 l 379 238 l 358 238 m 429 238 l 429 146 l 442 146 l 442 215 l 453 146 l 465 146 l 475 215 l 476 215 l 476 146 l 489 146 l 489 238 l 469 238 l 460 172 l 450 238 l 429 238 m 500 238 l 500 146 l 539 146 l 539 158 l 514 158 l 514 188 l 535 188 l 535 200 l 514 200 l 514 225 l 539 225 l 539 238 l 500 238 m 547 238 l 547 146 l 561 146 l 561 185 l 567 185 q 574 182 572 185 q 575 174 575 181 l 575 157 l 575 150 q 576 146 576 149 l 592 146 q 590 150 590 147 l 590 157 l 590 172 q 588 186 590 181 q 581 193 585 190 q 590 211 590 197 l 590 217 q 585 233 590 225 q 568 238 578 238 l 547 238 m 567 199 l 561 199 l 561 225 l 568 225 q 574 222 571 225 q 575 215 575 221 l 575 208 q 574 200 575 201 q 567 199 572 199 m 604 150 q 619 144 608 144 q 636 150 631 144 q 642 167 642 158 l 642 179 l 628 179 l 628 165 q 619 157 628 157 q 613 165 613 157 l 613 218 q 619 226 613 226 q 628 218 628 226 l 628 207 l 642 207 l 642 217 q 636 233 642 225 q 619 239 631 239 q 604 233 608 239 q 599 217 599 228 l 599 167 q 604 150 599 156 m 649 238 l 649 146 l 664 146 l 664 238 l 649 238 m 685 238 l 669 146 l 683 146 l 686 164 l 703 164 l 704 146 l 719 146 l 704 238 l 685 238 m 700 176 l 688 176 l 693 222 l 694 222 l 700 176 m 725 238 l 725 146 l 764 146 l 764 158 l 740 158 l 740 238 l 725 238 m 786 238 l 800 146 l 819 146 l 833 238 l 821 238 l 811 167 l 801 238 l 786 238 m 840 238 l 840 146 l 879 146 l 879 158 l 854 158 l 854 188 l 875 188 l 875 200 l 854 200 l 854 225 l 879 225 l 879 238 l 840 238 m 888 238 l 888 146 l 901 146 l 901 185 l 907 185 q 914 182 913 185 q 915 174 915 181 l 915 157 q 917 150 915 151 l 917 146 l 932 146 q 931 150 932 147 l 931 157 l 931 172 q 928 186 931 181 q 921 193 925 190 q 931 211 931 197 l 931 217 q 925 233 931 228 q 908 238 921 238 l 888 238 m 907 199 l 901 199 l 901 225 l 908 225 q 914 222 911 225 q 915 215 915 221 l 915 208 q 914 200 915 201 q 907 199 913 199 m 943 150 q 958 144 947 144 q 975 150 969 144 q 981 168 981 156 q 976 183 981 175 q 964 197 975 189 q 958 203 961 200 q 954 208 956 207 q 951 217 951 214 q 960 226 951 226 q 964 224 964 226 q 967 217 967 221 l 967 213 l 981 213 l 981 217 q 975 233 981 225 q 958 239 969 239 q 943 233 949 239 q 938 217 938 228 q 940 201 938 210 q 953 188 943 197 q 958 184 956 186 q 961 180 960 182 q 964 176 963 178 q 965 167 965 174 q 964 160 965 161 q 958 157 961 157 q 951 167 951 157 l 951 172 l 938 172 l 938 167 q 943 150 938 156 m 988 238 l 988 146 l 1003 146 l 1003 238 l 988 238 m 1011 167 q 1017 150 1011 156 q 1033 144 1022 144 q 1050 150 1044 144 q 1056 167 1056 156 l 1056 217 q 1050 233 1056 228 q 1033 239 1044 239 q 1017 233 1022 239 q 1011 217 1011 228 l 1011 167 m 1040 167 q 1033 157 1040 157 q 1026 167 1026 157 l 1026 217 q 1033 226 1026 226 q 1040 217 1040 226 l 1040 167 m 1064 238 l 1064 146 l 1078 146 l 1078 213 l 1094 146 l 1110 146 l 1110 238 l 1097 238 l 1097 182 l 1083 238 l 1064 238 m 93 113 l 103 21 l 122 21 l 129 83 l 136 21 l 154 21 l 164 113 l 151 113 l 144 42 l 138 113 l 121 113 l 114 42 l 108 113 l 93 113 m 167 113 l 176 21 l 196 21 l 203 83 l 210 21 l 228 21 l 238 113 l 224 113 l 218 42 l 211 113 l 194 113 l 188 42 l 181 113 l 167 113 m 240 113 l 250 21 l 269 21 l 276 83 l 283 21 l 301 21 l 310 113 l 297 113 l 292 42 l 285 113 l 268 113 l 261 42 l 254 113 l 240 113 m 314 35 l 314 21 l 328 21 l 328 35 l 314 35 m 338 113 l 338 21 l 378 21 l 378 33 l 351 33 l 351 63 l 372 63 l 372 75 l 351 75 l 351 100 l 378 100 l 378 113 l 338 113 m 385 113 l 385 21 l 399 21 l 399 61 l 418 61 l 418 74 l 399 74 l 399 100 l 424 100 l 424 113 l 385 113 m 432 25 q 449 19 438 19 q 464 25 460 19 q 471 43 471 32 q 467 58 471 50 q 454 72 464 63 q 444 83 444 81 q 442 92 442 89 q 449 101 442 101 q 454 99 451 101 q 456 92 456 97 l 456 88 l 469 88 l 469 90 q 464 108 469 103 q 449 114 460 114 q 432 108 438 114 q 426 92 426 100 q 431 76 426 83 q 443 63 433 72 q 453 51 451 54 q 456 42 456 46 q 454 35 456 36 q 449 32 451 32 q 440 42 440 32 l 440 47 l 426 47 l 426 42 q 432 25 426 33 m 489 100 l 489 21 l 504 21 l 504 100 l 518 100 l 518 113 l 474 113 l 474 100 l 489 100 m 529 25 q 546 19 535 19 q 563 25 557 19 q 568 42 568 33 l 568 113 l 554 113 l 554 42 q 551 35 554 38 q 546 32 549 32 q 540 35 543 32 q 539 42 539 36 l 539 113 l 524 113 l 524 42 q 529 25 524 33 m 578 113 l 578 21 l 600 21 q 615 26 611 21 q 621 43 621 32 l 621 90 q 615 107 621 101 q 600 113 611 113 l 578 113 m 599 33 l 592 33 l 592 100 l 599 100 q 604 97 601 100 q 607 90 607 94 l 607 43 q 604 36 607 39 q 599 33 601 33 m 631 113 l 631 21 l 644 21 l 644 113 l 631 113 m 660 25 q 675 19 664 19 q 692 25 686 19 q 697 42 697 31 l 697 90 q 692 108 697 103 q 675 114 686 114 q 660 108 664 114 q 653 90 653 101 l 653 42 q 660 25 653 32 m 683 42 q 675 32 683 32 q 668 42 668 32 l 668 92 q 675 101 668 101 q 683 92 683 101 l 683 42 m 717 100 l 717 21 l 732 21 l 732 100 l 747 100 l 747 113 l 703 113 l 703 100 l 717 100 m 767 60 l 767 21 l 782 21 l 782 60 l 799 113 l 785 113 l 775 79 l 765 113 l 750 113 l 767 60 m 806 113 l 806 21 l 819 21 l 819 58 l 826 58 q 843 64 838 58 q 849 81 849 72 l 849 90 q 843 107 849 99 q 826 113 838 113 l 806 113 m 826 71 l 819 71 l 819 100 l 826 100 q 832 97 829 100 q 833 90 833 96 l 833 81 q 832 74 833 75 q 826 71 829 71 m 856 113 l 856 21 l 894 21 l 894 33 l 869 33 l 869 63 l 890 63 l 890 75 l 869 75 l 869 100 l 894 100 l 894 113 l 856 113 m 903 35 l 903 21 l 917 21 l 917 35 l 903 35 m 925 42 q 931 25 925 31 q 947 19 936 19 q 963 25 957 19 q 968 42 968 31 l 968 54 l 954 54 l 954 40 q 947 32 954 32 q 940 40 940 32 l 940 93 q 947 101 940 101 q 954 93 954 101 l 954 82 l 968 82 l 968 92 q 963 108 968 103 q 947 114 957 114 q 931 108 936 114 q 925 92 925 103 l 925 42 m 975 42 q 981 25 975 31 q 997 19 986 19 q 1014 25 1008 19 q 1019 42 1019 31 l 1019 90 q 1014 108 1019 103 q 997 114 1008 114 q 981 108 986 114 q 975 90 975 103 l 975 42 m 1004 42 q 997 32 1004 32 q 990 42 990 32 l 990 92 q 997 101 990 101 q 1004 92 1004 101 l 1004 42 m 1028 113 l 1028 21 l 1040 21 l 1040 90 l 1042 90 l 1051 21 l 1064 21 l 1075 90 l 1075 21 l 1089 21 l 1089 113 l 1068 113 l 1058 47 l 1049 113 l 1028 113 z "},"4":{"ha":1153,"x_min":58,"x_max":1124,"o":"m 58 944 l 58 700 l 97 700 l 97 800 l 115 800 q 158 815 144 800 q 172 860 172 829 l 172 885 q 158 929 172 915 q 115 944 144 944 l 58 944 m 115 835 l 97 835 l 97 910 l 115 910 q 129 904 125 910 q 135 886 135 899 l 135 858 q 129 840 135 846 q 115 835 125 835 m 193 944 l 193 700 l 299 700 l 299 735 l 232 735 l 232 810 l 285 810 l 285 846 l 232 846 l 232 910 l 299 910 l 299 944 l 193 944 m 321 944 l 321 700 l 360 700 l 360 806 l 372 806 q 392 799 385 806 q 397 775 397 790 l 397 731 l 397 711 q 400 700 397 708 l 439 700 q 436 713 436 708 q 435 729 435 717 l 435 772 q 429 807 435 796 q 410 825 424 821 q 435 874 435 836 l 435 889 q 421 931 435 918 q 378 944 408 944 l 321 944 m 374 840 l 360 840 l 360 910 l 376 910 q 392 904 388 910 q 396 885 396 897 l 396 865 q 390 846 396 851 q 374 840 385 840 m 469 713 q 513 696 483 696 q 556 713 539 696 q 569 758 569 728 q 561 799 569 782 q 528 838 549 818 q 501 865 508 854 q 494 890 494 876 q 514 914 494 914 q 528 907 524 914 q 533 889 533 901 l 533 876 l 569 876 l 569 886 q 556 932 569 915 q 514 949 542 949 q 471 932 486 949 q 456 888 456 917 q 465 849 456 867 q 499 811 475 832 q 525 783 513 799 q 532 756 532 769 q 526 738 532 746 q 511 732 522 732 q 492 756 492 732 l 492 772 l 456 772 l 456 758 q 469 713 456 728 m 604 713 q 647 696 619 696 q 692 713 675 696 q 706 758 706 728 l 706 886 q 692 932 706 918 q 647 949 675 949 q 604 932 619 949 q 589 886 589 917 l 589 758 q 604 713 589 731 m 668 756 q 647 732 668 732 q 628 756 628 732 l 628 889 q 647 914 628 914 q 668 889 668 914 l 668 756 m 732 944 l 732 700 l 767 700 l 767 879 l 813 700 l 853 700 l 853 944 l 818 944 l 818 799 l 781 944 l 732 944 m 911 944 l 871 700 l 907 700 l 914 747 l 958 747 l 958 749 l 965 700 l 1003 700 l 964 944 l 911 944 m 953 781 l 918 781 l 935 903 l 936 903 l 953 781 m 1022 944 l 1022 700 l 1124 700 l 1124 735 l 1060 735 l 1060 944 l 1022 944 m 74 433 q 117 417 88 417 q 158 433 144 417 q 174 478 174 449 l 174 665 l 136 665 l 136 475 q 131 457 136 463 q 117 451 125 451 q 103 457 108 451 q 97 475 97 463 l 97 665 l 58 665 l 58 478 q 74 433 58 449 m 208 433 q 251 417 224 417 q 294 433 281 417 q 308 479 308 447 q 300 519 308 503 q 267 557 289 536 q 240 586 250 572 q 233 610 233 597 q 253 633 233 633 q 267 628 263 633 q 272 610 272 619 l 272 597 l 308 597 l 308 607 q 294 653 308 635 q 253 669 281 669 q 210 653 225 669 q 194 608 194 635 q 204 569 194 585 q 238 532 214 553 q 264 504 251 519 q 271 476 271 490 q 265 458 271 464 q 250 451 261 451 q 231 475 231 451 l 231 493 l 194 493 l 194 478 q 208 433 194 447 m 331 665 l 331 421 l 436 421 l 436 456 l 369 456 l 369 531 l 422 531 l 422 565 l 369 565 l 369 631 l 436 631 l 436 665 l 331 665 m 526 433 q 569 417 542 417 q 613 433 597 417 q 628 478 628 447 l 628 607 q 613 653 628 638 q 569 669 597 669 q 526 653 542 669 q 511 607 511 635 l 511 478 q 526 433 511 449 m 589 476 q 569 451 589 451 q 550 476 550 451 l 550 610 q 569 633 550 633 q 589 610 589 633 l 589 476 m 654 665 l 654 421 l 689 421 l 689 599 l 735 421 l 775 421 l 775 665 l 740 665 l 740 518 l 703 665 l 654 665 m 803 665 l 803 421 l 906 421 l 906 456 l 842 456 l 842 665 l 803 665 m 928 525 l 928 421 l 967 421 l 967 525 l 1014 665 l 976 665 l 950 575 l 949 575 l 922 665 l 882 665 l 928 525 m 1033 563 l 1039 485 l 1068 485 l 1072 563 l 1072 665 l 1033 665 l 1033 563 m 1035 457 l 1035 421 l 1072 421 l 1072 457 l 1035 457 m 118 363 l 118 271 l 133 271 l 133 308 l 140 308 q 156 314 151 308 q 161 331 161 319 l 161 340 q 156 357 161 351 q 140 363 151 363 l 118 363 m 140 321 l 133 321 l 133 350 l 140 350 q 144 347 144 350 q 147 342 147 344 l 147 331 q 144 324 147 326 q 140 321 144 321 m 168 292 q 174 275 168 281 q 190 269 179 269 q 206 275 201 269 q 211 292 211 281 l 211 363 l 197 363 l 197 292 q 196 285 197 286 q 190 282 193 282 q 185 285 188 282 q 182 292 182 288 l 182 363 l 168 363 l 168 292 m 221 363 l 221 271 l 235 271 l 235 310 l 240 310 q 247 307 246 310 q 250 299 250 304 l 250 282 l 250 275 q 251 271 250 272 l 265 271 q 264 275 265 272 l 264 282 l 264 297 q 263 311 264 308 q 254 318 260 317 q 264 336 264 322 l 264 342 q 258 358 264 353 q 243 363 254 363 l 221 363 m 240 324 l 235 324 l 235 350 l 242 350 q 247 347 244 350 q 250 340 250 344 l 250 333 q 247 325 250 328 q 240 324 246 324 m 272 292 q 278 275 272 281 q 293 269 283 269 q 310 275 304 269 q 315 292 315 281 l 315 306 l 301 306 l 301 290 q 294 282 301 282 q 288 290 288 282 l 288 343 q 294 351 288 351 q 301 343 301 351 l 301 332 l 315 332 l 315 342 q 310 358 315 353 q 293 364 304 364 q 278 358 283 364 q 272 342 272 353 l 272 292 m 324 363 l 324 271 l 338 271 l 338 313 l 353 313 l 353 271 l 368 271 l 368 363 l 353 363 l 353 325 l 338 325 l 338 363 l 324 363 m 389 363 l 374 271 l 388 271 l 390 289 l 407 289 l 410 271 l 424 271 l 408 363 l 389 363 m 404 301 l 392 301 l 399 347 l 404 301 m 432 275 q 449 269 438 269 q 465 275 460 269 q 471 293 471 283 q 467 308 471 300 q 454 322 465 314 q 444 333 446 331 q 442 342 442 339 q 449 351 442 351 q 454 349 451 351 q 457 342 457 346 l 457 338 l 469 338 l 469 342 q 465 358 469 353 q 449 364 460 364 q 433 358 438 364 q 428 342 428 353 q 431 326 428 331 q 443 313 433 322 q 453 301 450 307 q 456 292 456 299 q 454 285 456 286 q 449 282 451 282 q 440 292 440 282 l 440 297 l 426 297 l 426 292 q 432 275 426 283 m 478 363 l 478 271 l 518 271 l 518 283 l 492 283 l 492 313 l 513 313 l 513 325 l 492 325 l 492 350 l 518 350 l 518 363 l 478 363 m 546 363 l 546 271 l 560 271 l 560 311 l 579 311 l 579 324 l 560 324 l 560 350 l 583 350 l 583 363 l 546 363 m 589 292 q 594 275 589 281 q 611 269 600 269 q 628 275 622 269 q 633 292 633 283 l 633 342 q 628 358 633 350 q 611 364 622 364 q 594 358 600 364 q 589 342 589 353 l 589 292 m 618 292 q 611 282 618 282 q 603 292 603 282 l 603 342 q 611 351 603 351 q 618 342 618 351 l 618 292 m 642 363 l 642 271 l 657 271 l 657 310 l 661 310 q 668 307 667 310 q 671 299 671 304 l 671 282 l 671 275 q 672 271 671 272 l 686 271 q 685 275 686 274 l 685 282 l 685 297 q 683 311 685 308 q 675 318 681 317 q 685 336 685 322 l 685 342 q 679 358 685 353 q 664 363 675 363 l 642 363 m 661 324 l 657 324 l 657 350 l 663 350 q 668 347 668 350 q 671 340 671 344 l 671 333 q 668 325 671 328 q 661 324 667 324 m 726 350 l 726 271 l 740 271 l 740 350 l 756 350 l 756 363 l 711 363 l 711 350 l 726 350 m 761 363 l 761 271 l 776 271 l 776 313 l 792 313 l 792 271 l 807 271 l 807 363 l 792 363 l 792 325 l 776 325 l 776 363 l 761 363 m 817 363 l 817 271 l 856 271 l 856 283 l 831 283 l 831 313 l 851 313 l 851 325 l 831 325 l 831 350 l 856 350 l 856 363 l 817 363 m 883 363 l 883 271 l 899 271 l 899 311 l 917 311 l 917 324 l 899 324 l 899 350 l 922 350 l 922 363 l 883 363 m 928 292 q 933 275 928 281 q 950 269 939 269 q 965 275 961 269 q 971 292 971 281 l 971 363 l 957 363 l 957 292 q 956 285 957 286 q 950 282 953 282 q 944 285 947 282 q 943 292 943 286 l 943 363 l 928 363 l 928 292 m 981 363 l 981 271 l 1019 271 l 1019 283 l 996 283 l 996 363 l 981 363 m 1025 363 l 1025 271 l 1064 271 l 1064 283 l 1040 283 l 1040 363 l 1025 363 m 88 238 l 72 146 l 86 146 l 89 164 l 104 164 l 107 146 l 122 146 l 107 238 l 88 238 m 103 176 l 90 176 l 96 222 l 97 222 l 103 176 m 128 238 l 128 146 l 142 146 l 142 213 l 158 146 l 174 146 l 174 238 l 161 238 l 161 182 l 146 238 l 128 238 m 183 238 l 183 146 l 206 146 q 222 151 217 146 q 228 168 228 157 l 228 215 q 222 232 228 226 q 206 238 217 238 l 183 238 m 206 158 l 199 158 l 199 225 l 206 225 q 211 222 208 225 q 213 215 213 221 l 213 168 q 211 161 213 163 q 206 158 208 158 m 261 150 q 278 144 267 144 q 293 150 289 144 q 299 167 299 156 l 299 179 l 285 179 l 285 165 q 278 157 285 157 q 271 165 271 157 l 271 218 q 278 226 271 226 q 285 218 285 226 l 285 207 l 299 207 l 299 217 q 293 233 299 228 q 278 239 289 239 q 261 233 267 239 q 256 217 256 225 l 256 167 q 261 150 256 158 m 311 150 q 328 144 317 144 q 344 150 339 144 q 350 167 350 156 l 350 217 q 344 233 350 228 q 328 239 339 239 q 311 233 317 239 q 306 217 306 225 l 306 167 q 311 150 306 158 m 336 167 q 328 157 336 157 q 321 167 321 157 l 321 217 q 328 226 321 226 q 336 217 336 226 l 336 167 m 358 238 l 358 146 l 372 146 l 372 215 l 382 146 l 394 146 l 406 215 l 406 146 l 419 146 l 419 238 l 399 238 l 389 172 l 379 238 l 358 238 m 429 238 l 429 146 l 442 146 l 442 215 l 453 146 l 465 146 l 475 215 l 476 215 l 476 146 l 489 146 l 489 238 l 469 238 l 460 172 l 450 238 l 429 238 m 500 238 l 500 146 l 539 146 l 539 158 l 514 158 l 514 188 l 535 188 l 535 200 l 514 200 l 514 225 l 539 225 l 539 238 l 500 238 m 547 238 l 547 146 l 561 146 l 561 185 l 567 185 q 574 182 572 185 q 575 174 575 181 l 575 157 l 575 150 q 576 146 576 149 l 592 146 q 590 150 590 147 l 590 157 l 590 172 q 588 186 590 181 q 581 193 585 190 q 590 211 590 197 l 590 217 q 585 233 590 225 q 568 238 578 238 l 547 238 m 567 199 l 561 199 l 561 225 l 568 225 q 574 222 571 225 q 575 215 575 221 l 575 208 q 574 200 575 201 q 567 199 572 199 m 604 150 q 619 144 608 144 q 636 150 631 144 q 642 167 642 158 l 642 179 l 628 179 l 628 165 q 619 157 628 157 q 613 165 613 157 l 613 218 q 619 226 613 226 q 628 218 628 226 l 628 207 l 642 207 l 642 217 q 636 233 642 225 q 619 239 631 239 q 604 233 608 239 q 599 217 599 228 l 599 167 q 604 150 599 156 m 649 238 l 649 146 l 664 146 l 664 238 l 649 238 m 685 238 l 669 146 l 683 146 l 686 164 l 703 164 l 704 146 l 719 146 l 704 238 l 685 238 m 700 176 l 688 176 l 693 222 l 694 222 l 700 176 m 725 238 l 725 146 l 764 146 l 764 158 l 740 158 l 740 238 l 725 238 m 786 238 l 800 146 l 819 146 l 833 238 l 821 238 l 811 167 l 801 238 l 786 238 m 840 238 l 840 146 l 879 146 l 879 158 l 854 158 l 854 188 l 875 188 l 875 200 l 854 200 l 854 225 l 879 225 l 879 238 l 840 238 m 888 238 l 888 146 l 901 146 l 901 185 l 907 185 q 914 182 913 185 q 915 174 915 181 l 915 157 q 917 150 915 151 l 917 146 l 932 146 q 931 150 932 147 l 931 157 l 931 172 q 928 186 931 181 q 921 193 925 190 q 931 211 931 197 l 931 217 q 925 233 931 228 q 908 238 921 238 l 888 238 m 907 199 l 901 199 l 901 225 l 908 225 q 914 222 911 225 q 915 215 915 221 l 915 208 q 914 200 915 201 q 907 199 913 199 m 943 150 q 958 144 947 144 q 975 150 969 144 q 981 168 981 156 q 976 183 981 175 q 964 197 975 189 q 958 203 961 200 q 954 208 956 207 q 951 217 951 214 q 960 226 951 226 q 964 224 964 226 q 967 217 967 221 l 967 213 l 981 213 l 981 217 q 975 233 981 225 q 958 239 969 239 q 943 233 949 239 q 938 217 938 228 q 940 201 938 210 q 953 188 943 197 q 958 184 956 186 q 961 180 960 182 q 964 176 963 178 q 965 167 965 174 q 964 160 965 161 q 958 157 961 157 q 951 167 951 157 l 951 172 l 938 172 l 938 167 q 943 150 938 156 m 988 238 l 988 146 l 1003 146 l 1003 238 l 988 238 m 1011 167 q 1017 150 1011 156 q 1033 144 1022 144 q 1050 150 1044 144 q 1056 167 1056 156 l 1056 217 q 1050 233 1056 228 q 1033 239 1044 239 q 1017 233 1022 239 q 1011 217 1011 228 l 1011 167 m 1040 167 q 1033 157 1040 157 q 1026 167 1026 157 l 1026 217 q 1033 226 1026 226 q 1040 217 1040 226 l 1040 167 m 1064 238 l 1064 146 l 1078 146 l 1078 213 l 1094 146 l 1110 146 l 1110 238 l 1097 238 l 1097 182 l 1083 238 l 1064 238 m 93 113 l 103 21 l 122 21 l 129 83 l 136 21 l 154 21 l 164 113 l 151 113 l 144 42 l 138 113 l 121 113 l 114 42 l 108 113 l 93 113 m 167 113 l 176 21 l 196 21 l 203 83 l 210 21 l 228 21 l 238 113 l 224 113 l 218 42 l 211 113 l 194 113 l 188 42 l 181 113 l 167 113 m 240 113 l 250 21 l 269 21 l 276 83 l 283 21 l 301 21 l 310 113 l 297 113 l 292 42 l 285 113 l 268 113 l 261 42 l 254 113 l 240 113 m 314 35 l 314 21 l 328 21 l 328 35 l 314 35 m 338 113 l 338 21 l 378 21 l 378 33 l 351 33 l 351 63 l 372 63 l 372 75 l 351 75 l 351 100 l 378 100 l 378 113 l 338 113 m 385 113 l 385 21 l 399 21 l 399 61 l 418 61 l 418 74 l 399 74 l 399 100 l 424 100 l 424 113 l 385 113 m 432 25 q 449 19 438 19 q 464 25 460 19 q 471 43 471 32 q 467 58 471 50 q 454 72 464 63 q 444 83 444 81 q 442 92 442 89 q 449 101 442 101 q 454 99 451 101 q 456 92 456 97 l 456 88 l 469 88 l 469 90 q 464 108 469 103 q 449 114 460 114 q 432 108 438 114 q 426 92 426 100 q 431 76 426 83 q 443 63 433 72 q 453 51 451 54 q 456 42 456 46 q 454 35 456 36 q 449 32 451 32 q 440 42 440 32 l 440 47 l 426 47 l 426 42 q 432 25 426 33 m 489 100 l 489 21 l 504 21 l 504 100 l 518 100 l 518 113 l 474 113 l 474 100 l 489 100 m 529 25 q 546 19 535 19 q 563 25 557 19 q 568 42 568 33 l 568 113 l 554 113 l 554 42 q 551 35 554 38 q 546 32 549 32 q 540 35 543 32 q 539 42 539 36 l 539 113 l 524 113 l 524 42 q 529 25 524 33 m 578 113 l 578 21 l 600 21 q 615 26 611 21 q 621 43 621 32 l 621 90 q 615 107 621 101 q 600 113 611 113 l 578 113 m 599 33 l 592 33 l 592 100 l 599 100 q 604 97 601 100 q 607 90 607 94 l 607 43 q 604 36 607 39 q 599 33 601 33 m 631 113 l 631 21 l 644 21 l 644 113 l 631 113 m 660 25 q 675 19 664 19 q 692 25 686 19 q 697 42 697 31 l 697 90 q 692 108 697 103 q 675 114 686 114 q 660 108 664 114 q 653 90 653 101 l 653 42 q 660 25 653 32 m 683 42 q 675 32 683 32 q 668 42 668 32 l 668 92 q 675 101 668 101 q 683 92 683 101 l 683 42 m 717 100 l 717 21 l 732 21 l 732 100 l 747 100 l 747 113 l 703 113 l 703 100 l 717 100 m 767 60 l 767 21 l 782 21 l 782 60 l 799 113 l 785 113 l 775 79 l 765 113 l 750 113 l 767 60 m 806 113 l 806 21 l 819 21 l 819 58 l 826 58 q 843 64 838 58 q 849 81 849 72 l 849 90 q 843 107 849 99 q 826 113 838 113 l 806 113 m 826 71 l 819 71 l 819 100 l 826 100 q 832 97 829 100 q 833 90 833 96 l 833 81 q 832 74 833 75 q 826 71 829 71 m 856 113 l 856 21 l 894 21 l 894 33 l 869 33 l 869 63 l 890 63 l 890 75 l 869 75 l 869 100 l 894 100 l 894 113 l 856 113 m 903 35 l 903 21 l 917 21 l 917 35 l 903 35 m 925 42 q 931 25 925 31 q 947 19 936 19 q 963 25 957 19 q 968 42 968 31 l 968 54 l 954 54 l 954 40 q 947 32 954 32 q 940 40 940 32 l 940 93 q 947 101 940 101 q 954 93 954 101 l 954 82 l 968 82 l 968 92 q 963 108 968 103 q 947 114 957 114 q 931 108 936 114 q 925 92 925 103 l 925 42 m 975 42 q 981 25 975 31 q 997 19 986 19 q 1014 25 1008 19 q 1019 42 1019 31 l 1019 90 q 1014 108 1019 103 q 997 114 1008 114 q 981 108 986 114 q 975 90 975 103 l 975 42 m 1004 42 q 997 32 1004 32 q 990 42 990 32 l 990 92 q 997 101 990 101 q 1004 92 1004 101 l 1004 42 m 1028 113 l 1028 21 l 1040 21 l 1040 90 l 1042 90 l 1051 21 l 1064 21 l 1075 90 l 1075 21 l 1089 21 l 1089 113 l 1068 113 l 1058 47 l 1049 113 l 1028 113 z "},"5":{"ha":1153,"x_min":58,"x_max":1124,"o":"m 58 944 l 58 700 l 97 700 l 97 800 l 115 800 q 158 815 144 800 q 172 860 172 829 l 172 885 q 158 929 172 915 q 115 944 144 944 l 58 944 m 115 835 l 97 835 l 97 910 l 115 910 q 129 904 125 910 q 135 886 135 899 l 135 858 q 129 840 135 846 q 115 835 125 835 m 193 944 l 193 700 l 299 700 l 299 735 l 232 735 l 232 810 l 285 810 l 285 846 l 232 846 l 232 910 l 299 910 l 299 944 l 193 944 m 321 944 l 321 700 l 360 700 l 360 806 l 372 806 q 392 799 385 806 q 397 775 397 790 l 397 731 l 397 711 q 400 700 397 708 l 439 700 q 436 713 436 708 q 435 729 435 717 l 435 772 q 429 807 435 796 q 410 825 424 821 q 435 874 435 836 l 435 889 q 421 931 435 918 q 378 944 408 944 l 321 944 m 374 840 l 360 840 l 360 910 l 376 910 q 392 904 388 910 q 396 885 396 897 l 396 865 q 390 846 396 851 q 374 840 385 840 m 469 713 q 513 696 483 696 q 556 713 539 696 q 569 758 569 728 q 561 799 569 782 q 528 838 549 818 q 501 865 508 854 q 494 890 494 876 q 514 914 494 914 q 528 907 524 914 q 533 889 533 901 l 533 876 l 569 876 l 569 886 q 556 932 569 915 q 514 949 542 949 q 471 932 486 949 q 456 888 456 917 q 465 849 456 867 q 499 811 475 832 q 525 783 513 799 q 532 756 532 769 q 526 738 532 746 q 511 732 522 732 q 492 756 492 732 l 492 772 l 456 772 l 456 758 q 469 713 456 728 m 604 713 q 647 696 619 696 q 692 713 675 696 q 706 758 706 728 l 706 886 q 692 932 706 918 q 647 949 675 949 q 604 932 619 949 q 589 886 589 917 l 589 758 q 604 713 589 731 m 668 756 q 647 732 668 732 q 628 756 628 732 l 628 889 q 647 914 628 914 q 668 889 668 914 l 668 756 m 732 944 l 732 700 l 767 700 l 767 879 l 813 700 l 853 700 l 853 944 l 818 944 l 818 799 l 781 944 l 732 944 m 911 944 l 871 700 l 907 700 l 914 747 l 958 747 l 958 749 l 965 700 l 1003 700 l 964 944 l 911 944 m 953 781 l 918 781 l 935 903 l 936 903 l 953 781 m 1022 944 l 1022 700 l 1124 700 l 1124 735 l 1060 735 l 1060 944 l 1022 944 m 74 433 q 117 417 88 417 q 158 433 144 417 q 174 478 174 449 l 174 665 l 136 665 l 136 475 q 131 457 136 463 q 117 451 125 451 q 103 457 108 451 q 97 475 97 463 l 97 665 l 58 665 l 58 478 q 74 433 58 449 m 208 433 q 251 417 224 417 q 294 433 281 417 q 308 479 308 447 q 300 519 308 503 q 267 557 289 536 q 240 586 250 572 q 233 610 233 597 q 253 633 233 633 q 267 628 263 633 q 272 610 272 619 l 272 597 l 308 597 l 308 607 q 294 653 308 635 q 253 669 281 669 q 210 653 225 669 q 194 608 194 635 q 204 569 194 585 q 238 532 214 553 q 264 504 251 519 q 271 476 271 490 q 265 458 271 464 q 250 451 261 451 q 231 475 231 451 l 231 493 l 194 493 l 194 478 q 208 433 194 447 m 331 665 l 331 421 l 436 421 l 436 456 l 369 456 l 369 531 l 422 531 l 422 565 l 369 565 l 369 631 l 436 631 l 436 665 l 331 665 m 526 433 q 569 417 542 417 q 613 433 597 417 q 628 478 628 447 l 628 607 q 613 653 628 638 q 569 669 597 669 q 526 653 542 669 q 511 607 511 635 l 511 478 q 526 433 511 449 m 589 476 q 569 451 589 451 q 550 476 550 451 l 550 610 q 569 633 550 633 q 589 610 589 633 l 589 476 m 654 665 l 654 421 l 689 421 l 689 599 l 735 421 l 775 421 l 775 665 l 740 665 l 740 518 l 703 665 l 654 665 m 803 665 l 803 421 l 906 421 l 906 456 l 842 456 l 842 665 l 803 665 m 928 525 l 928 421 l 967 421 l 967 525 l 1014 665 l 976 665 l 950 575 l 949 575 l 922 665 l 882 665 l 928 525 m 1033 563 l 1039 485 l 1068 485 l 1072 563 l 1072 665 l 1033 665 l 1033 563 m 1035 457 l 1035 421 l 1072 421 l 1072 457 l 1035 457 m 118 363 l 118 271 l 133 271 l 133 308 l 140 308 q 156 314 151 308 q 161 331 161 319 l 161 340 q 156 357 161 351 q 140 363 151 363 l 118 363 m 140 321 l 133 321 l 133 350 l 140 350 q 144 347 144 350 q 147 342 147 344 l 147 331 q 144 324 147 326 q 140 321 144 321 m 168 292 q 174 275 168 281 q 190 269 179 269 q 206 275 201 269 q 211 292 211 281 l 211 363 l 197 363 l 197 292 q 196 285 197 286 q 190 282 193 282 q 185 285 188 282 q 182 292 182 288 l 182 363 l 168 363 l 168 292 m 221 363 l 221 271 l 235 271 l 235 310 l 240 310 q 247 307 246 310 q 250 299 250 304 l 250 282 l 250 275 q 251 271 250 272 l 265 271 q 264 275 265 272 l 264 282 l 264 297 q 263 311 264 308 q 254 318 260 317 q 264 336 264 322 l 264 342 q 258 358 264 353 q 243 363 254 363 l 221 363 m 240 324 l 235 324 l 235 350 l 242 350 q 247 347 244 350 q 250 340 250 344 l 250 333 q 247 325 250 328 q 240 324 246 324 m 272 292 q 278 275 272 281 q 293 269 283 269 q 310 275 304 269 q 315 292 315 281 l 315 306 l 301 306 l 301 290 q 294 282 301 282 q 288 290 288 282 l 288 343 q 294 351 288 351 q 301 343 301 351 l 301 332 l 315 332 l 315 342 q 310 358 315 353 q 293 364 304 364 q 278 358 283 364 q 272 342 272 353 l 272 292 m 324 363 l 324 271 l 338 271 l 338 313 l 353 313 l 353 271 l 368 271 l 368 363 l 353 363 l 353 325 l 338 325 l 338 363 l 324 363 m 389 363 l 374 271 l 388 271 l 390 289 l 407 289 l 410 271 l 424 271 l 408 363 l 389 363 m 404 301 l 392 301 l 399 347 l 404 301 m 432 275 q 449 269 438 269 q 465 275 460 269 q 471 293 471 283 q 467 308 471 300 q 454 322 465 314 q 444 333 446 331 q 442 342 442 339 q 449 351 442 351 q 454 349 451 351 q 457 342 457 346 l 457 338 l 469 338 l 469 342 q 465 358 469 353 q 449 364 460 364 q 433 358 438 364 q 428 342 428 353 q 431 326 428 331 q 443 313 433 322 q 453 301 450 307 q 456 292 456 299 q 454 285 456 286 q 449 282 451 282 q 440 292 440 282 l 440 297 l 426 297 l 426 292 q 432 275 426 283 m 478 363 l 478 271 l 518 271 l 518 283 l 492 283 l 492 313 l 513 313 l 513 325 l 492 325 l 492 350 l 518 350 l 518 363 l 478 363 m 546 363 l 546 271 l 560 271 l 560 311 l 579 311 l 579 324 l 560 324 l 560 350 l 583 350 l 583 363 l 546 363 m 589 292 q 594 275 589 281 q 611 269 600 269 q 628 275 622 269 q 633 292 633 283 l 633 342 q 628 358 633 350 q 611 364 622 364 q 594 358 600 364 q 589 342 589 353 l 589 292 m 618 292 q 611 282 618 282 q 603 292 603 282 l 603 342 q 611 351 603 351 q 618 342 618 351 l 618 292 m 642 363 l 642 271 l 657 271 l 657 310 l 661 310 q 668 307 667 310 q 671 299 671 304 l 671 282 l 671 275 q 672 271 671 272 l 686 271 q 685 275 686 274 l 685 282 l 685 297 q 683 311 685 308 q 675 318 681 317 q 685 336 685 322 l 685 342 q 679 358 685 353 q 664 363 675 363 l 642 363 m 661 324 l 657 324 l 657 350 l 663 350 q 668 347 668 350 q 671 340 671 344 l 671 333 q 668 325 671 328 q 661 324 667 324 m 726 350 l 726 271 l 740 271 l 740 350 l 756 350 l 756 363 l 711 363 l 711 350 l 726 350 m 761 363 l 761 271 l 776 271 l 776 313 l 792 313 l 792 271 l 807 271 l 807 363 l 792 363 l 792 325 l 776 325 l 776 363 l 761 363 m 817 363 l 817 271 l 856 271 l 856 283 l 831 283 l 831 313 l 851 313 l 851 325 l 831 325 l 831 350 l 856 350 l 856 363 l 817 363 m 883 363 l 883 271 l 899 271 l 899 311 l 917 311 l 917 324 l 899 324 l 899 350 l 922 350 l 922 363 l 883 363 m 928 292 q 933 275 928 281 q 950 269 939 269 q 965 275 961 269 q 971 292 971 281 l 971 363 l 957 363 l 957 292 q 956 285 957 286 q 950 282 953 282 q 944 285 947 282 q 943 292 943 286 l 943 363 l 928 363 l 928 292 m 981 363 l 981 271 l 1019 271 l 1019 283 l 996 283 l 996 363 l 981 363 m 1025 363 l 1025 271 l 1064 271 l 1064 283 l 1040 283 l 1040 363 l 1025 363 m 88 238 l 72 146 l 86 146 l 89 164 l 104 164 l 107 146 l 122 146 l 107 238 l 88 238 m 103 176 l 90 176 l 96 222 l 97 222 l 103 176 m 128 238 l 128 146 l 142 146 l 142 213 l 158 146 l 174 146 l 174 238 l 161 238 l 161 182 l 146 238 l 128 238 m 183 238 l 183 146 l 206 146 q 222 151 217 146 q 228 168 228 157 l 228 215 q 222 232 228 226 q 206 238 217 238 l 183 238 m 206 158 l 199 158 l 199 225 l 206 225 q 211 222 208 225 q 213 215 213 221 l 213 168 q 211 161 213 163 q 206 158 208 158 m 261 150 q 278 144 267 144 q 293 150 289 144 q 299 167 299 156 l 299 179 l 285 179 l 285 165 q 278 157 285 157 q 271 165 271 157 l 271 218 q 278 226 271 226 q 285 218 285 226 l 285 207 l 299 207 l 299 217 q 293 233 299 228 q 278 239 289 239 q 261 233 267 239 q 256 217 256 225 l 256 167 q 261 150 256 158 m 311 150 q 328 144 317 144 q 344 150 339 144 q 350 167 350 156 l 350 217 q 344 233 350 228 q 328 239 339 239 q 311 233 317 239 q 306 217 306 225 l 306 167 q 311 150 306 158 m 336 167 q 328 157 336 157 q 321 167 321 157 l 321 217 q 328 226 321 226 q 336 217 336 226 l 336 167 m 358 238 l 358 146 l 372 146 l 372 215 l 382 146 l 394 146 l 406 215 l 406 146 l 419 146 l 419 238 l 399 238 l 389 172 l 379 238 l 358 238 m 429 238 l 429 146 l 442 146 l 442 215 l 453 146 l 465 146 l 475 215 l 476 215 l 476 146 l 489 146 l 489 238 l 469 238 l 460 172 l 450 238 l 429 238 m 500 238 l 500 146 l 539 146 l 539 158 l 514 158 l 514 188 l 535 188 l 535 200 l 514 200 l 514 225 l 539 225 l 539 238 l 500 238 m 547 238 l 547 146 l 561 146 l 561 185 l 567 185 q 574 182 572 185 q 575 174 575 181 l 575 157 l 575 150 q 576 146 576 149 l 592 146 q 590 150 590 147 l 590 157 l 590 172 q 588 186 590 181 q 581 193 585 190 q 590 211 590 197 l 590 217 q 585 233 590 225 q 568 238 578 238 l 547 238 m 567 199 l 561 199 l 561 225 l 568 225 q 574 222 571 225 q 575 215 575 221 l 575 208 q 574 200 575 201 q 567 199 572 199 m 604 150 q 619 144 608 144 q 636 150 631 144 q 642 167 642 158 l 642 179 l 628 179 l 628 165 q 619 157 628 157 q 613 165 613 157 l 613 218 q 619 226 613 226 q 628 218 628 226 l 628 207 l 642 207 l 642 217 q 636 233 642 225 q 619 239 631 239 q 604 233 608 239 q 599 217 599 228 l 599 167 q 604 150 599 156 m 649 238 l 649 146 l 664 146 l 664 238 l 649 238 m 685 238 l 669 146 l 683 146 l 686 164 l 703 164 l 704 146 l 719 146 l 704 238 l 685 238 m 700 176 l 688 176 l 693 222 l 694 222 l 700 176 m 725 238 l 725 146 l 764 146 l 764 158 l 740 158 l 740 238 l 725 238 m 786 238 l 800 146 l 819 146 l 833 238 l 821 238 l 811 167 l 801 238 l 786 238 m 840 238 l 840 146 l 879 146 l 879 158 l 854 158 l 854 188 l 875 188 l 875 200 l 854 200 l 854 225 l 879 225 l 879 238 l 840 238 m 888 238 l 888 146 l 901 146 l 901 185 l 907 185 q 914 182 913 185 q 915 174 915 181 l 915 157 q 917 150 915 151 l 917 146 l 932 146 q 931 150 932 147 l 931 157 l 931 172 q 928 186 931 181 q 921 193 925 190 q 931 211 931 197 l 931 217 q 925 233 931 228 q 908 238 921 238 l 888 238 m 907 199 l 901 199 l 901 225 l 908 225 q 914 222 911 225 q 915 215 915 221 l 915 208 q 914 200 915 201 q 907 199 913 199 m 943 150 q 958 144 947 144 q 975 150 969 144 q 981 168 981 156 q 976 183 981 175 q 964 197 975 189 q 958 203 961 200 q 954 208 956 207 q 951 217 951 214 q 960 226 951 226 q 964 224 964 226 q 967 217 967 221 l 967 213 l 981 213 l 981 217 q 975 233 981 225 q 958 239 969 239 q 943 233 949 239 q 938 217 938 228 q 940 201 938 210 q 953 188 943 197 q 958 184 956 186 q 961 180 960 182 q 964 176 963 178 q 965 167 965 174 q 964 160 965 161 q 958 157 961 157 q 951 167 951 157 l 951 172 l 938 172 l 938 167 q 943 150 938 156 m 988 238 l 988 146 l 1003 146 l 1003 238 l 988 238 m 1011 167 q 1017 150 1011 156 q 1033 144 1022 144 q 1050 150 1044 144 q 1056 167 1056 156 l 1056 217 q 1050 233 1056 228 q 1033 239 1044 239 q 1017 233 1022 239 q 1011 217 1011 228 l 1011 167 m 1040 167 q 1033 157 1040 157 q 1026 167 1026 157 l 1026 217 q 1033 226 1026 226 q 1040 217 1040 226 l 1040 167 m 1064 238 l 1064 146 l 1078 146 l 1078 213 l 1094 146 l 1110 146 l 1110 238 l 1097 238 l 1097 182 l 1083 238 l 1064 238 m 93 113 l 103 21 l 122 21 l 129 83 l 136 21 l 154 21 l 164 113 l 151 113 l 144 42 l 138 113 l 121 113 l 114 42 l 108 113 l 93 113 m 167 113 l 176 21 l 196 21 l 203 83 l 210 21 l 228 21 l 238 113 l 224 113 l 218 42 l 211 113 l 194 113 l 188 42 l 181 113 l 167 113 m 240 113 l 250 21 l 269 21 l 276 83 l 283 21 l 301 21 l 310 113 l 297 113 l 292 42 l 285 113 l 268 113 l 261 42 l 254 113 l 240 113 m 314 35 l 314 21 l 328 21 l 328 35 l 314 35 m 338 113 l 338 21 l 378 21 l 378 33 l 351 33 l 351 63 l 372 63 l 372 75 l 351 75 l 351 100 l 378 100 l 378 113 l 338 113 m 385 113 l 385 21 l 399 21 l 399 61 l 418 61 l 418 74 l 399 74 l 399 100 l 424 100 l 424 113 l 385 113 m 432 25 q 449 19 438 19 q 464 25 460 19 q 471 43 471 32 q 467 58 471 50 q 454 72 464 63 q 444 83 444 81 q 442 92 442 89 q 449 101 442 101 q 454 99 451 101 q 456 92 456 97 l 456 88 l 469 88 l 469 90 q 464 108 469 103 q 449 114 460 114 q 432 108 438 114 q 426 92 426 100 q 431 76 426 83 q 443 63 433 72 q 453 51 451 54 q 456 42 456 46 q 454 35 456 36 q 449 32 451 32 q 440 42 440 32 l 440 47 l 426 47 l 426 42 q 432 25 426 33 m 489 100 l 489 21 l 504 21 l 504 100 l 518 100 l 518 113 l 474 113 l 474 100 l 489 100 m 529 25 q 546 19 535 19 q 563 25 557 19 q 568 42 568 33 l 568 113 l 554 113 l 554 42 q 551 35 554 38 q 546 32 549 32 q 540 35 543 32 q 539 42 539 36 l 539 113 l 524 113 l 524 42 q 529 25 524 33 m 578 113 l 578 21 l 600 21 q 615 26 611 21 q 621 43 621 32 l 621 90 q 615 107 621 101 q 600 113 611 113 l 578 113 m 599 33 l 592 33 l 592 100 l 599 100 q 604 97 601 100 q 607 90 607 94 l 607 43 q 604 36 607 39 q 599 33 601 33 m 631 113 l 631 21 l 644 21 l 644 113 l 631 113 m 660 25 q 675 19 664 19 q 692 25 686 19 q 697 42 697 31 l 697 90 q 692 108 697 103 q 675 114 686 114 q 660 108 664 114 q 653 90 653 101 l 653 42 q 660 25 653 32 m 683 42 q 675 32 683 32 q 668 42 668 32 l 668 92 q 675 101 668 101 q 683 92 683 101 l 683 42 m 717 100 l 717 21 l 732 21 l 732 100 l 747 100 l 747 113 l 703 113 l 703 100 l 717 100 m 767 60 l 767 21 l 782 21 l 782 60 l 799 113 l 785 113 l 775 79 l 765 113 l 750 113 l 767 60 m 806 113 l 806 21 l 819 21 l 819 58 l 826 58 q 843 64 838 58 q 849 81 849 72 l 849 90 q 843 107 849 99 q 826 113 838 113 l 806 113 m 826 71 l 819 71 l 819 100 l 826 100 q 832 97 829 100 q 833 90 833 96 l 833 81 q 832 74 833 75 q 826 71 829 71 m 856 113 l 856 21 l 894 21 l 894 33 l 869 33 l 869 63 l 890 63 l 890 75 l 869 75 l 869 100 l 894 100 l 894 113 l 856 113 m 903 35 l 903 21 l 917 21 l 917 35 l 903 35 m 925 42 q 931 25 925 31 q 947 19 936 19 q 963 25 957 19 q 968 42 968 31 l 968 54 l 954 54 l 954 40 q 947 32 954 32 q 940 40 940 32 l 940 93 q 947 101 940 101 q 954 93 954 101 l 954 82 l 968 82 l 968 92 q 963 108 968 103 q 947 114 957 114 q 931 108 936 114 q 925 92 925 103 l 925 42 m 975 42 q 981 25 975 31 q 997 19 986 19 q 1014 25 1008 19 q 1019 42 1019 31 l 1019 90 q 1014 108 1019 103 q 997 114 1008 114 q 981 108 986 114 q 975 90 975 103 l 975 42 m 1004 42 q 997 32 1004 32 q 990 42 990 32 l 990 92 q 997 101 990 101 q 1004 92 1004 101 l 1004 42 m 1028 113 l 1028 21 l 1040 21 l 1040 90 l 1042 90 l 1051 21 l 1064 21 l 1075 90 l 1075 21 l 1089 21 l 1089 113 l 1068 113 l 1058 47 l 1049 113 l 1028 113 z "},"6":{"ha":1153,"x_min":58,"x_max":1124,"o":"m 58 944 l 58 700 l 97 700 l 97 800 l 115 800 q 158 815 144 800 q 172 860 172 829 l 172 885 q 158 929 172 915 q 115 944 144 944 l 58 944 m 115 835 l 97 835 l 97 910 l 115 910 q 129 904 125 910 q 135 886 135 899 l 135 858 q 129 840 135 846 q 115 835 125 835 m 193 944 l 193 700 l 299 700 l 299 735 l 232 735 l 232 810 l 285 810 l 285 846 l 232 846 l 232 910 l 299 910 l 299 944 l 193 944 m 321 944 l 321 700 l 360 700 l 360 806 l 372 806 q 392 799 385 806 q 397 775 397 790 l 397 731 l 397 711 q 400 700 397 708 l 439 700 q 436 713 436 708 q 435 729 435 717 l 435 772 q 429 807 435 796 q 410 825 424 821 q 435 874 435 836 l 435 889 q 421 931 435 918 q 378 944 408 944 l 321 944 m 374 840 l 360 840 l 360 910 l 376 910 q 392 904 388 910 q 396 885 396 897 l 396 865 q 390 846 396 851 q 374 840 385 840 m 469 713 q 513 696 483 696 q 556 713 539 696 q 569 758 569 728 q 561 799 569 782 q 528 838 549 818 q 501 865 508 854 q 494 890 494 876 q 514 914 494 914 q 528 907 524 914 q 533 889 533 901 l 533 876 l 569 876 l 569 886 q 556 932 569 915 q 514 949 542 949 q 471 932 486 949 q 456 888 456 917 q 465 849 456 867 q 499 811 475 832 q 525 783 513 799 q 532 756 532 769 q 526 738 532 746 q 511 732 522 732 q 492 756 492 732 l 492 772 l 456 772 l 456 758 q 469 713 456 728 m 604 713 q 647 696 619 696 q 692 713 675 696 q 706 758 706 728 l 706 886 q 692 932 706 918 q 647 949 675 949 q 604 932 619 949 q 589 886 589 917 l 589 758 q 604 713 589 731 m 668 756 q 647 732 668 732 q 628 756 628 732 l 628 889 q 647 914 628 914 q 668 889 668 914 l 668 756 m 732 944 l 732 700 l 767 700 l 767 879 l 813 700 l 853 700 l 853 944 l 818 944 l 818 799 l 781 944 l 732 944 m 911 944 l 871 700 l 907 700 l 914 747 l 958 747 l 958 749 l 965 700 l 1003 700 l 964 944 l 911 944 m 953 781 l 918 781 l 935 903 l 936 903 l 953 781 m 1022 944 l 1022 700 l 1124 700 l 1124 735 l 1060 735 l 1060 944 l 1022 944 m 74 433 q 117 417 88 417 q 158 433 144 417 q 174 478 174 449 l 174 665 l 136 665 l 136 475 q 131 457 136 463 q 117 451 125 451 q 103 457 108 451 q 97 475 97 463 l 97 665 l 58 665 l 58 478 q 74 433 58 449 m 208 433 q 251 417 224 417 q 294 433 281 417 q 308 479 308 447 q 300 519 308 503 q 267 557 289 536 q 240 586 250 572 q 233 610 233 597 q 253 633 233 633 q 267 628 263 633 q 272 610 272 619 l 272 597 l 308 597 l 308 607 q 294 653 308 635 q 253 669 281 669 q 210 653 225 669 q 194 608 194 635 q 204 569 194 585 q 238 532 214 553 q 264 504 251 519 q 271 476 271 490 q 265 458 271 464 q 250 451 261 451 q 231 475 231 451 l 231 493 l 194 493 l 194 478 q 208 433 194 447 m 331 665 l 331 421 l 436 421 l 436 456 l 369 456 l 369 531 l 422 531 l 422 565 l 369 565 l 369 631 l 436 631 l 436 665 l 331 665 m 526 433 q 569 417 542 417 q 613 433 597 417 q 628 478 628 447 l 628 607 q 613 653 628 638 q 569 669 597 669 q 526 653 542 669 q 511 607 511 635 l 511 478 q 526 433 511 449 m 589 476 q 569 451 589 451 q 550 476 550 451 l 550 610 q 569 633 550 633 q 589 610 589 633 l 589 476 m 654 665 l 654 421 l 689 421 l 689 599 l 735 421 l 775 421 l 775 665 l 740 665 l 740 518 l 703 665 l 654 665 m 803 665 l 803 421 l 906 421 l 906 456 l 842 456 l 842 665 l 803 665 m 928 525 l 928 421 l 967 421 l 967 525 l 1014 665 l 976 665 l 950 575 l 949 575 l 922 665 l 882 665 l 928 525 m 1033 563 l 1039 485 l 1068 485 l 1072 563 l 1072 665 l 1033 665 l 1033 563 m 1035 457 l 1035 421 l 1072 421 l 1072 457 l 1035 457 m 118 363 l 118 271 l 133 271 l 133 308 l 140 308 q 156 314 151 308 q 161 331 161 319 l 161 340 q 156 357 161 351 q 140 363 151 363 l 118 363 m 140 321 l 133 321 l 133 350 l 140 350 q 144 347 144 350 q 147 342 147 344 l 147 331 q 144 324 147 326 q 140 321 144 321 m 168 292 q 174 275 168 281 q 190 269 179 269 q 206 275 201 269 q 211 292 211 281 l 211 363 l 197 363 l 197 292 q 196 285 197 286 q 190 282 193 282 q 185 285 188 282 q 182 292 182 288 l 182 363 l 168 363 l 168 292 m 221 363 l 221 271 l 235 271 l 235 310 l 240 310 q 247 307 246 310 q 250 299 250 304 l 250 282 l 250 275 q 251 271 250 272 l 265 271 q 264 275 265 272 l 264 282 l 264 297 q 263 311 264 308 q 254 318 260 317 q 264 336 264 322 l 264 342 q 258 358 264 353 q 243 363 254 363 l 221 363 m 240 324 l 235 324 l 235 350 l 242 350 q 247 347 244 350 q 250 340 250 344 l 250 333 q 247 325 250 328 q 240 324 246 324 m 272 292 q 278 275 272 281 q 293 269 283 269 q 310 275 304 269 q 315 292 315 281 l 315 306 l 301 306 l 301 290 q 294 282 301 282 q 288 290 288 282 l 288 343 q 294 351 288 351 q 301 343 301 351 l 301 332 l 315 332 l 315 342 q 310 358 315 353 q 293 364 304 364 q 278 358 283 364 q 272 342 272 353 l 272 292 m 324 363 l 324 271 l 338 271 l 338 313 l 353 313 l 353 271 l 368 271 l 368 363 l 353 363 l 353 325 l 338 325 l 338 363 l 324 363 m 389 363 l 374 271 l 388 271 l 390 289 l 407 289 l 410 271 l 424 271 l 408 363 l 389 363 m 404 301 l 392 301 l 399 347 l 404 301 m 432 275 q 449 269 438 269 q 465 275 460 269 q 471 293 471 283 q 467 308 471 300 q 454 322 465 314 q 444 333 446 331 q 442 342 442 339 q 449 351 442 351 q 454 349 451 351 q 457 342 457 346 l 457 338 l 469 338 l 469 342 q 465 358 469 353 q 449 364 460 364 q 433 358 438 364 q 428 342 428 353 q 431 326 428 331 q 443 313 433 322 q 453 301 450 307 q 456 292 456 299 q 454 285 456 286 q 449 282 451 282 q 440 292 440 282 l 440 297 l 426 297 l 426 292 q 432 275 426 283 m 478 363 l 478 271 l 518 271 l 518 283 l 492 283 l 492 313 l 513 313 l 513 325 l 492 325 l 492 350 l 518 350 l 518 363 l 478 363 m 546 363 l 546 271 l 560 271 l 560 311 l 579 311 l 579 324 l 560 324 l 560 350 l 583 350 l 583 363 l 546 363 m 589 292 q 594 275 589 281 q 611 269 600 269 q 628 275 622 269 q 633 292 633 283 l 633 342 q 628 358 633 350 q 611 364 622 364 q 594 358 600 364 q 589 342 589 353 l 589 292 m 618 292 q 611 282 618 282 q 603 292 603 282 l 603 342 q 611 351 603 351 q 618 342 618 351 l 618 292 m 642 363 l 642 271 l 657 271 l 657 310 l 661 310 q 668 307 667 310 q 671 299 671 304 l 671 282 l 671 275 q 672 271 671 272 l 686 271 q 685 275 686 274 l 685 282 l 685 297 q 683 311 685 308 q 675 318 681 317 q 685 336 685 322 l 685 342 q 679 358 685 353 q 664 363 675 363 l 642 363 m 661 324 l 657 324 l 657 350 l 663 350 q 668 347 668 350 q 671 340 671 344 l 671 333 q 668 325 671 328 q 661 324 667 324 m 726 350 l 726 271 l 740 271 l 740 350 l 756 350 l 756 363 l 711 363 l 711 350 l 726 350 m 761 363 l 761 271 l 776 271 l 776 313 l 792 313 l 792 271 l 807 271 l 807 363 l 792 363 l 792 325 l 776 325 l 776 363 l 761 363 m 817 363 l 817 271 l 856 271 l 856 283 l 831 283 l 831 313 l 851 313 l 851 325 l 831 325 l 831 350 l 856 350 l 856 363 l 817 363 m 883 363 l 883 271 l 899 271 l 899 311 l 917 311 l 917 324 l 899 324 l 899 350 l 922 350 l 922 363 l 883 363 m 928 292 q 933 275 928 281 q 950 269 939 269 q 965 275 961 269 q 971 292 971 281 l 971 363 l 957 363 l 957 292 q 956 285 957 286 q 950 282 953 282 q 944 285 947 282 q 943 292 943 286 l 943 363 l 928 363 l 928 292 m 981 363 l 981 271 l 1019 271 l 1019 283 l 996 283 l 996 363 l 981 363 m 1025 363 l 1025 271 l 1064 271 l 1064 283 l 1040 283 l 1040 363 l 1025 363 m 88 238 l 72 146 l 86 146 l 89 164 l 104 164 l 107 146 l 122 146 l 107 238 l 88 238 m 103 176 l 90 176 l 96 222 l 97 222 l 103 176 m 128 238 l 128 146 l 142 146 l 142 213 l 158 146 l 174 146 l 174 238 l 161 238 l 161 182 l 146 238 l 128 238 m 183 238 l 183 146 l 206 146 q 222 151 217 146 q 228 168 228 157 l 228 215 q 222 232 228 226 q 206 238 217 238 l 183 238 m 206 158 l 199 158 l 199 225 l 206 225 q 211 222 208 225 q 213 215 213 221 l 213 168 q 211 161 213 163 q 206 158 208 158 m 261 150 q 278 144 267 144 q 293 150 289 144 q 299 167 299 156 l 299 179 l 285 179 l 285 165 q 278 157 285 157 q 271 165 271 157 l 271 218 q 278 226 271 226 q 285 218 285 226 l 285 207 l 299 207 l 299 217 q 293 233 299 228 q 278 239 289 239 q 261 233 267 239 q 256 217 256 225 l 256 167 q 261 150 256 158 m 311 150 q 328 144 317 144 q 344 150 339 144 q 350 167 350 156 l 350 217 q 344 233 350 228 q 328 239 339 239 q 311 233 317 239 q 306 217 306 225 l 306 167 q 311 150 306 158 m 336 167 q 328 157 336 157 q 321 167 321 157 l 321 217 q 328 226 321 226 q 336 217 336 226 l 336 167 m 358 238 l 358 146 l 372 146 l 372 215 l 382 146 l 394 146 l 406 215 l 406 146 l 419 146 l 419 238 l 399 238 l 389 172 l 379 238 l 358 238 m 429 238 l 429 146 l 442 146 l 442 215 l 453 146 l 465 146 l 475 215 l 476 215 l 476 146 l 489 146 l 489 238 l 469 238 l 460 172 l 450 238 l 429 238 m 500 238 l 500 146 l 539 146 l 539 158 l 514 158 l 514 188 l 535 188 l 535 200 l 514 200 l 514 225 l 539 225 l 539 238 l 500 238 m 547 238 l 547 146 l 561 146 l 561 185 l 567 185 q 574 182 572 185 q 575 174 575 181 l 575 157 l 575 150 q 576 146 576 149 l 592 146 q 590 150 590 147 l 590 157 l 590 172 q 588 186 590 181 q 581 193 585 190 q 590 211 590 197 l 590 217 q 585 233 590 225 q 568 238 578 238 l 547 238 m 567 199 l 561 199 l 561 225 l 568 225 q 574 222 571 225 q 575 215 575 221 l 575 208 q 574 200 575 201 q 567 199 572 199 m 604 150 q 619 144 608 144 q 636 150 631 144 q 642 167 642 158 l 642 179 l 628 179 l 628 165 q 619 157 628 157 q 613 165 613 157 l 613 218 q 619 226 613 226 q 628 218 628 226 l 628 207 l 642 207 l 642 217 q 636 233 642 225 q 619 239 631 239 q 604 233 608 239 q 599 217 599 228 l 599 167 q 604 150 599 156 m 649 238 l 649 146 l 664 146 l 664 238 l 649 238 m 685 238 l 669 146 l 683 146 l 686 164 l 703 164 l 704 146 l 719 146 l 704 238 l 685 238 m 700 176 l 688 176 l 693 222 l 694 222 l 700 176 m 725 238 l 725 146 l 764 146 l 764 158 l 740 158 l 740 238 l 725 238 m 786 238 l 800 146 l 819 146 l 833 238 l 821 238 l 811 167 l 801 238 l 786 238 m 840 238 l 840 146 l 879 146 l 879 158 l 854 158 l 854 188 l 875 188 l 875 200 l 854 200 l 854 225 l 879 225 l 879 238 l 840 238 m 888 238 l 888 146 l 901 146 l 901 185 l 907 185 q 914 182 913 185 q 915 174 915 181 l 915 157 q 917 150 915 151 l 917 146 l 932 146 q 931 150 932 147 l 931 157 l 931 172 q 928 186 931 181 q 921 193 925 190 q 931 211 931 197 l 931 217 q 925 233 931 228 q 908 238 921 238 l 888 238 m 907 199 l 901 199 l 901 225 l 908 225 q 914 222 911 225 q 915 215 915 221 l 915 208 q 914 200 915 201 q 907 199 913 199 m 943 150 q 958 144 947 144 q 975 150 969 144 q 981 168 981 156 q 976 183 981 175 q 964 197 975 189 q 958 203 961 200 q 954 208 956 207 q 951 217 951 214 q 960 226 951 226 q 964 224 964 226 q 967 217 967 221 l 967 213 l 981 213 l 981 217 q 975 233 981 225 q 958 239 969 239 q 943 233 949 239 q 938 217 938 228 q 940 201 938 210 q 953 188 943 197 q 958 184 956 186 q 961 180 960 182 q 964 176 963 178 q 965 167 965 174 q 964 160 965 161 q 958 157 961 157 q 951 167 951 157 l 951 172 l 938 172 l 938 167 q 943 150 938 156 m 988 238 l 988 146 l 1003 146 l 1003 238 l 988 238 m 1011 167 q 1017 150 1011 156 q 1033 144 1022 144 q 1050 150 1044 144 q 1056 167 1056 156 l 1056 217 q 1050 233 1056 228 q 1033 239 1044 239 q 1017 233 1022 239 q 1011 217 1011 228 l 1011 167 m 1040 167 q 1033 157 1040 157 q 1026 167 1026 157 l 1026 217 q 1033 226 1026 226 q 1040 217 1040 226 l 1040 167 m 1064 238 l 1064 146 l 1078 146 l 1078 213 l 1094 146 l 1110 146 l 1110 238 l 1097 238 l 1097 182 l 1083 238 l 1064 238 m 93 113 l 103 21 l 122 21 l 129 83 l 136 21 l 154 21 l 164 113 l 151 113 l 144 42 l 138 113 l 121 113 l 114 42 l 108 113 l 93 113 m 167 113 l 176 21 l 196 21 l 203 83 l 210 21 l 228 21 l 238 113 l 224 113 l 218 42 l 211 113 l 194 113 l 188 42 l 181 113 l 167 113 m 240 113 l 250 21 l 269 21 l 276 83 l 283 21 l 301 21 l 310 113 l 297 113 l 292 42 l 285 113 l 268 113 l 261 42 l 254 113 l 240 113 m 314 35 l 314 21 l 328 21 l 328 35 l 314 35 m 338 113 l 338 21 l 378 21 l 378 33 l 351 33 l 351 63 l 372 63 l 372 75 l 351 75 l 351 100 l 378 100 l 378 113 l 338 113 m 385 113 l 385 21 l 399 21 l 399 61 l 418 61 l 418 74 l 399 74 l 399 100 l 424 100 l 424 113 l 385 113 m 432 25 q 449 19 438 19 q 464 25 460 19 q 471 43 471 32 q 467 58 471 50 q 454 72 464 63 q 444 83 444 81 q 442 92 442 89 q 449 101 442 101 q 454 99 451 101 q 456 92 456 97 l 456 88 l 469 88 l 469 90 q 464 108 469 103 q 449 114 460 114 q 432 108 438 114 q 426 92 426 100 q 431 76 426 83 q 443 63 433 72 q 453 51 451 54 q 456 42 456 46 q 454 35 456 36 q 449 32 451 32 q 440 42 440 32 l 440 47 l 426 47 l 426 42 q 432 25 426 33 m 489 100 l 489 21 l 504 21 l 504 100 l 518 100 l 518 113 l 474 113 l 474 100 l 489 100 m 529 25 q 546 19 535 19 q 563 25 557 19 q 568 42 568 33 l 568 113 l 554 113 l 554 42 q 551 35 554 38 q 546 32 549 32 q 540 35 543 32 q 539 42 539 36 l 539 113 l 524 113 l 524 42 q 529 25 524 33 m 578 113 l 578 21 l 600 21 q 615 26 611 21 q 621 43 621 32 l 621 90 q 615 107 621 101 q 600 113 611 113 l 578 113 m 599 33 l 592 33 l 592 100 l 599 100 q 604 97 601 100 q 607 90 607 94 l 607 43 q 604 36 607 39 q 599 33 601 33 m 631 113 l 631 21 l 644 21 l 644 113 l 631 113 m 660 25 q 675 19 664 19 q 692 25 686 19 q 697 42 697 31 l 697 90 q 692 108 697 103 q 675 114 686 114 q 660 108 664 114 q 653 90 653 101 l 653 42 q 660 25 653 32 m 683 42 q 675 32 683 32 q 668 42 668 32 l 668 92 q 675 101 668 101 q 683 92 683 101 l 683 42 m 717 100 l 717 21 l 732 21 l 732 100 l 747 100 l 747 113 l 703 113 l 703 100 l 717 100 m 767 60 l 767 21 l 782 21 l 782 60 l 799 113 l 785 113 l 775 79 l 765 113 l 750 113 l 767 60 m 806 113 l 806 21 l 819 21 l 819 58 l 826 58 q 843 64 838 58 q 849 81 849 72 l 849 90 q 843 107 849 99 q 826 113 838 113 l 806 113 m 826 71 l 819 71 l 819 100 l 826 100 q 832 97 829 100 q 833 90 833 96 l 833 81 q 832 74 833 75 q 826 71 829 71 m 856 113 l 856 21 l 894 21 l 894 33 l 869 33 l 869 63 l 890 63 l 890 75 l 869 75 l 869 100 l 894 100 l 894 113 l 856 113 m 903 35 l 903 21 l 917 21 l 917 35 l 903 35 m 925 42 q 931 25 925 31 q 947 19 936 19 q 963 25 957 19 q 968 42 968 31 l 968 54 l 954 54 l 954 40 q 947 32 954 32 q 940 40 940 32 l 940 93 q 947 101 940 101 q 954 93 954 101 l 954 82 l 968 82 l 968 92 q 963 108 968 103 q 947 114 957 114 q 931 108 936 114 q 925 92 925 103 l 925 42 m 975 42 q 981 25 975 31 q 997 19 986 19 q 1014 25 1008 19 q 1019 42 1019 31 l 1019 90 q 1014 108 1019 103 q 997 114 1008 114 q 981 108 986 114 q 975 90 975 103 l 975 42 m 1004 42 q 997 32 1004 32 q 990 42 990 32 l 990 92 q 997 101 990 101 q 1004 92 1004 101 l 1004 42 m 1028 113 l 1028 21 l 1040 21 l 1040 90 l 1042 90 l 1051 21 l 1064 21 l 1075 90 l 1075 21 l 1089 21 l 1089 113 l 1068 113 l 1058 47 l 1049 113 l 1028 113 z "},"7":{"ha":1153,"x_min":58,"x_max":1124,"o":"m 58 944 l 58 700 l 97 700 l 97 800 l 115 800 q 158 815 144 800 q 172 860 172 829 l 172 885 q 158 929 172 915 q 115 944 144 944 l 58 944 m 115 835 l 97 835 l 97 910 l 115 910 q 129 904 125 910 q 135 886 135 899 l 135 858 q 129 840 135 846 q 115 835 125 835 m 193 944 l 193 700 l 299 700 l 299 735 l 232 735 l 232 810 l 285 810 l 285 846 l 232 846 l 232 910 l 299 910 l 299 944 l 193 944 m 321 944 l 321 700 l 360 700 l 360 806 l 372 806 q 392 799 385 806 q 397 775 397 790 l 397 731 l 397 711 q 400 700 397 708 l 439 700 q 436 713 436 708 q 435 729 435 717 l 435 772 q 429 807 435 796 q 410 825 424 821 q 435 874 435 836 l 435 889 q 421 931 435 918 q 378 944 408 944 l 321 944 m 374 840 l 360 840 l 360 910 l 376 910 q 392 904 388 910 q 396 885 396 897 l 396 865 q 390 846 396 851 q 374 840 385 840 m 469 713 q 513 696 483 696 q 556 713 539 696 q 569 758 569 728 q 561 799 569 782 q 528 838 549 818 q 501 865 508 854 q 494 890 494 876 q 514 914 494 914 q 528 907 524 914 q 533 889 533 901 l 533 876 l 569 876 l 569 886 q 556 932 569 915 q 514 949 542 949 q 471 932 486 949 q 456 888 456 917 q 465 849 456 867 q 499 811 475 832 q 525 783 513 799 q 532 756 532 769 q 526 738 532 746 q 511 732 522 732 q 492 756 492 732 l 492 772 l 456 772 l 456 758 q 469 713 456 728 m 604 713 q 647 696 619 696 q 692 713 675 696 q 706 758 706 728 l 706 886 q 692 932 706 918 q 647 949 675 949 q 604 932 619 949 q 589 886 589 917 l 589 758 q 604 713 589 731 m 668 756 q 647 732 668 732 q 628 756 628 732 l 628 889 q 647 914 628 914 q 668 889 668 914 l 668 756 m 732 944 l 732 700 l 767 700 l 767 879 l 813 700 l 853 700 l 853 944 l 818 944 l 818 799 l 781 944 l 732 944 m 911 944 l 871 700 l 907 700 l 914 747 l 958 747 l 958 749 l 965 700 l 1003 700 l 964 944 l 911 944 m 953 781 l 918 781 l 935 903 l 936 903 l 953 781 m 1022 944 l 1022 700 l 1124 700 l 1124 735 l 1060 735 l 1060 944 l 1022 944 m 74 433 q 117 417 88 417 q 158 433 144 417 q 174 478 174 449 l 174 665 l 136 665 l 136 475 q 131 457 136 463 q 117 451 125 451 q 103 457 108 451 q 97 475 97 463 l 97 665 l 58 665 l 58 478 q 74 433 58 449 m 208 433 q 251 417 224 417 q 294 433 281 417 q 308 479 308 447 q 300 519 308 503 q 267 557 289 536 q 240 586 250 572 q 233 610 233 597 q 253 633 233 633 q 267 628 263 633 q 272 610 272 619 l 272 597 l 308 597 l 308 607 q 294 653 308 635 q 253 669 281 669 q 210 653 225 669 q 194 608 194 635 q 204 569 194 585 q 238 532 214 553 q 264 504 251 519 q 271 476 271 490 q 265 458 271 464 q 250 451 261 451 q 231 475 231 451 l 231 493 l 194 493 l 194 478 q 208 433 194 447 m 331 665 l 331 421 l 436 421 l 436 456 l 369 456 l 369 531 l 422 531 l 422 565 l 369 565 l 369 631 l 436 631 l 436 665 l 331 665 m 526 433 q 569 417 542 417 q 613 433 597 417 q 628 478 628 447 l 628 607 q 613 653 628 638 q 569 669 597 669 q 526 653 542 669 q 511 607 511 635 l 511 478 q 526 433 511 449 m 589 476 q 569 451 589 451 q 550 476 550 451 l 550 610 q 569 633 550 633 q 589 610 589 633 l 589 476 m 654 665 l 654 421 l 689 421 l 689 599 l 735 421 l 775 421 l 775 665 l 740 665 l 740 518 l 703 665 l 654 665 m 803 665 l 803 421 l 906 421 l 906 456 l 842 456 l 842 665 l 803 665 m 928 525 l 928 421 l 967 421 l 967 525 l 1014 665 l 976 665 l 950 575 l 949 575 l 922 665 l 882 665 l 928 525 m 1033 563 l 1039 485 l 1068 485 l 1072 563 l 1072 665 l 1033 665 l 1033 563 m 1035 457 l 1035 421 l 1072 421 l 1072 457 l 1035 457 m 118 363 l 118 271 l 133 271 l 133 308 l 140 308 q 156 314 151 308 q 161 331 161 319 l 161 340 q 156 357 161 351 q 140 363 151 363 l 118 363 m 140 321 l 133 321 l 133 350 l 140 350 q 144 347 144 350 q 147 342 147 344 l 147 331 q 144 324 147 326 q 140 321 144 321 m 168 292 q 174 275 168 281 q 190 269 179 269 q 206 275 201 269 q 211 292 211 281 l 211 363 l 197 363 l 197 292 q 196 285 197 286 q 190 282 193 282 q 185 285 188 282 q 182 292 182 288 l 182 363 l 168 363 l 168 292 m 221 363 l 221 271 l 235 271 l 235 310 l 240 310 q 247 307 246 310 q 250 299 250 304 l 250 282 l 250 275 q 251 271 250 272 l 265 271 q 264 275 265 272 l 264 282 l 264 297 q 263 311 264 308 q 254 318 260 317 q 264 336 264 322 l 264 342 q 258 358 264 353 q 243 363 254 363 l 221 363 m 240 324 l 235 324 l 235 350 l 242 350 q 247 347 244 350 q 250 340 250 344 l 250 333 q 247 325 250 328 q 240 324 246 324 m 272 292 q 278 275 272 281 q 293 269 283 269 q 310 275 304 269 q 315 292 315 281 l 315 306 l 301 306 l 301 290 q 294 282 301 282 q 288 290 288 282 l 288 343 q 294 351 288 351 q 301 343 301 351 l 301 332 l 315 332 l 315 342 q 310 358 315 353 q 293 364 304 364 q 278 358 283 364 q 272 342 272 353 l 272 292 m 324 363 l 324 271 l 338 271 l 338 313 l 353 313 l 353 271 l 368 271 l 368 363 l 353 363 l 353 325 l 338 325 l 338 363 l 324 363 m 389 363 l 374 271 l 388 271 l 390 289 l 407 289 l 410 271 l 424 271 l 408 363 l 389 363 m 404 301 l 392 301 l 399 347 l 404 301 m 432 275 q 449 269 438 269 q 465 275 460 269 q 471 293 471 283 q 467 308 471 300 q 454 322 465 314 q 444 333 446 331 q 442 342 442 339 q 449 351 442 351 q 454 349 451 351 q 457 342 457 346 l 457 338 l 469 338 l 469 342 q 465 358 469 353 q 449 364 460 364 q 433 358 438 364 q 428 342 428 353 q 431 326 428 331 q 443 313 433 322 q 453 301 450 307 q 456 292 456 299 q 454 285 456 286 q 449 282 451 282 q 440 292 440 282 l 440 297 l 426 297 l 426 292 q 432 275 426 283 m 478 363 l 478 271 l 518 271 l 518 283 l 492 283 l 492 313 l 513 313 l 513 325 l 492 325 l 492 350 l 518 350 l 518 363 l 478 363 m 546 363 l 546 271 l 560 271 l 560 311 l 579 311 l 579 324 l 560 324 l 560 350 l 583 350 l 583 363 l 546 363 m 589 292 q 594 275 589 281 q 611 269 600 269 q 628 275 622 269 q 633 292 633 283 l 633 342 q 628 358 633 350 q 611 364 622 364 q 594 358 600 364 q 589 342 589 353 l 589 292 m 618 292 q 611 282 618 282 q 603 292 603 282 l 603 342 q 611 351 603 351 q 618 342 618 351 l 618 292 m 642 363 l 642 271 l 657 271 l 657 310 l 661 310 q 668 307 667 310 q 671 299 671 304 l 671 282 l 671 275 q 672 271 671 272 l 686 271 q 685 275 686 274 l 685 282 l 685 297 q 683 311 685 308 q 675 318 681 317 q 685 336 685 322 l 685 342 q 679 358 685 353 q 664 363 675 363 l 642 363 m 661 324 l 657 324 l 657 350 l 663 350 q 668 347 668 350 q 671 340 671 344 l 671 333 q 668 325 671 328 q 661 324 667 324 m 726 350 l 726 271 l 740 271 l 740 350 l 756 350 l 756 363 l 711 363 l 711 350 l 726 350 m 761 363 l 761 271 l 776 271 l 776 313 l 792 313 l 792 271 l 807 271 l 807 363 l 792 363 l 792 325 l 776 325 l 776 363 l 761 363 m 817 363 l 817 271 l 856 271 l 856 283 l 831 283 l 831 313 l 851 313 l 851 325 l 831 325 l 831 350 l 856 350 l 856 363 l 817 363 m 883 363 l 883 271 l 899 271 l 899 311 l 917 311 l 917 324 l 899 324 l 899 350 l 922 350 l 922 363 l 883 363 m 928 292 q 933 275 928 281 q 950 269 939 269 q 965 275 961 269 q 971 292 971 281 l 971 363 l 957 363 l 957 292 q 956 285 957 286 q 950 282 953 282 q 944 285 947 282 q 943 292 943 286 l 943 363 l 928 363 l 928 292 m 981 363 l 981 271 l 1019 271 l 1019 283 l 996 283 l 996 363 l 981 363 m 1025 363 l 1025 271 l 1064 271 l 1064 283 l 1040 283 l 1040 363 l 1025 363 m 88 238 l 72 146 l 86 146 l 89 164 l 104 164 l 107 146 l 122 146 l 107 238 l 88 238 m 103 176 l 90 176 l 96 222 l 97 222 l 103 176 m 128 238 l 128 146 l 142 146 l 142 213 l 158 146 l 174 146 l 174 238 l 161 238 l 161 182 l 146 238 l 128 238 m 183 238 l 183 146 l 206 146 q 222 151 217 146 q 228 168 228 157 l 228 215 q 222 232 228 226 q 206 238 217 238 l 183 238 m 206 158 l 199 158 l 199 225 l 206 225 q 211 222 208 225 q 213 215 213 221 l 213 168 q 211 161 213 163 q 206 158 208 158 m 261 150 q 278 144 267 144 q 293 150 289 144 q 299 167 299 156 l 299 179 l 285 179 l 285 165 q 278 157 285 157 q 271 165 271 157 l 271 218 q 278 226 271 226 q 285 218 285 226 l 285 207 l 299 207 l 299 217 q 293 233 299 228 q 278 239 289 239 q 261 233 267 239 q 256 217 256 225 l 256 167 q 261 150 256 158 m 311 150 q 328 144 317 144 q 344 150 339 144 q 350 167 350 156 l 350 217 q 344 233 350 228 q 328 239 339 239 q 311 233 317 239 q 306 217 306 225 l 306 167 q 311 150 306 158 m 336 167 q 328 157 336 157 q 321 167 321 157 l 321 217 q 328 226 321 226 q 336 217 336 226 l 336 167 m 358 238 l 358 146 l 372 146 l 372 215 l 382 146 l 394 146 l 406 215 l 406 146 l 419 146 l 419 238 l 399 238 l 389 172 l 379 238 l 358 238 m 429 238 l 429 146 l 442 146 l 442 215 l 453 146 l 465 146 l 475 215 l 476 215 l 476 146 l 489 146 l 489 238 l 469 238 l 460 172 l 450 238 l 429 238 m 500 238 l 500 146 l 539 146 l 539 158 l 514 158 l 514 188 l 535 188 l 535 200 l 514 200 l 514 225 l 539 225 l 539 238 l 500 238 m 547 238 l 547 146 l 561 146 l 561 185 l 567 185 q 574 182 572 185 q 575 174 575 181 l 575 157 l 575 150 q 576 146 576 149 l 592 146 q 590 150 590 147 l 590 157 l 590 172 q 588 186 590 181 q 581 193 585 190 q 590 211 590 197 l 590 217 q 585 233 590 225 q 568 238 578 238 l 547 238 m 567 199 l 561 199 l 561 225 l 568 225 q 574 222 571 225 q 575 215 575 221 l 575 208 q 574 200 575 201 q 567 199 572 199 m 604 150 q 619 144 608 144 q 636 150 631 144 q 642 167 642 158 l 642 179 l 628 179 l 628 165 q 619 157 628 157 q 613 165 613 157 l 613 218 q 619 226 613 226 q 628 218 628 226 l 628 207 l 642 207 l 642 217 q 636 233 642 225 q 619 239 631 239 q 604 233 608 239 q 599 217 599 228 l 599 167 q 604 150 599 156 m 649 238 l 649 146 l 664 146 l 664 238 l 649 238 m 685 238 l 669 146 l 683 146 l 686 164 l 703 164 l 704 146 l 719 146 l 704 238 l 685 238 m 700 176 l 688 176 l 693 222 l 694 222 l 700 176 m 725 238 l 725 146 l 764 146 l 764 158 l 740 158 l 740 238 l 725 238 m 786 238 l 800 146 l 819 146 l 833 238 l 821 238 l 811 167 l 801 238 l 786 238 m 840 238 l 840 146 l 879 146 l 879 158 l 854 158 l 854 188 l 875 188 l 875 200 l 854 200 l 854 225 l 879 225 l 879 238 l 840 238 m 888 238 l 888 146 l 901 146 l 901 185 l 907 185 q 914 182 913 185 q 915 174 915 181 l 915 157 q 917 150 915 151 l 917 146 l 932 146 q 931 150 932 147 l 931 157 l 931 172 q 928 186 931 181 q 921 193 925 190 q 931 211 931 197 l 931 217 q 925 233 931 228 q 908 238 921 238 l 888 238 m 907 199 l 901 199 l 901 225 l 908 225 q 914 222 911 225 q 915 215 915 221 l 915 208 q 914 200 915 201 q 907 199 913 199 m 943 150 q 958 144 947 144 q 975 150 969 144 q 981 168 981 156 q 976 183 981 175 q 964 197 975 189 q 958 203 961 200 q 954 208 956 207 q 951 217 951 214 q 960 226 951 226 q 964 224 964 226 q 967 217 967 221 l 967 213 l 981 213 l 981 217 q 975 233 981 225 q 958 239 969 239 q 943 233 949 239 q 938 217 938 228 q 940 201 938 210 q 953 188 943 197 q 958 184 956 186 q 961 180 960 182 q 964 176 963 178 q 965 167 965 174 q 964 160 965 161 q 958 157 961 157 q 951 167 951 157 l 951 172 l 938 172 l 938 167 q 943 150 938 156 m 988 238 l 988 146 l 1003 146 l 1003 238 l 988 238 m 1011 167 q 1017 150 1011 156 q 1033 144 1022 144 q 1050 150 1044 144 q 1056 167 1056 156 l 1056 217 q 1050 233 1056 228 q 1033 239 1044 239 q 1017 233 1022 239 q 1011 217 1011 228 l 1011 167 m 1040 167 q 1033 157 1040 157 q 1026 167 1026 157 l 1026 217 q 1033 226 1026 226 q 1040 217 1040 226 l 1040 167 m 1064 238 l 1064 146 l 1078 146 l 1078 213 l 1094 146 l 1110 146 l 1110 238 l 1097 238 l 1097 182 l 1083 238 l 1064 238 m 93 113 l 103 21 l 122 21 l 129 83 l 136 21 l 154 21 l 164 113 l 151 113 l 144 42 l 138 113 l 121 113 l 114 42 l 108 113 l 93 113 m 167 113 l 176 21 l 196 21 l 203 83 l 210 21 l 228 21 l 238 113 l 224 113 l 218 42 l 211 113 l 194 113 l 188 42 l 181 113 l 167 113 m 240 113 l 250 21 l 269 21 l 276 83 l 283 21 l 301 21 l 310 113 l 297 113 l 292 42 l 285 113 l 268 113 l 261 42 l 254 113 l 240 113 m 314 35 l 314 21 l 328 21 l 328 35 l 314 35 m 338 113 l 338 21 l 378 21 l 378 33 l 351 33 l 351 63 l 372 63 l 372 75 l 351 75 l 351 100 l 378 100 l 378 113 l 338 113 m 385 113 l 385 21 l 399 21 l 399 61 l 418 61 l 418 74 l 399 74 l 399 100 l 424 100 l 424 113 l 385 113 m 432 25 q 449 19 438 19 q 464 25 460 19 q 471 43 471 32 q 467 58 471 50 q 454 72 464 63 q 444 83 444 81 q 442 92 442 89 q 449 101 442 101 q 454 99 451 101 q 456 92 456 97 l 456 88 l 469 88 l 469 90 q 464 108 469 103 q 449 114 460 114 q 432 108 438 114 q 426 92 426 100 q 431 76 426 83 q 443 63 433 72 q 453 51 451 54 q 456 42 456 46 q 454 35 456 36 q 449 32 451 32 q 440 42 440 32 l 440 47 l 426 47 l 426 42 q 432 25 426 33 m 489 100 l 489 21 l 504 21 l 504 100 l 518 100 l 518 113 l 474 113 l 474 100 l 489 100 m 529 25 q 546 19 535 19 q 563 25 557 19 q 568 42 568 33 l 568 113 l 554 113 l 554 42 q 551 35 554 38 q 546 32 549 32 q 540 35 543 32 q 539 42 539 36 l 539 113 l 524 113 l 524 42 q 529 25 524 33 m 578 113 l 578 21 l 600 21 q 615 26 611 21 q 621 43 621 32 l 621 90 q 615 107 621 101 q 600 113 611 113 l 578 113 m 599 33 l 592 33 l 592 100 l 599 100 q 604 97 601 100 q 607 90 607 94 l 607 43 q 604 36 607 39 q 599 33 601 33 m 631 113 l 631 21 l 644 21 l 644 113 l 631 113 m 660 25 q 675 19 664 19 q 692 25 686 19 q 697 42 697 31 l 697 90 q 692 108 697 103 q 675 114 686 114 q 660 108 664 114 q 653 90 653 101 l 653 42 q 660 25 653 32 m 683 42 q 675 32 683 32 q 668 42 668 32 l 668 92 q 675 101 668 101 q 683 92 683 101 l 683 42 m 717 100 l 717 21 l 732 21 l 732 100 l 747 100 l 747 113 l 703 113 l 703 100 l 717 100 m 767 60 l 767 21 l 782 21 l 782 60 l 799 113 l 785 113 l 775 79 l 765 113 l 750 113 l 767 60 m 806 113 l 806 21 l 819 21 l 819 58 l 826 58 q 843 64 838 58 q 849 81 849 72 l 849 90 q 843 107 849 99 q 826 113 838 113 l 806 113 m 826 71 l 819 71 l 819 100 l 826 100 q 832 97 829 100 q 833 90 833 96 l 833 81 q 832 74 833 75 q 826 71 829 71 m 856 113 l 856 21 l 894 21 l 894 33 l 869 33 l 869 63 l 890 63 l 890 75 l 869 75 l 869 100 l 894 100 l 894 113 l 856 113 m 903 35 l 903 21 l 917 21 l 917 35 l 903 35 m 925 42 q 931 25 925 31 q 947 19 936 19 q 963 25 957 19 q 968 42 968 31 l 968 54 l 954 54 l 954 40 q 947 32 954 32 q 940 40 940 32 l 940 93 q 947 101 940 101 q 954 93 954 101 l 954 82 l 968 82 l 968 92 q 963 108 968 103 q 947 114 957 114 q 931 108 936 114 q 925 92 925 103 l 925 42 m 975 42 q 981 25 975 31 q 997 19 986 19 q 1014 25 1008 19 q 1019 42 1019 31 l 1019 90 q 1014 108 1019 103 q 997 114 1008 114 q 981 108 986 114 q 975 90 975 103 l 975 42 m 1004 42 q 997 32 1004 32 q 990 42 990 32 l 990 92 q 997 101 990 101 q 1004 92 1004 101 l 1004 42 m 1028 113 l 1028 21 l 1040 21 l 1040 90 l 1042 90 l 1051 21 l 1064 21 l 1075 90 l 1075 21 l 1089 21 l 1089 113 l 1068 113 l 1058 47 l 1049 113 l 1028 113 z "},"8":{"ha":1153,"x_min":58,"x_max":1124,"o":"m 58 944 l 58 700 l 97 700 l 97 800 l 115 800 q 158 815 144 800 q 172 860 172 829 l 172 885 q 158 929 172 915 q 115 944 144 944 l 58 944 m 115 835 l 97 835 l 97 910 l 115 910 q 129 904 125 910 q 135 886 135 899 l 135 858 q 129 840 135 846 q 115 835 125 835 m 193 944 l 193 700 l 299 700 l 299 735 l 232 735 l 232 810 l 285 810 l 285 846 l 232 846 l 232 910 l 299 910 l 299 944 l 193 944 m 321 944 l 321 700 l 360 700 l 360 806 l 372 806 q 392 799 385 806 q 397 775 397 790 l 397 731 l 397 711 q 400 700 397 708 l 439 700 q 436 713 436 708 q 435 729 435 717 l 435 772 q 429 807 435 796 q 410 825 424 821 q 435 874 435 836 l 435 889 q 421 931 435 918 q 378 944 408 944 l 321 944 m 374 840 l 360 840 l 360 910 l 376 910 q 392 904 388 910 q 396 885 396 897 l 396 865 q 390 846 396 851 q 374 840 385 840 m 469 713 q 513 696 483 696 q 556 713 539 696 q 569 758 569 728 q 561 799 569 782 q 528 838 549 818 q 501 865 508 854 q 494 890 494 876 q 514 914 494 914 q 528 907 524 914 q 533 889 533 901 l 533 876 l 569 876 l 569 886 q 556 932 569 915 q 514 949 542 949 q 471 932 486 949 q 456 888 456 917 q 465 849 456 867 q 499 811 475 832 q 525 783 513 799 q 532 756 532 769 q 526 738 532 746 q 511 732 522 732 q 492 756 492 732 l 492 772 l 456 772 l 456 758 q 469 713 456 728 m 604 713 q 647 696 619 696 q 692 713 675 696 q 706 758 706 728 l 706 886 q 692 932 706 918 q 647 949 675 949 q 604 932 619 949 q 589 886 589 917 l 589 758 q 604 713 589 731 m 668 756 q 647 732 668 732 q 628 756 628 732 l 628 889 q 647 914 628 914 q 668 889 668 914 l 668 756 m 732 944 l 732 700 l 767 700 l 767 879 l 813 700 l 853 700 l 853 944 l 818 944 l 818 799 l 781 944 l 732 944 m 911 944 l 871 700 l 907 700 l 914 747 l 958 747 l 958 749 l 965 700 l 1003 700 l 964 944 l 911 944 m 953 781 l 918 781 l 935 903 l 936 903 l 953 781 m 1022 944 l 1022 700 l 1124 700 l 1124 735 l 1060 735 l 1060 944 l 1022 944 m 74 433 q 117 417 88 417 q 158 433 144 417 q 174 478 174 449 l 174 665 l 136 665 l 136 475 q 131 457 136 463 q 117 451 125 451 q 103 457 108 451 q 97 475 97 463 l 97 665 l 58 665 l 58 478 q 74 433 58 449 m 208 433 q 251 417 224 417 q 294 433 281 417 q 308 479 308 447 q 300 519 308 503 q 267 557 289 536 q 240 586 250 572 q 233 610 233 597 q 253 633 233 633 q 267 628 263 633 q 272 610 272 619 l 272 597 l 308 597 l 308 607 q 294 653 308 635 q 253 669 281 669 q 210 653 225 669 q 194 608 194 635 q 204 569 194 585 q 238 532 214 553 q 264 504 251 519 q 271 476 271 490 q 265 458 271 464 q 250 451 261 451 q 231 475 231 451 l 231 493 l 194 493 l 194 478 q 208 433 194 447 m 331 665 l 331 421 l 436 421 l 436 456 l 369 456 l 369 531 l 422 531 l 422 565 l 369 565 l 369 631 l 436 631 l 436 665 l 331 665 m 526 433 q 569 417 542 417 q 613 433 597 417 q 628 478 628 447 l 628 607 q 613 653 628 638 q 569 669 597 669 q 526 653 542 669 q 511 607 511 635 l 511 478 q 526 433 511 449 m 589 476 q 569 451 589 451 q 550 476 550 451 l 550 610 q 569 633 550 633 q 589 610 589 633 l 589 476 m 654 665 l 654 421 l 689 421 l 689 599 l 735 421 l 775 421 l 775 665 l 740 665 l 740 518 l 703 665 l 654 665 m 803 665 l 803 421 l 906 421 l 906 456 l 842 456 l 842 665 l 803 665 m 928 525 l 928 421 l 967 421 l 967 525 l 1014 665 l 976 665 l 950 575 l 949 575 l 922 665 l 882 665 l 928 525 m 1033 563 l 1039 485 l 1068 485 l 1072 563 l 1072 665 l 1033 665 l 1033 563 m 1035 457 l 1035 421 l 1072 421 l 1072 457 l 1035 457 m 118 363 l 118 271 l 133 271 l 133 308 l 140 308 q 156 314 151 308 q 161 331 161 319 l 161 340 q 156 357 161 351 q 140 363 151 363 l 118 363 m 140 321 l 133 321 l 133 350 l 140 350 q 144 347 144 350 q 147 342 147 344 l 147 331 q 144 324 147 326 q 140 321 144 321 m 168 292 q 174 275 168 281 q 190 269 179 269 q 206 275 201 269 q 211 292 211 281 l 211 363 l 197 363 l 197 292 q 196 285 197 286 q 190 282 193 282 q 185 285 188 282 q 182 292 182 288 l 182 363 l 168 363 l 168 292 m 221 363 l 221 271 l 235 271 l 235 310 l 240 310 q 247 307 246 310 q 250 299 250 304 l 250 282 l 250 275 q 251 271 250 272 l 265 271 q 264 275 265 272 l 264 282 l 264 297 q 263 311 264 308 q 254 318 260 317 q 264 336 264 322 l 264 342 q 258 358 264 353 q 243 363 254 363 l 221 363 m 240 324 l 235 324 l 235 350 l 242 350 q 247 347 244 350 q 250 340 250 344 l 250 333 q 247 325 250 328 q 240 324 246 324 m 272 292 q 278 275 272 281 q 293 269 283 269 q 310 275 304 269 q 315 292 315 281 l 315 306 l 301 306 l 301 290 q 294 282 301 282 q 288 290 288 282 l 288 343 q 294 351 288 351 q 301 343 301 351 l 301 332 l 315 332 l 315 342 q 310 358 315 353 q 293 364 304 364 q 278 358 283 364 q 272 342 272 353 l 272 292 m 324 363 l 324 271 l 338 271 l 338 313 l 353 313 l 353 271 l 368 271 l 368 363 l 353 363 l 353 325 l 338 325 l 338 363 l 324 363 m 389 363 l 374 271 l 388 271 l 390 289 l 407 289 l 410 271 l 424 271 l 408 363 l 389 363 m 404 301 l 392 301 l 399 347 l 404 301 m 432 275 q 449 269 438 269 q 465 275 460 269 q 471 293 471 283 q 467 308 471 300 q 454 322 465 314 q 444 333 446 331 q 442 342 442 339 q 449 351 442 351 q 454 349 451 351 q 457 342 457 346 l 457 338 l 469 338 l 469 342 q 465 358 469 353 q 449 364 460 364 q 433 358 438 364 q 428 342 428 353 q 431 326 428 331 q 443 313 433 322 q 453 301 450 307 q 456 292 456 299 q 454 285 456 286 q 449 282 451 282 q 440 292 440 282 l 440 297 l 426 297 l 426 292 q 432 275 426 283 m 478 363 l 478 271 l 518 271 l 518 283 l 492 283 l 492 313 l 513 313 l 513 325 l 492 325 l 492 350 l 518 350 l 518 363 l 478 363 m 546 363 l 546 271 l 560 271 l 560 311 l 579 311 l 579 324 l 560 324 l 560 350 l 583 350 l 583 363 l 546 363 m 589 292 q 594 275 589 281 q 611 269 600 269 q 628 275 622 269 q 633 292 633 283 l 633 342 q 628 358 633 350 q 611 364 622 364 q 594 358 600 364 q 589 342 589 353 l 589 292 m 618 292 q 611 282 618 282 q 603 292 603 282 l 603 342 q 611 351 603 351 q 618 342 618 351 l 618 292 m 642 363 l 642 271 l 657 271 l 657 310 l 661 310 q 668 307 667 310 q 671 299 671 304 l 671 282 l 671 275 q 672 271 671 272 l 686 271 q 685 275 686 274 l 685 282 l 685 297 q 683 311 685 308 q 675 318 681 317 q 685 336 685 322 l 685 342 q 679 358 685 353 q 664 363 675 363 l 642 363 m 661 324 l 657 324 l 657 350 l 663 350 q 668 347 668 350 q 671 340 671 344 l 671 333 q 668 325 671 328 q 661 324 667 324 m 726 350 l 726 271 l 740 271 l 740 350 l 756 350 l 756 363 l 711 363 l 711 350 l 726 350 m 761 363 l 761 271 l 776 271 l 776 313 l 792 313 l 792 271 l 807 271 l 807 363 l 792 363 l 792 325 l 776 325 l 776 363 l 761 363 m 817 363 l 817 271 l 856 271 l 856 283 l 831 283 l 831 313 l 851 313 l 851 325 l 831 325 l 831 350 l 856 350 l 856 363 l 817 363 m 883 363 l 883 271 l 899 271 l 899 311 l 917 311 l 917 324 l 899 324 l 899 350 l 922 350 l 922 363 l 883 363 m 928 292 q 933 275 928 281 q 950 269 939 269 q 965 275 961 269 q 971 292 971 281 l 971 363 l 957 363 l 957 292 q 956 285 957 286 q 950 282 953 282 q 944 285 947 282 q 943 292 943 286 l 943 363 l 928 363 l 928 292 m 981 363 l 981 271 l 1019 271 l 1019 283 l 996 283 l 996 363 l 981 363 m 1025 363 l 1025 271 l 1064 271 l 1064 283 l 1040 283 l 1040 363 l 1025 363 m 88 238 l 72 146 l 86 146 l 89 164 l 104 164 l 107 146 l 122 146 l 107 238 l 88 238 m 103 176 l 90 176 l 96 222 l 97 222 l 103 176 m 128 238 l 128 146 l 142 146 l 142 213 l 158 146 l 174 146 l 174 238 l 161 238 l 161 182 l 146 238 l 128 238 m 183 238 l 183 146 l 206 146 q 222 151 217 146 q 228 168 228 157 l 228 215 q 222 232 228 226 q 206 238 217 238 l 183 238 m 206 158 l 199 158 l 199 225 l 206 225 q 211 222 208 225 q 213 215 213 221 l 213 168 q 211 161 213 163 q 206 158 208 158 m 261 150 q 278 144 267 144 q 293 150 289 144 q 299 167 299 156 l 299 179 l 285 179 l 285 165 q 278 157 285 157 q 271 165 271 157 l 271 218 q 278 226 271 226 q 285 218 285 226 l 285 207 l 299 207 l 299 217 q 293 233 299 228 q 278 239 289 239 q 261 233 267 239 q 256 217 256 225 l 256 167 q 261 150 256 158 m 311 150 q 328 144 317 144 q 344 150 339 144 q 350 167 350 156 l 350 217 q 344 233 350 228 q 328 239 339 239 q 311 233 317 239 q 306 217 306 225 l 306 167 q 311 150 306 158 m 336 167 q 328 157 336 157 q 321 167 321 157 l 321 217 q 328 226 321 226 q 336 217 336 226 l 336 167 m 358 238 l 358 146 l 372 146 l 372 215 l 382 146 l 394 146 l 406 215 l 406 146 l 419 146 l 419 238 l 399 238 l 389 172 l 379 238 l 358 238 m 429 238 l 429 146 l 442 146 l 442 215 l 453 146 l 465 146 l 475 215 l 476 215 l 476 146 l 489 146 l 489 238 l 469 238 l 460 172 l 450 238 l 429 238 m 500 238 l 500 146 l 539 146 l 539 158 l 514 158 l 514 188 l 535 188 l 535 200 l 514 200 l 514 225 l 539 225 l 539 238 l 500 238 m 547 238 l 547 146 l 561 146 l 561 185 l 567 185 q 574 182 572 185 q 575 174 575 181 l 575 157 l 575 150 q 576 146 576 149 l 592 146 q 590 150 590 147 l 590 157 l 590 172 q 588 186 590 181 q 581 193 585 190 q 590 211 590 197 l 590 217 q 585 233 590 225 q 568 238 578 238 l 547 238 m 567 199 l 561 199 l 561 225 l 568 225 q 574 222 571 225 q 575 215 575 221 l 575 208 q 574 200 575 201 q 567 199 572 199 m 604 150 q 619 144 608 144 q 636 150 631 144 q 642 167 642 158 l 642 179 l 628 179 l 628 165 q 619 157 628 157 q 613 165 613 157 l 613 218 q 619 226 613 226 q 628 218 628 226 l 628 207 l 642 207 l 642 217 q 636 233 642 225 q 619 239 631 239 q 604 233 608 239 q 599 217 599 228 l 599 167 q 604 150 599 156 m 649 238 l 649 146 l 664 146 l 664 238 l 649 238 m 685 238 l 669 146 l 683 146 l 686 164 l 703 164 l 704 146 l 719 146 l 704 238 l 685 238 m 700 176 l 688 176 l 693 222 l 694 222 l 700 176 m 725 238 l 725 146 l 764 146 l 764 158 l 740 158 l 740 238 l 725 238 m 786 238 l 800 146 l 819 146 l 833 238 l 821 238 l 811 167 l 801 238 l 786 238 m 840 238 l 840 146 l 879 146 l 879 158 l 854 158 l 854 188 l 875 188 l 875 200 l 854 200 l 854 225 l 879 225 l 879 238 l 840 238 m 888 238 l 888 146 l 901 146 l 901 185 l 907 185 q 914 182 913 185 q 915 174 915 181 l 915 157 q 917 150 915 151 l 917 146 l 932 146 q 931 150 932 147 l 931 157 l 931 172 q 928 186 931 181 q 921 193 925 190 q 931 211 931 197 l 931 217 q 925 233 931 228 q 908 238 921 238 l 888 238 m 907 199 l 901 199 l 901 225 l 908 225 q 914 222 911 225 q 915 215 915 221 l 915 208 q 914 200 915 201 q 907 199 913 199 m 943 150 q 958 144 947 144 q 975 150 969 144 q 981 168 981 156 q 976 183 981 175 q 964 197 975 189 q 958 203 961 200 q 954 208 956 207 q 951 217 951 214 q 960 226 951 226 q 964 224 964 226 q 967 217 967 221 l 967 213 l 981 213 l 981 217 q 975 233 981 225 q 958 239 969 239 q 943 233 949 239 q 938 217 938 228 q 940 201 938 210 q 953 188 943 197 q 958 184 956 186 q 961 180 960 182 q 964 176 963 178 q 965 167 965 174 q 964 160 965 161 q 958 157 961 157 q 951 167 951 157 l 951 172 l 938 172 l 938 167 q 943 150 938 156 m 988 238 l 988 146 l 1003 146 l 1003 238 l 988 238 m 1011 167 q 1017 150 1011 156 q 1033 144 1022 144 q 1050 150 1044 144 q 1056 167 1056 156 l 1056 217 q 1050 233 1056 228 q 1033 239 1044 239 q 1017 233 1022 239 q 1011 217 1011 228 l 1011 167 m 1040 167 q 1033 157 1040 157 q 1026 167 1026 157 l 1026 217 q 1033 226 1026 226 q 1040 217 1040 226 l 1040 167 m 1064 238 l 1064 146 l 1078 146 l 1078 213 l 1094 146 l 1110 146 l 1110 238 l 1097 238 l 1097 182 l 1083 238 l 1064 238 m 93 113 l 103 21 l 122 21 l 129 83 l 136 21 l 154 21 l 164 113 l 151 113 l 144 42 l 138 113 l 121 113 l 114 42 l 108 113 l 93 113 m 167 113 l 176 21 l 196 21 l 203 83 l 210 21 l 228 21 l 238 113 l 224 113 l 218 42 l 211 113 l 194 113 l 188 42 l 181 113 l 167 113 m 240 113 l 250 21 l 269 21 l 276 83 l 283 21 l 301 21 l 310 113 l 297 113 l 292 42 l 285 113 l 268 113 l 261 42 l 254 113 l 240 113 m 314 35 l 314 21 l 328 21 l 328 35 l 314 35 m 338 113 l 338 21 l 378 21 l 378 33 l 351 33 l 351 63 l 372 63 l 372 75 l 351 75 l 351 100 l 378 100 l 378 113 l 338 113 m 385 113 l 385 21 l 399 21 l 399 61 l 418 61 l 418 74 l 399 74 l 399 100 l 424 100 l 424 113 l 385 113 m 432 25 q 449 19 438 19 q 464 25 460 19 q 471 43 471 32 q 467 58 471 50 q 454 72 464 63 q 444 83 444 81 q 442 92 442 89 q 449 101 442 101 q 454 99 451 101 q 456 92 456 97 l 456 88 l 469 88 l 469 90 q 464 108 469 103 q 449 114 460 114 q 432 108 438 114 q 426 92 426 100 q 431 76 426 83 q 443 63 433 72 q 453 51 451 54 q 456 42 456 46 q 454 35 456 36 q 449 32 451 32 q 440 42 440 32 l 440 47 l 426 47 l 426 42 q 432 25 426 33 m 489 100 l 489 21 l 504 21 l 504 100 l 518 100 l 518 113 l 474 113 l 474 100 l 489 100 m 529 25 q 546 19 535 19 q 563 25 557 19 q 568 42 568 33 l 568 113 l 554 113 l 554 42 q 551 35 554 38 q 546 32 549 32 q 540 35 543 32 q 539 42 539 36 l 539 113 l 524 113 l 524 42 q 529 25 524 33 m 578 113 l 578 21 l 600 21 q 615 26 611 21 q 621 43 621 32 l 621 90 q 615 107 621 101 q 600 113 611 113 l 578 113 m 599 33 l 592 33 l 592 100 l 599 100 q 604 97 601 100 q 607 90 607 94 l 607 43 q 604 36 607 39 q 599 33 601 33 m 631 113 l 631 21 l 644 21 l 644 113 l 631 113 m 660 25 q 675 19 664 19 q 692 25 686 19 q 697 42 697 31 l 697 90 q 692 108 697 103 q 675 114 686 114 q 660 108 664 114 q 653 90 653 101 l 653 42 q 660 25 653 32 m 683 42 q 675 32 683 32 q 668 42 668 32 l 668 92 q 675 101 668 101 q 683 92 683 101 l 683 42 m 717 100 l 717 21 l 732 21 l 732 100 l 747 100 l 747 113 l 703 113 l 703 100 l 717 100 m 767 60 l 767 21 l 782 21 l 782 60 l 799 113 l 785 113 l 775 79 l 765 113 l 750 113 l 767 60 m 806 113 l 806 21 l 819 21 l 819 58 l 826 58 q 843 64 838 58 q 849 81 849 72 l 849 90 q 843 107 849 99 q 826 113 838 113 l 806 113 m 826 71 l 819 71 l 819 100 l 826 100 q 832 97 829 100 q 833 90 833 96 l 833 81 q 832 74 833 75 q 826 71 829 71 m 856 113 l 856 21 l 894 21 l 894 33 l 869 33 l 869 63 l 890 63 l 890 75 l 869 75 l 869 100 l 894 100 l 894 113 l 856 113 m 903 35 l 903 21 l 917 21 l 917 35 l 903 35 m 925 42 q 931 25 925 31 q 947 19 936 19 q 963 25 957 19 q 968 42 968 31 l 968 54 l 954 54 l 954 40 q 947 32 954 32 q 940 40 940 32 l 940 93 q 947 101 940 101 q 954 93 954 101 l 954 82 l 968 82 l 968 92 q 963 108 968 103 q 947 114 957 114 q 931 108 936 114 q 925 92 925 103 l 925 42 m 975 42 q 981 25 975 31 q 997 19 986 19 q 1014 25 1008 19 q 1019 42 1019 31 l 1019 90 q 1014 108 1019 103 q 997 114 1008 114 q 981 108 986 114 q 975 90 975 103 l 975 42 m 1004 42 q 997 32 1004 32 q 990 42 990 32 l 990 92 q 997 101 990 101 q 1004 92 1004 101 l 1004 42 m 1028 113 l 1028 21 l 1040 21 l 1040 90 l 1042 90 l 1051 21 l 1064 21 l 1075 90 l 1075 21 l 1089 21 l 1089 113 l 1068 113 l 1058 47 l 1049 113 l 1028 113 z "},"9":{"ha":1153,"x_min":58,"x_max":1124,"o":"m 58 944 l 58 700 l 97 700 l 97 800 l 115 800 q 158 815 144 800 q 172 860 172 829 l 172 885 q 158 929 172 915 q 115 944 144 944 l 58 944 m 115 835 l 97 835 l 97 910 l 115 910 q 129 904 125 910 q 135 886 135 899 l 135 858 q 129 840 135 846 q 115 835 125 835 m 193 944 l 193 700 l 299 700 l 299 735 l 232 735 l 232 810 l 285 810 l 285 846 l 232 846 l 232 910 l 299 910 l 299 944 l 193 944 m 321 944 l 321 700 l 360 700 l 360 806 l 372 806 q 392 799 385 806 q 397 775 397 790 l 397 731 l 397 711 q 400 700 397 708 l 439 700 q 436 713 436 708 q 435 729 435 717 l 435 772 q 429 807 435 796 q 410 825 424 821 q 435 874 435 836 l 435 889 q 421 931 435 918 q 378 944 408 944 l 321 944 m 374 840 l 360 840 l 360 910 l 376 910 q 392 904 388 910 q 396 885 396 897 l 396 865 q 390 846 396 851 q 374 840 385 840 m 469 713 q 513 696 483 696 q 556 713 539 696 q 569 758 569 728 q 561 799 569 782 q 528 838 549 818 q 501 865 508 854 q 494 890 494 876 q 514 914 494 914 q 528 907 524 914 q 533 889 533 901 l 533 876 l 569 876 l 569 886 q 556 932 569 915 q 514 949 542 949 q 471 932 486 949 q 456 888 456 917 q 465 849 456 867 q 499 811 475 832 q 525 783 513 799 q 532 756 532 769 q 526 738 532 746 q 511 732 522 732 q 492 756 492 732 l 492 772 l 456 772 l 456 758 q 469 713 456 728 m 604 713 q 647 696 619 696 q 692 713 675 696 q 706 758 706 728 l 706 886 q 692 932 706 918 q 647 949 675 949 q 604 932 619 949 q 589 886 589 917 l 589 758 q 604 713 589 731 m 668 756 q 647 732 668 732 q 628 756 628 732 l 628 889 q 647 914 628 914 q 668 889 668 914 l 668 756 m 732 944 l 732 700 l 767 700 l 767 879 l 813 700 l 853 700 l 853 944 l 818 944 l 818 799 l 781 944 l 732 944 m 911 944 l 871 700 l 907 700 l 914 747 l 958 747 l 958 749 l 965 700 l 1003 700 l 964 944 l 911 944 m 953 781 l 918 781 l 935 903 l 936 903 l 953 781 m 1022 944 l 1022 700 l 1124 700 l 1124 735 l 1060 735 l 1060 944 l 1022 944 m 74 433 q 117 417 88 417 q 158 433 144 417 q 174 478 174 449 l 174 665 l 136 665 l 136 475 q 131 457 136 463 q 117 451 125 451 q 103 457 108 451 q 97 475 97 463 l 97 665 l 58 665 l 58 478 q 74 433 58 449 m 208 433 q 251 417 224 417 q 294 433 281 417 q 308 479 308 447 q 300 519 308 503 q 267 557 289 536 q 240 586 250 572 q 233 610 233 597 q 253 633 233 633 q 267 628 263 633 q 272 610 272 619 l 272 597 l 308 597 l 308 607 q 294 653 308 635 q 253 669 281 669 q 210 653 225 669 q 194 608 194 635 q 204 569 194 585 q 238 532 214 553 q 264 504 251 519 q 271 476 271 490 q 265 458 271 464 q 250 451 261 451 q 231 475 231 451 l 231 493 l 194 493 l 194 478 q 208 433 194 447 m 331 665 l 331 421 l 436 421 l 436 456 l 369 456 l 369 531 l 422 531 l 422 565 l 369 565 l 369 631 l 436 631 l 436 665 l 331 665 m 526 433 q 569 417 542 417 q 613 433 597 417 q 628 478 628 447 l 628 607 q 613 653 628 638 q 569 669 597 669 q 526 653 542 669 q 511 607 511 635 l 511 478 q 526 433 511 449 m 589 476 q 569 451 589 451 q 550 476 550 451 l 550 610 q 569 633 550 633 q 589 610 589 633 l 589 476 m 654 665 l 654 421 l 689 421 l 689 599 l 735 421 l 775 421 l 775 665 l 740 665 l 740 518 l 703 665 l 654 665 m 803 665 l 803 421 l 906 421 l 906 456 l 842 456 l 842 665 l 803 665 m 928 525 l 928 421 l 967 421 l 967 525 l 1014 665 l 976 665 l 950 575 l 949 575 l 922 665 l 882 665 l 928 525 m 1033 563 l 1039 485 l 1068 485 l 1072 563 l 1072 665 l 1033 665 l 1033 563 m 1035 457 l 1035 421 l 1072 421 l 1072 457 l 1035 457 m 118 363 l 118 271 l 133 271 l 133 308 l 140 308 q 156 314 151 308 q 161 331 161 319 l 161 340 q 156 357 161 351 q 140 363 151 363 l 118 363 m 140 321 l 133 321 l 133 350 l 140 350 q 144 347 144 350 q 147 342 147 344 l 147 331 q 144 324 147 326 q 140 321 144 321 m 168 292 q 174 275 168 281 q 190 269 179 269 q 206 275 201 269 q 211 292 211 281 l 211 363 l 197 363 l 197 292 q 196 285 197 286 q 190 282 193 282 q 185 285 188 282 q 182 292 182 288 l 182 363 l 168 363 l 168 292 m 221 363 l 221 271 l 235 271 l 235 310 l 240 310 q 247 307 246 310 q 250 299 250 304 l 250 282 l 250 275 q 251 271 250 272 l 265 271 q 264 275 265 272 l 264 282 l 264 297 q 263 311 264 308 q 254 318 260 317 q 264 336 264 322 l 264 342 q 258 358 264 353 q 243 363 254 363 l 221 363 m 240 324 l 235 324 l 235 350 l 242 350 q 247 347 244 350 q 250 340 250 344 l 250 333 q 247 325 250 328 q 240 324 246 324 m 272 292 q 278 275 272 281 q 293 269 283 269 q 310 275 304 269 q 315 292 315 281 l 315 306 l 301 306 l 301 290 q 294 282 301 282 q 288 290 288 282 l 288 343 q 294 351 288 351 q 301 343 301 351 l 301 332 l 315 332 l 315 342 q 310 358 315 353 q 293 364 304 364 q 278 358 283 364 q 272 342 272 353 l 272 292 m 324 363 l 324 271 l 338 271 l 338 313 l 353 313 l 353 271 l 368 271 l 368 363 l 353 363 l 353 325 l 338 325 l 338 363 l 324 363 m 389 363 l 374 271 l 388 271 l 390 289 l 407 289 l 410 271 l 424 271 l 408 363 l 389 363 m 404 301 l 392 301 l 399 347 l 404 301 m 432 275 q 449 269 438 269 q 465 275 460 269 q 471 293 471 283 q 467 308 471 300 q 454 322 465 314 q 444 333 446 331 q 442 342 442 339 q 449 351 442 351 q 454 349 451 351 q 457 342 457 346 l 457 338 l 469 338 l 469 342 q 465 358 469 353 q 449 364 460 364 q 433 358 438 364 q 428 342 428 353 q 431 326 428 331 q 443 313 433 322 q 453 301 450 307 q 456 292 456 299 q 454 285 456 286 q 449 282 451 282 q 440 292 440 282 l 440 297 l 426 297 l 426 292 q 432 275 426 283 m 478 363 l 478 271 l 518 271 l 518 283 l 492 283 l 492 313 l 513 313 l 513 325 l 492 325 l 492 350 l 518 350 l 518 363 l 478 363 m 546 363 l 546 271 l 560 271 l 560 311 l 579 311 l 579 324 l 560 324 l 560 350 l 583 350 l 583 363 l 546 363 m 589 292 q 594 275 589 281 q 611 269 600 269 q 628 275 622 269 q 633 292 633 283 l 633 342 q 628 358 633 350 q 611 364 622 364 q 594 358 600 364 q 589 342 589 353 l 589 292 m 618 292 q 611 282 618 282 q 603 292 603 282 l 603 342 q 611 351 603 351 q 618 342 618 351 l 618 292 m 642 363 l 642 271 l 657 271 l 657 310 l 661 310 q 668 307 667 310 q 671 299 671 304 l 671 282 l 671 275 q 672 271 671 272 l 686 271 q 685 275 686 274 l 685 282 l 685 297 q 683 311 685 308 q 675 318 681 317 q 685 336 685 322 l 685 342 q 679 358 685 353 q 664 363 675 363 l 642 363 m 661 324 l 657 324 l 657 350 l 663 350 q 668 347 668 350 q 671 340 671 344 l 671 333 q 668 325 671 328 q 661 324 667 324 m 726 350 l 726 271 l 740 271 l 740 350 l 756 350 l 756 363 l 711 363 l 711 350 l 726 350 m 761 363 l 761 271 l 776 271 l 776 313 l 792 313 l 792 271 l 807 271 l 807 363 l 792 363 l 792 325 l 776 325 l 776 363 l 761 363 m 817 363 l 817 271 l 856 271 l 856 283 l 831 283 l 831 313 l 851 313 l 851 325 l 831 325 l 831 350 l 856 350 l 856 363 l 817 363 m 883 363 l 883 271 l 899 271 l 899 311 l 917 311 l 917 324 l 899 324 l 899 350 l 922 350 l 922 363 l 883 363 m 928 292 q 933 275 928 281 q 950 269 939 269 q 965 275 961 269 q 971 292 971 281 l 971 363 l 957 363 l 957 292 q 956 285 957 286 q 950 282 953 282 q 944 285 947 282 q 943 292 943 286 l 943 363 l 928 363 l 928 292 m 981 363 l 981 271 l 1019 271 l 1019 283 l 996 283 l 996 363 l 981 363 m 1025 363 l 1025 271 l 1064 271 l 1064 283 l 1040 283 l 1040 363 l 1025 363 m 88 238 l 72 146 l 86 146 l 89 164 l 104 164 l 107 146 l 122 146 l 107 238 l 88 238 m 103 176 l 90 176 l 96 222 l 97 222 l 103 176 m 128 238 l 128 146 l 142 146 l 142 213 l 158 146 l 174 146 l 174 238 l 161 238 l 161 182 l 146 238 l 128 238 m 183 238 l 183 146 l 206 146 q 222 151 217 146 q 228 168 228 157 l 228 215 q 222 232 228 226 q 206 238 217 238 l 183 238 m 206 158 l 199 158 l 199 225 l 206 225 q 211 222 208 225 q 213 215 213 221 l 213 168 q 211 161 213 163 q 206 158 208 158 m 261 150 q 278 144 267 144 q 293 150 289 144 q 299 167 299 156 l 299 179 l 285 179 l 285 165 q 278 157 285 157 q 271 165 271 157 l 271 218 q 278 226 271 226 q 285 218 285 226 l 285 207 l 299 207 l 299 217 q 293 233 299 228 q 278 239 289 239 q 261 233 267 239 q 256 217 256 225 l 256 167 q 261 150 256 158 m 311 150 q 328 144 317 144 q 344 150 339 144 q 350 167 350 156 l 350 217 q 344 233 350 228 q 328 239 339 239 q 311 233 317 239 q 306 217 306 225 l 306 167 q 311 150 306 158 m 336 167 q 328 157 336 157 q 321 167 321 157 l 321 217 q 328 226 321 226 q 336 217 336 226 l 336 167 m 358 238 l 358 146 l 372 146 l 372 215 l 382 146 l 394 146 l 406 215 l 406 146 l 419 146 l 419 238 l 399 238 l 389 172 l 379 238 l 358 238 m 429 238 l 429 146 l 442 146 l 442 215 l 453 146 l 465 146 l 475 215 l 476 215 l 476 146 l 489 146 l 489 238 l 469 238 l 460 172 l 450 238 l 429 238 m 500 238 l 500 146 l 539 146 l 539 158 l 514 158 l 514 188 l 535 188 l 535 200 l 514 200 l 514 225 l 539 225 l 539 238 l 500 238 m 547 238 l 547 146 l 561 146 l 561 185 l 567 185 q 574 182 572 185 q 575 174 575 181 l 575 157 l 575 150 q 576 146 576 149 l 592 146 q 590 150 590 147 l 590 157 l 590 172 q 588 186 590 181 q 581 193 585 190 q 590 211 590 197 l 590 217 q 585 233 590 225 q 568 238 578 238 l 547 238 m 567 199 l 561 199 l 561 225 l 568 225 q 574 222 571 225 q 575 215 575 221 l 575 208 q 574 200 575 201 q 567 199 572 199 m 604 150 q 619 144 608 144 q 636 150 631 144 q 642 167 642 158 l 642 179 l 628 179 l 628 165 q 619 157 628 157 q 613 165 613 157 l 613 218 q 619 226 613 226 q 628 218 628 226 l 628 207 l 642 207 l 642 217 q 636 233 642 225 q 619 239 631 239 q 604 233 608 239 q 599 217 599 228 l 599 167 q 604 150 599 156 m 649 238 l 649 146 l 664 146 l 664 238 l 649 238 m 685 238 l 669 146 l 683 146 l 686 164 l 703 164 l 704 146 l 719 146 l 704 238 l 685 238 m 700 176 l 688 176 l 693 222 l 694 222 l 700 176 m 725 238 l 725 146 l 764 146 l 764 158 l 740 158 l 740 238 l 725 238 m 786 238 l 800 146 l 819 146 l 833 238 l 821 238 l 811 167 l 801 238 l 786 238 m 840 238 l 840 146 l 879 146 l 879 158 l 854 158 l 854 188 l 875 188 l 875 200 l 854 200 l 854 225 l 879 225 l 879 238 l 840 238 m 888 238 l 888 146 l 901 146 l 901 185 l 907 185 q 914 182 913 185 q 915 174 915 181 l 915 157 q 917 150 915 151 l 917 146 l 932 146 q 931 150 932 147 l 931 157 l 931 172 q 928 186 931 181 q 921 193 925 190 q 931 211 931 197 l 931 217 q 925 233 931 228 q 908 238 921 238 l 888 238 m 907 199 l 901 199 l 901 225 l 908 225 q 914 222 911 225 q 915 215 915 221 l 915 208 q 914 200 915 201 q 907 199 913 199 m 943 150 q 958 144 947 144 q 975 150 969 144 q 981 168 981 156 q 976 183 981 175 q 964 197 975 189 q 958 203 961 200 q 954 208 956 207 q 951 217 951 214 q 960 226 951 226 q 964 224 964 226 q 967 217 967 221 l 967 213 l 981 213 l 981 217 q 975 233 981 225 q 958 239 969 239 q 943 233 949 239 q 938 217 938 228 q 940 201 938 210 q 953 188 943 197 q 958 184 956 186 q 961 180 960 182 q 964 176 963 178 q 965 167 965 174 q 964 160 965 161 q 958 157 961 157 q 951 167 951 157 l 951 172 l 938 172 l 938 167 q 943 150 938 156 m 988 238 l 988 146 l 1003 146 l 1003 238 l 988 238 m 1011 167 q 1017 150 1011 156 q 1033 144 1022 144 q 1050 150 1044 144 q 1056 167 1056 156 l 1056 217 q 1050 233 1056 228 q 1033 239 1044 239 q 1017 233 1022 239 q 1011 217 1011 228 l 1011 167 m 1040 167 q 1033 157 1040 157 q 1026 167 1026 157 l 1026 217 q 1033 226 1026 226 q 1040 217 1040 226 l 1040 167 m 1064 238 l 1064 146 l 1078 146 l 1078 213 l 1094 146 l 1110 146 l 1110 238 l 1097 238 l 1097 182 l 1083 238 l 1064 238 m 93 113 l 103 21 l 122 21 l 129 83 l 136 21 l 154 21 l 164 113 l 151 113 l 144 42 l 138 113 l 121 113 l 114 42 l 108 113 l 93 113 m 167 113 l 176 21 l 196 21 l 203 83 l 210 21 l 228 21 l 238 113 l 224 113 l 218 42 l 211 113 l 194 113 l 188 42 l 181 113 l 167 113 m 240 113 l 250 21 l 269 21 l 276 83 l 283 21 l 301 21 l 310 113 l 297 113 l 292 42 l 285 113 l 268 113 l 261 42 l 254 113 l 240 113 m 314 35 l 314 21 l 328 21 l 328 35 l 314 35 m 338 113 l 338 21 l 378 21 l 378 33 l 351 33 l 351 63 l 372 63 l 372 75 l 351 75 l 351 100 l 378 100 l 378 113 l 338 113 m 385 113 l 385 21 l 399 21 l 399 61 l 418 61 l 418 74 l 399 74 l 399 100 l 424 100 l 424 113 l 385 113 m 432 25 q 449 19 438 19 q 464 25 460 19 q 471 43 471 32 q 467 58 471 50 q 454 72 464 63 q 444 83 444 81 q 442 92 442 89 q 449 101 442 101 q 454 99 451 101 q 456 92 456 97 l 456 88 l 469 88 l 469 90 q 464 108 469 103 q 449 114 460 114 q 432 108 438 114 q 426 92 426 100 q 431 76 426 83 q 443 63 433 72 q 453 51 451 54 q 456 42 456 46 q 454 35 456 36 q 449 32 451 32 q 440 42 440 32 l 440 47 l 426 47 l 426 42 q 432 25 426 33 m 489 100 l 489 21 l 504 21 l 504 100 l 518 100 l 518 113 l 474 113 l 474 100 l 489 100 m 529 25 q 546 19 535 19 q 563 25 557 19 q 568 42 568 33 l 568 113 l 554 113 l 554 42 q 551 35 554 38 q 546 32 549 32 q 540 35 543 32 q 539 42 539 36 l 539 113 l 524 113 l 524 42 q 529 25 524 33 m 578 113 l 578 21 l 600 21 q 615 26 611 21 q 621 43 621 32 l 621 90 q 615 107 621 101 q 600 113 611 113 l 578 113 m 599 33 l 592 33 l 592 100 l 599 100 q 604 97 601 100 q 607 90 607 94 l 607 43 q 604 36 607 39 q 599 33 601 33 m 631 113 l 631 21 l 644 21 l 644 113 l 631 113 m 660 25 q 675 19 664 19 q 692 25 686 19 q 697 42 697 31 l 697 90 q 692 108 697 103 q 675 114 686 114 q 660 108 664 114 q 653 90 653 101 l 653 42 q 660 25 653 32 m 683 42 q 675 32 683 32 q 668 42 668 32 l 668 92 q 675 101 668 101 q 683 92 683 101 l 683 42 m 717 100 l 717 21 l 732 21 l 732 100 l 747 100 l 747 113 l 703 113 l 703 100 l 717 100 m 767 60 l 767 21 l 782 21 l 782 60 l 799 113 l 785 113 l 775 79 l 765 113 l 750 113 l 767 60 m 806 113 l 806 21 l 819 21 l 819 58 l 826 58 q 843 64 838 58 q 849 81 849 72 l 849 90 q 843 107 849 99 q 826 113 838 113 l 806 113 m 826 71 l 819 71 l 819 100 l 826 100 q 832 97 829 100 q 833 90 833 96 l 833 81 q 832 74 833 75 q 826 71 829 71 m 856 113 l 856 21 l 894 21 l 894 33 l 869 33 l 869 63 l 890 63 l 890 75 l 869 75 l 869 100 l 894 100 l 894 113 l 856 113 m 903 35 l 903 21 l 917 21 l 917 35 l 903 35 m 925 42 q 931 25 925 31 q 947 19 936 19 q 963 25 957 19 q 968 42 968 31 l 968 54 l 954 54 l 954 40 q 947 32 954 32 q 940 40 940 32 l 940 93 q 947 101 940 101 q 954 93 954 101 l 954 82 l 968 82 l 968 92 q 963 108 968 103 q 947 114 957 114 q 931 108 936 114 q 925 92 925 103 l 925 42 m 975 42 q 981 25 975 31 q 997 19 986 19 q 1014 25 1008 19 q 1019 42 1019 31 l 1019 90 q 1014 108 1019 103 q 997 114 1008 114 q 981 108 986 114 q 975 90 975 103 l 975 42 m 1004 42 q 997 32 1004 32 q 990 42 990 32 l 990 92 q 997 101 990 101 q 1004 92 1004 101 l 1004 42 m 1028 113 l 1028 21 l 1040 21 l 1040 90 l 1042 90 l 1051 21 l 1064 21 l 1075 90 l 1075 21 l 1089 21 l 1089 113 l 1068 113 l 1058 47 l 1049 113 l 1028 113 z "},"":{"ha":694,"x_min":0,"x_max":0,"o":""},"":{"ha":694,"x_min":0,"x_max":0,"o":""},"":{"ha":694,"x_min":0,"x_max":0,"o":""},"":{"ha":694,"x_min":0,"x_max":0,"o":""},"":{"ha":694,"x_min":0,"x_max":0,"o":""},"":{"ha":694,"x_min":0,"x_max":0,"o":""},"":{"ha":694,"x_min":0,"x_max":0,"o":""},"":{"ha":694,"x_min":0,"x_max":0,"o":""},"":{"ha":694,"x_min":0,"x_max":0,"o":""},"":{"ha":694,"x_min":0,"x_max":0,"o":""},"":{"ha":694,"x_min":0,"x_max":0,"o":""},"":{"ha":694,"x_min":0,"x_max":0,"o":""},"":{"ha":694,"x_min":0,"x_max":0,"o":""},"":{"ha":694,"x_min":0,"x_max":0,"o":""},"":{"ha":694,"x_min":0,"x_max":0,"o":""},"\u0000":{"ha":0,"x_min":0,"x_max":0,"o":""},"\u001d":{"ha":0,"x_min":0,"x_max":0,"o":""}," ":{"ha":264,"x_min":0,"x_max":0,"o":""},"":{"ha":264,"x_min":0,"x_max":0,"o":""},"!":{"ha":317,"x_min":24,"x_max":346,"o":"m 143 211 q 101 222 121 211 q 78 250 81 232 l 76 268 q 124 494 76 342 q 210 721 172 646 q 246 736 217 736 q 312 720 278 736 q 346 686 346 704 q 343 676 346 682 q 245 460 299 603 q 172 224 192 317 q 143 211 169 211 m 89 -12 l 82 -12 q 44 -3 63 -12 q 25 21 26 6 l 24 36 q 42 131 24 85 q 79 150 43 150 q 127 140 104 150 q 150 115 150 129 l 149 111 q 133 19 133 63 l 133 11 q 117 -3 133 4 q 89 -12 101 -11 z "},"\"":{"ha":326,"x_min":96,"x_max":335,"o":"m 136 643 l 128 643 q 96 664 96 646 l 97 665 q 115 731 101 686 q 132 796 128 775 q 168 815 138 815 l 175 815 q 203 808 190 815 q 217 789 217 801 l 215 786 q 191 716 213 765 q 151 647 169 667 q 136 643 150 643 m 254 642 l 247 642 q 215 661 215 644 l 215 664 q 231 724 218 678 q 250 794 244 769 q 288 814 256 814 l 294 814 q 303 813 297 814 q 312 810 308 811 q 320 806 315 808 q 328 802 325 804 q 333 797 331 800 q 335 789 335 793 l 335 788 q 312 716 335 767 q 271 646 289 665 q 254 642 267 642 z "},"#":{"ha":665,"x_min":40,"x_max":621,"o":"m 382 29 l 369 29 q 296 61 304 29 l 294 74 q 314 178 294 107 l 247 179 q 217 44 219 83 q 203 29 217 29 l 190 29 q 114 61 122 29 l 113 75 q 132 181 113 107 q 84 181 110 181 q 56 182 58 182 q 40 208 40 182 q 61 269 40 242 q 85 292 75 292 l 164 289 l 185 354 l 106 356 q 89 375 89 356 q 115 449 89 414 q 131 463 122 461 l 143 464 q 185 462 156 464 q 221 460 215 460 q 264 575 246 533 q 292 590 269 588 l 297 590 q 356 575 329 590 q 372 553 372 563 l 371 547 l 336 457 l 410 454 q 454 575 438 532 q 486 590 461 590 l 492 590 q 547 569 526 588 q 557 553 557 560 l 556 546 l 521 453 l 606 451 q 621 438 621 451 l 619 431 q 589 360 610 386 q 572 350 581 350 l 539 349 l 483 350 q 458 276 463 289 l 531 276 q 546 261 546 274 l 546 258 q 522 190 539 218 q 506 172 514 172 l 426 174 q 397 44 397 69 q 382 29 397 29 m 350 286 q 371 354 353 299 l 301 356 l 279 289 l 350 286 z "},"$":{"ha":626,"x_min":58,"x_max":593,"o":"m 246 -32 l 239 -32 q 197 -19 213 -32 q 186 -3 186 -11 l 186 -1 l 197 51 q 109 77 150 53 q 58 143 68 101 l 58 149 q 93 190 58 179 l 97 190 q 107 182 106 190 q 219 143 110 143 q 242 219 226 167 q 268 313 257 272 q 157 472 157 379 q 172 542 157 507 q 257 638 199 601 q 383 683 315 674 q 415 783 413 778 q 435 797 419 794 l 447 799 q 481 793 464 799 q 494 778 494 789 l 493 772 q 479 726 490 767 q 467 683 468 686 q 562 640 531 678 q 593 547 593 601 q 566 451 593 496 q 499 394 539 406 l 494 394 q 447 419 475 394 q 414 467 419 444 l 414 474 q 431 496 414 492 q 471 518 457 499 q 494 574 494 553 q 446 608 494 607 l 369 346 q 476 217 476 288 q 472 188 476 203 q 283 53 442 78 l 265 -21 q 246 -32 264 -29 m 311 150 q 364 215 351 164 q 365 231 365 221 q 349 281 365 257 l 311 150 m 293 386 l 356 599 q 306 550 329 583 q 274 481 283 517 q 268 443 268 456 q 293 386 268 406 z "},"%":{"ha":756,"x_min":50,"x_max":668,"o":"m 392 4 q 338 27 358 6 q 317 83 318 49 l 317 86 q 408 297 317 181 q 582 414 499 414 l 590 414 q 658 335 658 406 q 565 123 658 242 q 392 4 472 4 m 400 82 l 407 83 q 502 190 435 94 q 588 333 569 286 l 588 338 q 582 347 588 347 q 572 344 581 347 q 470 232 529 317 q 393 97 411 147 l 393 92 q 400 82 393 82 m 136 385 l 135 385 q 81 407 101 385 q 60 464 61 429 l 60 468 q 151 678 60 563 q 325 793 242 793 l 333 793 q 401 715 401 788 q 309 503 401 622 q 136 385 217 385 m 144 456 l 151 457 q 247 573 179 474 q 333 721 314 672 l 335 726 q 328 735 335 735 l 318 732 q 212 611 271 699 q 138 469 153 524 l 138 465 q 144 456 138 456 m 96 15 q 65 47 79 15 q 50 100 50 78 l 51 107 q 303 428 69 164 q 613 744 536 692 q 628 749 619 749 q 668 658 668 749 q 663 644 668 649 q 107 21 428 425 q 96 15 103 15 z "},"&":{"ha":757,"x_min":47,"x_max":628,"o":"m 497 -28 q 388 14 436 -28 q 236 -28 314 -28 q 194 -26 210 -28 q 89 28 131 -21 q 47 144 47 76 q 107 292 47 222 q 235 408 149 339 l 235 443 q 301 735 235 643 q 450 808 353 808 q 524 796 489 808 q 626 643 626 761 l 625 608 q 383 333 606 504 q 419 197 393 276 q 517 372 517 307 q 511 400 517 389 l 507 413 l 508 419 q 524 428 513 428 q 540 422 531 428 q 596 363 568 407 q 624 283 624 319 q 621 265 624 276 q 567 167 610 224 q 492 85 524 110 q 526 78 513 78 q 596 115 564 78 q 608 121 601 121 q 622 115 615 121 q 628 103 628 110 l 628 100 q 610 44 628 82 q 581 0 592 6 q 497 -28 544 -28 m 375 515 q 401 539 379 519 q 428 563 424 558 q 450 583 433 567 q 473 607 467 599 q 490 630 479 615 q 508 658 500 644 q 519 693 519 678 q 496 724 519 721 l 483 725 q 426 697 450 725 q 375 515 375 626 m 219 79 q 311 110 261 79 q 263 242 275 175 q 199 188 229 222 q 169 121 169 153 l 169 111 q 219 79 174 79 z "},"'":{"ha":139,"x_min":86,"x_max":206,"o":"m 125 647 l 118 647 q 86 667 86 650 l 86 669 q 102 729 89 683 q 121 800 115 775 q 158 819 126 819 l 165 819 q 174 818 168 819 q 183 815 179 817 q 191 812 186 814 q 199 808 196 810 q 203 802 201 806 q 206 794 206 799 l 206 793 q 183 722 206 772 q 142 651 160 671 q 125 647 138 647 z "},"(":{"ha":365,"x_min":79,"x_max":456,"o":"m 200 -58 q 107 -5 135 -58 q 79 156 79 49 l 79 165 q 107 365 79 254 q 143 478 119 419 q 201 599 167 538 q 283 699 235 660 q 382 738 331 738 q 453 711 429 738 q 456 701 456 708 q 451 688 456 694 q 435 679 444 679 q 428 681 429 679 q 321 586 376 681 q 232 372 268 497 q 196 144 196 246 l 196 139 q 233 -12 196 -12 l 244 -11 q 260 -29 260 -11 q 232 -56 260 -51 q 200 -58 210 -58 z "},")":{"ha":383,"x_min":-31,"x_max":346,"o":"m 225 738 q 318 684 290 738 q 346 524 346 631 l 346 514 q 318 314 346 425 q 282 201 306 260 q 224 81 258 142 q 142 -19 190 19 q 43 -58 94 -58 q -28 -32 -4 -58 q -31 -22 -31 -29 q -26 -8 -31 -14 q -10 0 -19 0 q -3 -1 -4 0 q 104 93 49 -1 q 193 308 157 182 q 229 535 229 433 l 229 540 q 192 692 229 692 l 181 690 q 165 708 165 690 q 193 735 165 731 q 225 738 215 738 z "},"*":{"ha":224,"x_min":76,"x_max":271,"o":"m 140 536 q 119 554 119 536 l 121 560 l 133 590 q 106 569 124 585 q 96 567 100 567 q 83 574 89 567 q 76 588 76 581 q 83 600 76 597 l 117 622 l 96 624 q 78 642 78 624 q 97 661 78 661 l 133 661 l 117 693 l 114 700 q 121 715 114 708 q 136 721 128 721 q 151 713 144 721 l 169 681 l 190 728 q 206 739 194 739 q 219 733 213 739 q 226 721 226 728 l 225 715 l 214 689 q 227 698 217 692 q 243 708 238 704 q 253 713 247 713 q 265 706 260 713 q 271 693 271 700 q 265 681 271 685 l 228 654 q 243 653 233 653 q 257 636 257 651 q 239 617 257 617 l 203 618 l 219 588 l 222 581 q 215 567 222 572 q 199 561 207 561 q 183 569 188 561 l 172 590 l 156 547 q 140 536 151 536 z "},"+":{"ha":483,"x_min":54,"x_max":418,"o":"m 197 94 q 147 110 150 94 l 147 117 q 171 235 147 149 l 67 239 q 54 263 54 243 q 64 302 54 281 q 82 325 74 324 q 201 329 107 329 q 246 453 207 346 q 286 467 251 467 q 342 443 342 467 l 340 438 q 301 329 321 393 q 403 324 371 326 q 418 301 418 324 q 407 258 418 281 q 383 235 396 235 l 271 236 q 239 108 247 169 q 197 94 238 94 z "},",":{"ha":226,"x_min":-24,"x_max":121,"o":"m 3 -76 q -18 -74 -11 -76 q -24 -65 -24 -72 q -14 -53 -24 -53 l -10 -53 q 33 -12 14 -53 q -1 24 -1 -7 q 1 40 -1 29 q 67 96 18 94 l 69 96 q 107 82 93 96 q 121 47 121 68 q 117 25 121 35 q 71 -47 103 -18 q 3 -76 39 -76 z "},"-":{"ha":535,"x_min":68,"x_max":401,"o":"m 367 236 l 192 240 q 81 243 94 240 q 68 263 69 247 l 68 265 q 82 311 68 283 q 96 329 88 324 q 140 331 99 331 q 386 325 292 331 q 401 304 401 325 q 382 246 401 269 q 367 236 375 236 z "},"":{"ha":535,"x_min":68,"x_max":401,"o":"m 367 236 l 192 240 q 81 243 94 240 q 68 263 69 247 l 68 265 q 82 311 68 283 q 96 329 88 324 q 140 331 99 331 q 386 325 292 331 q 401 304 401 325 q 382 246 401 269 q 367 236 375 236 z "},".":{"ha":190,"x_min":-47,"x_max":69,"o":"m 7 -17 q -47 24 -47 -17 q -44 40 -47 29 q -21 85 -35 71 q 21 99 -7 99 l 29 99 q 69 57 69 97 q 65 33 69 46 q 7 -17 49 -17 z "},"/":{"ha":436,"x_min":8,"x_max":469,"o":"m 50 -14 q 19 21 31 -14 q 8 85 8 56 q 13 99 8 92 q 184 406 50 186 q 410 746 318 625 q 431 754 417 754 q 460 725 451 754 q 469 668 469 696 q 465 657 469 661 q 308 401 457 642 q 72 -4 158 160 q 50 -14 67 -14 z "},":":{"ha":283,"x_min":28,"x_max":214,"o":"m 83 118 q 28 160 28 118 q 31 176 28 165 q 54 221 40 207 q 96 235 68 235 l 104 235 q 144 193 144 233 q 140 168 144 181 q 83 118 122 118 m 151 333 q 97 374 97 333 q 100 390 97 379 q 124 435 110 421 q 165 449 138 449 l 174 449 q 214 407 214 447 q 210 383 214 396 q 151 333 192 333 z "},";":{"ha":297,"x_min":26,"x_max":228,"o":"m 53 54 q 32 57 39 54 q 26 65 26 58 q 36 79 26 79 l 40 79 q 83 119 67 79 q 49 154 49 124 q 51 172 49 161 q 118 228 68 226 q 156 214 142 228 q 171 178 171 200 q 167 156 171 167 q 120 83 153 113 q 53 54 88 54 m 165 333 q 110 374 110 333 q 113 390 110 379 q 136 435 122 421 q 179 449 150 449 l 186 449 q 217 436 206 447 q 228 408 228 425 q 222 383 228 400 q 165 333 206 333 z "},"":{"ha":297,"x_min":26,"x_max":228,"o":"m 53 54 q 32 57 39 54 q 26 65 26 58 q 36 79 26 79 l 40 79 q 83 119 67 79 q 49 154 49 124 q 51 172 49 161 q 118 228 68 226 q 156 214 142 228 q 171 178 171 200 q 167 156 171 167 q 120 83 153 113 q 53 54 88 54 m 165 333 q 110 374 110 333 q 113 390 110 379 q 136 435 122 421 q 179 449 150 449 l 186 449 q 217 436 206 447 q 228 408 228 425 q 222 383 228 400 q 165 333 206 333 z "},"<":{"ha":372,"x_min":42,"x_max":317,"o":"m 213 88 q 200 90 203 88 q 113 161 167 114 q 46 231 58 208 q 42 249 42 236 l 42 260 q 46 293 42 278 q 54 306 51 303 q 126 345 79 319 q 210 393 172 371 q 276 438 247 415 q 288 443 282 443 q 299 439 294 443 q 317 381 317 425 l 317 371 q 299 336 314 349 q 164 254 256 304 q 247 168 181 231 q 256 153 256 161 l 256 150 q 240 111 256 132 q 213 88 225 90 z "},"=":{"ha":469,"x_min":58,"x_max":429,"o":"m 394 281 l 243 281 q 107 285 132 281 q 94 303 94 286 q 110 357 94 329 q 122 374 117 371 q 168 375 125 375 q 310 373 213 375 q 414 371 408 371 q 429 349 426 369 q 410 290 429 314 q 394 281 400 281 m 357 157 l 265 157 q 69 161 92 157 q 58 179 58 163 l 58 183 q 72 233 58 206 q 86 250 82 249 q 140 253 92 253 q 378 247 283 253 q 392 225 392 246 l 392 221 q 372 168 392 193 q 357 157 365 157 z "},">":{"ha":404,"x_min":56,"x_max":331,"o":"m 85 88 q 75 92 79 88 q 56 150 56 106 l 56 158 q 75 194 58 181 q 210 276 107 219 q 125 361 182 310 q 117 378 119 365 l 117 381 q 132 419 117 399 q 161 442 147 440 l 164 442 q 174 439 168 442 q 328 300 300 346 q 331 282 331 293 l 331 271 q 326 236 331 250 q 319 225 324 228 q 249 185 296 211 q 163 136 201 158 q 96 92 125 114 q 85 88 92 88 z "},"?":{"ha":472,"x_min":64,"x_max":478,"o":"m 181 183 q 133 203 157 183 q 108 247 110 222 q 247 446 108 385 q 318 494 285 463 q 365 563 351 526 q 376 615 374 585 l 376 629 q 365 666 376 653 q 343 682 353 679 q 324 685 333 685 q 238 650 276 685 q 199 563 200 615 q 215 493 199 504 q 231 475 231 481 q 221 458 231 463 q 153 446 189 446 q 135 449 143 446 q 88 488 104 460 q 71 550 71 517 q 75 579 71 564 q 153 698 94 654 q 289 746 213 742 q 322 747 307 747 q 437 691 396 747 q 478 578 478 635 q 461 500 478 539 q 409 429 443 454 q 331 386 375 404 q 267 353 286 368 q 222 285 240 332 q 200 199 204 239 q 181 183 199 183 m 129 -12 l 118 -12 q 64 40 64 -12 q 82 131 64 54 q 119 150 86 150 q 167 140 143 150 q 190 117 190 129 q 183 74 190 103 q 175 29 175 46 l 175 13 q 158 -3 175 4 q 129 -12 142 -11 z "},"@":{"ha":790,"x_min":-7,"x_max":733,"o":"m 310 -24 l 301 -24 q 78 51 163 -18 q -7 247 -7 121 q -3 303 -7 274 q 145 613 22 488 q 431 739 268 739 l 447 739 q 654 665 575 733 q 733 497 733 597 l 733 493 q 649 244 731 351 q 454 136 568 136 l 447 136 q 381 160 404 138 q 357 222 357 183 l 358 238 q 267 181 321 181 l 263 181 q 197 211 219 181 q 174 293 174 242 l 174 301 q 235 478 176 392 q 369 564 293 564 l 372 564 q 444 538 424 564 q 454 556 453 554 q 485 565 465 565 q 527 553 507 565 q 547 526 547 540 l 546 521 q 479 317 526 476 q 458 219 458 246 q 469 199 458 199 q 535 274 493 199 q 596 440 576 350 q 610 544 610 500 q 503 675 610 664 l 471 676 q 318 633 388 676 q 208 521 249 589 q 144 376 167 453 q 121 225 121 299 q 165 99 121 142 q 281 51 208 57 l 296 51 q 519 132 393 51 l 531 135 q 542 131 538 135 q 554 100 549 126 q 560 60 560 74 q 553 43 557 47 q 449 -7 521 10 q 310 -24 378 -24 m 300 283 q 342 318 314 283 q 392 404 375 365 q 408 461 408 446 q 394 482 408 478 l 386 483 q 321 422 353 483 q 289 311 289 360 q 290 294 289 299 q 300 283 292 283 z "},"A":{"ha":807,"x_min":-122,"x_max":811,"o":"m 582 -87 l 571 -87 q 461 15 467 -87 l 461 22 q 486 208 461 103 l 328 208 q 42 -60 163 6 q 19 -65 32 -65 q -33 -50 -3 -65 q -87 -17 -62 -35 q -114 1 -112 0 q -122 15 -122 6 q -107 35 -122 35 l -106 35 q -37 54 -83 35 q 175 218 56 99 l 94 218 q 71 244 71 218 l 71 251 q 93 294 74 271 q 126 317 113 317 l 268 317 q 604 732 388 450 q 696 850 683 835 q 718 863 700 856 l 732 864 q 785 847 758 864 q 811 814 811 829 l 810 807 q 656 318 736 656 q 721 317 703 318 q 742 299 742 317 l 739 282 q 714 233 732 256 q 676 208 696 210 l 656 207 l 632 208 q 597 -32 597 39 q 600 -65 597 -49 l 600 -67 q 594 -81 600 -74 q 582 -87 589 -87 m 510 317 q 531 399 522 367 q 555 475 540 431 q 582 558 569 519 q 406 318 511 458 l 510 317 z "},"B":{"ha":676,"x_min":-144,"x_max":682,"o":"m 196 -87 l 185 -87 q 63 -56 131 -86 q -50 29 -6 -25 q -54 44 -54 36 q -47 68 -54 57 q -32 79 -40 79 q -24 75 -28 79 q 163 10 60 10 l 188 11 q 299 53 251 17 q 388 175 347 90 q 407 253 407 218 q 378 321 407 296 q 290 346 349 346 q 232 89 232 171 q 226 78 232 83 q 215 72 221 72 l 203 72 q 101 113 111 72 l 99 136 q 153 394 99 213 q 246 658 208 575 q 290 676 254 676 q 360 662 325 676 q 394 631 394 647 l 393 625 q 367 561 383 604 q 337 480 351 518 q 321 439 322 442 q 445 500 394 451 q 515 621 496 549 q 524 672 524 654 q 428 768 524 758 q 389 769 415 769 q 63 640 224 769 q -46 486 -28 568 q -67 472 -49 472 l -72 474 q -122 532 -100 479 q -144 636 -144 585 q -122 701 -144 683 q 86 821 -36 778 q 343 864 208 864 l 349 864 q 460 853 407 864 q 565 822 513 843 q 650 756 618 800 q 682 653 682 713 l 682 651 q 619 475 681 557 q 467 361 557 393 q 572 218 572 319 q 540 100 572 161 q 397 -36 497 15 q 196 -87 297 -87 z "},"C":{"ha":778,"x_min":71,"x_max":818,"o":"m 340 -87 l 338 -87 q 165 -31 232 -87 q 76 138 97 26 q 71 199 71 164 q 110 407 71 293 q 213 623 149 521 q 373 794 278 725 q 569 864 468 864 q 738 801 686 864 q 778 676 778 753 q 757 553 778 617 q 687 402 732 474 q 599 301 642 331 q 550 289 582 289 q 472 308 511 289 q 425 350 432 326 q 424 360 424 353 q 433 375 424 375 q 531 447 475 378 q 626 601 588 517 q 665 729 665 685 l 664 740 q 631 768 661 768 q 606 765 622 768 q 435 648 519 747 q 302 421 351 549 q 253 188 253 293 l 253 172 q 386 39 257 43 l 396 39 q 553 89 471 39 q 687 194 635 139 q 778 310 739 250 q 796 318 783 318 q 818 296 818 318 l 817 289 q 737 151 782 215 q 632 33 692 88 q 497 -55 572 -22 q 340 -87 422 -87 z "},"D":{"ha":749,"x_min":-164,"x_max":719,"o":"m 228 -87 q 80 -54 160 -87 q -40 29 0 -21 q -46 46 -46 35 q -41 65 -46 56 q -31 74 -36 74 l -29 74 q 75 36 29 47 l 74 60 q 131 372 74 158 q 229 676 189 585 q 269 692 236 692 q 346 675 306 692 q 386 642 386 658 l 385 636 q 281 325 349 546 q 214 35 214 104 l 215 22 q 433 178 326 26 q 560 496 540 331 q 563 547 563 529 q 526 697 563 635 q 408 768 490 760 q 369 769 396 769 q 43 640 204 769 q -65 486 -49 567 q -86 472 -68 472 l -93 474 q -142 533 -119 479 q -164 636 -164 586 q -143 701 -164 685 q 67 821 -56 778 q 324 864 189 864 l 329 864 q 593 794 488 863 q 717 578 699 726 q 719 524 719 544 q 683 319 719 425 q 585 122 647 213 q 428 -28 524 31 q 228 -87 333 -87 z "},"E":{"ha":783,"x_min":29,"x_max":744,"o":"m 268 -87 q 92 -28 154 -87 q 29 119 29 31 q 53 225 29 171 q 155 341 79 288 q 328 428 231 394 q 206 567 206 464 q 310 766 206 668 q 536 864 414 864 l 563 863 q 713 778 665 851 q 744 660 744 726 q 706 521 744 585 q 601 440 667 457 l 585 438 q 519 474 547 438 q 490 547 490 510 q 497 563 490 554 q 511 572 504 572 l 521 571 q 599 627 556 571 q 642 726 642 683 q 635 751 642 743 q 575 774 618 774 q 444 694 519 771 q 368 547 368 618 q 390 486 368 513 q 417 458 400 475 q 443 432 435 442 q 463 357 463 413 l 463 350 q 450 333 463 336 q 275 246 363 315 q 183 99 188 176 l 183 90 q 208 33 183 53 q 269 13 232 13 q 326 24 296 13 q 479 144 413 54 q 546 311 546 235 l 546 319 q 553 332 546 326 q 569 338 561 338 l 575 336 q 690 224 690 294 q 676 169 690 197 q 508 -17 621 53 q 268 -87 396 -87 z "},"F":{"ha":647,"x_min":0,"x_max":860,"o":"m 268 -87 l 254 -87 q 168 -49 178 -87 q 167 -31 167 -44 q 238 275 167 53 l 213 275 q 111 286 139 275 q 51 376 51 310 q 54 401 51 393 q 71 411 56 411 q 85 407 81 411 q 140 393 94 393 q 275 406 185 393 q 356 649 343 617 q 379 664 358 657 q 146 635 228 635 q 57 643 90 635 q 0 733 0 656 q 7 817 0 750 q 33 838 8 838 q 49 832 44 838 q 169 804 69 804 q 460 831 258 804 q 703 858 661 858 q 815 824 774 858 q 860 739 857 789 l 860 735 q 815 642 860 685 q 803 636 810 636 q 781 653 781 636 l 782 657 q 792 696 792 682 q 769 717 792 711 q 726 722 754 722 q 553 697 676 722 q 397 667 431 671 q 459 651 426 667 q 492 618 492 635 l 490 614 q 422 424 483 599 l 506 433 q 529 428 519 433 q 544 409 539 422 q 553 388 550 396 q 558 358 556 379 q 561 333 560 338 l 561 329 q 549 311 561 317 q 375 281 513 303 q 283 -72 283 -6 q 268 -87 283 -87 z "},"G":{"ha":885,"x_min":68,"x_max":821,"o":"m 614 -164 q 585 -176 611 -176 q 529 -165 558 -176 q 492 -139 500 -154 q 488 -112 488 -132 q 511 19 488 -54 q 326 -87 407 -82 l 300 -89 q 128 -6 188 -89 q 68 196 68 78 l 68 218 q 148 513 75 364 q 343 763 221 661 q 596 864 465 864 l 597 864 q 743 828 685 864 q 815 697 815 782 q 776 590 815 638 q 696 560 750 560 q 592 607 625 560 q 589 615 589 610 q 600 631 589 628 q 644 672 619 632 q 668 735 668 711 l 668 738 q 643 763 668 758 q 617 764 635 764 q 439 675 525 764 q 301 465 353 586 q 240 233 249 343 l 239 206 q 261 90 239 140 q 335 39 283 39 l 346 39 q 497 104 440 51 q 568 210 553 157 q 486 221 506 213 q 448 259 463 229 q 433 321 433 289 q 438 353 433 339 q 451 364 442 364 q 464 357 461 364 q 546 336 478 336 q 625 341 581 336 q 720 353 669 346 q 776 363 771 361 l 782 363 q 821 304 821 363 q 815 262 821 282 q 803 239 810 242 q 719 228 782 232 q 656 31 690 154 q 614 -164 622 -93 z "},"H":{"ha":844,"x_min":-28,"x_max":844,"o":"m 215 -87 l 200 -87 q 101 -49 110 -87 l 100 -33 q 164 243 100 31 l 96 243 q 75 265 75 243 q 95 322 75 290 q 133 354 115 354 l 197 354 q 256 528 224 438 q 315 690 288 618 q 349 782 342 763 q 339 783 346 783 q 213 658 293 783 q 133 485 133 532 q 139 474 133 475 q 149 457 149 472 q 138 435 149 439 q 78 425 110 425 q 3 446 33 425 q -28 507 -28 467 q -24 538 -28 521 q 110 743 1 631 q 310 864 218 856 l 338 865 q 445 851 396 865 q 494 806 494 838 l 493 796 q 425 583 488 771 q 351 354 363 396 l 543 354 q 713 838 650 693 q 746 856 718 853 l 758 857 q 817 844 789 857 q 844 815 844 832 l 843 808 q 686 353 819 756 l 756 351 q 776 324 776 351 q 758 268 776 296 q 715 240 740 240 l 657 240 q 585 -65 588 18 q 578 -78 585 -76 q 513 -83 556 -83 q 450 -49 458 -83 q 449 -32 449 -44 q 510 243 449 40 l 315 244 q 235 -69 235 3 q 215 -87 235 -85 z "},"I":{"ha":374,"x_min":-79,"x_max":453,"o":"m 167 -89 l 154 -89 q 53 -49 61 -89 l 51 -33 q 115 243 51 31 q 300 782 151 360 l 292 783 q 163 647 244 783 q 81 460 81 510 q 86 449 81 449 q 97 431 97 446 q 85 408 97 413 q 25 399 60 399 q -49 419 -19 399 q -79 481 -79 440 q -75 511 -79 494 q 60 731 -50 607 q 261 864 171 856 l 286 864 q 371 857 335 864 q 428 833 403 851 q 453 792 453 814 q 451 781 453 785 q 391 613 433 731 q 318 408 349 496 q 263 238 288 319 q 186 -71 188 -3 q 167 -89 186 -86 z "},"J":{"ha":499,"x_min":-46,"x_max":482,"o":"m 113 -87 q 60 -78 83 -87 q -11 6 -4 -53 l -12 18 q 15 126 -12 58 q 89 261 42 194 q 301 463 178 388 q 339 690 339 601 q 328 763 339 739 q 304 779 321 779 q 282 774 299 779 q 183 665 231 750 q 118 507 136 579 q 113 472 113 479 q 126 442 113 450 q 135 428 135 438 q 121 406 135 410 q 58 397 100 397 q -19 411 4 397 q -46 465 -46 426 q -40 501 -46 476 q 97 742 -8 621 q 317 864 203 864 q 482 669 482 864 q 429 390 482 558 q 383 263 410 329 q 317 120 356 196 q 231 -12 279 44 q 135 -85 182 -68 q 113 -87 124 -87 m 92 6 q 140 53 110 6 q 198 169 169 100 q 244 285 226 238 q 271 360 261 332 q 156 194 231 315 q 82 24 82 72 q 86 7 82 14 l 92 6 z "},"K":{"ha":750,"x_min":-87,"x_max":800,"o":"m 163 -86 l 147 -86 q 38 -46 47 -86 l 36 -29 q 118 300 36 38 q 279 783 229 660 l 274 785 q 160 658 239 785 q 71 478 82 531 l 68 456 q 72 444 68 447 q 85 426 85 440 q 74 407 85 411 q 24 400 56 400 q -60 417 -33 400 q -87 471 -87 435 q -82 507 -87 482 q 79 744 -60 585 q 256 864 174 856 l 281 865 q 347 860 315 865 q 405 837 378 854 q 432 793 432 819 q 425 764 432 782 q 403 700 419 749 q 360 567 388 651 q 307 411 332 483 q 611 724 483 574 q 701 856 688 811 q 722 871 708 871 q 735 867 731 871 q 781 808 763 844 q 800 736 800 771 q 785 683 800 704 q 763 656 778 671 q 726 619 749 640 q 681 581 703 599 q 625 534 660 563 q 567 488 590 506 q 503 437 544 469 q 440 388 461 404 q 515 160 456 313 q 615 6 575 7 l 619 6 q 639 11 632 6 q 650 17 646 17 l 651 17 q 667 6 660 17 q 675 -19 675 -6 q 671 -37 675 -29 q 558 -83 643 -81 l 556 -83 q 468 -47 510 -83 q 395 50 426 -10 q 342 166 364 110 q 306 282 321 222 l 260 243 q 178 -71 178 -8 q 163 -86 178 -86 z "},"L":{"ha":489,"x_min":-139,"x_max":551,"o":"m 425 -199 l 414 -199 q 320 -175 367 -199 q 211 -106 274 -151 q 122 -43 149 -60 q -7 -94 86 -86 l -25 -96 q -110 -67 -81 -96 q -139 3 -139 -39 q -81 106 -139 71 q 10 126 -42 126 q 58 121 38 126 q 166 449 103 228 q 276 783 229 669 l 272 785 q 161 661 240 785 q 71 488 82 538 l 68 465 q 72 456 68 456 q 83 438 83 453 q 71 417 83 421 q -12 401 31 401 q -57 411 -42 401 q -83 463 -83 426 q -78 501 -83 485 q 72 744 -51 603 q 249 864 167 856 l 269 865 q 386 846 331 865 q 442 786 442 826 q 435 758 442 775 q 323 428 400 671 q 190 69 246 185 q 261 30 214 57 q 337 -12 308 3 q 406 -40 365 -26 q 478 -53 446 -53 q 531 -44 503 -53 l 535 -44 q 547 -51 542 -44 q 551 -64 551 -57 q 549 -74 551 -68 q 535 -95 547 -76 q 517 -120 522 -114 q 501 -142 513 -126 q 482 -164 489 -157 q 465 -181 475 -171 q 444 -194 454 -190 q 425 -199 435 -199 m -32 -6 q 0 22 -11 -6 q -24 28 -12 28 q -42 24 -33 28 q -51 10 -51 19 q -36 -6 -51 -3 l -32 -6 z "},"M":{"ha":1154,"x_min":-76,"x_max":1201,"o":"m 992 -87 q 875 -64 919 -87 q 829 26 831 -40 q 853 200 829 97 q 897 363 878 303 q 963 554 917 422 l 965 563 q 963 567 965 567 q 949 557 957 567 q 863 446 904 503 q 769 310 821 389 q 694 194 718 231 q 607 52 671 157 q 533 -69 543 -53 q 518 -81 529 -81 l 510 -81 q 414 -43 424 -81 q 411 -17 411 -29 q 568 550 411 103 l 571 564 q 568 569 571 569 q 551 556 564 569 q 326 199 469 450 q 165 -81 182 -53 q 154 -87 161 -87 l 149 -87 q 83 -72 118 -87 q 42 -29 49 -56 q 39 -6 39 -18 q 92 257 39 82 q 279 781 157 478 l 275 782 q 166 660 243 782 q 78 488 89 539 l 76 467 q 81 456 76 456 q 90 438 90 454 q 79 417 90 421 q -6 401 36 401 q -50 411 -35 401 q -76 463 -76 426 q -71 501 -76 485 q 81 744 -44 601 q 256 864 175 856 l 281 865 q 349 859 315 865 q 410 835 382 853 q 439 792 439 818 q 432 763 439 781 q 224 156 314 467 q 340 374 281 268 q 471 599 399 481 q 607 790 543 717 q 711 863 671 863 l 714 863 q 788 841 761 863 q 815 781 815 819 q 803 725 815 756 q 748 589 786 682 q 692 449 710 496 q 647 327 674 403 q 600 178 621 251 q 724 393 661 289 q 861 610 788 497 q 997 792 935 724 q 1092 863 1058 861 l 1099 863 q 1170 840 1139 863 q 1201 778 1201 817 l 1201 774 q 1179 694 1201 749 q 986 14 986 171 q 1006 -53 986 -37 q 1010 -64 1010 -57 q 1004 -80 1010 -72 q 992 -87 999 -87 z "},"N":{"ha":767,"x_min":-94,"x_max":807,"o":"m 596 -87 q 479 -64 524 -87 q 433 26 435 -40 q 457 199 433 97 q 502 365 481 300 q 568 554 524 429 l 569 563 q 567 567 569 567 q 553 557 561 567 q 467 446 508 503 q 374 310 425 389 q 299 194 322 231 q 211 52 275 157 q 138 -69 147 -53 q 122 -81 133 -81 q 90 -80 101 -81 q 63 -76 79 -79 q 38 -64 47 -72 q 25 -42 28 -56 q 22 -14 22 -28 q 106 347 22 88 q 261 781 190 606 l 257 782 q 149 660 225 782 q 61 488 72 539 l 58 465 q 63 456 58 456 q 74 438 74 453 q 61 417 74 421 q -22 401 21 401 q -67 411 -51 401 q -94 465 -94 429 q -89 501 -94 476 q 63 744 -60 604 q 238 864 157 856 l 263 865 q 331 859 297 865 q 392 835 364 853 q 421 792 421 818 q 414 763 421 781 q 225 201 318 519 q 697 863 592 860 l 704 863 q 775 840 744 863 q 807 778 806 817 q 783 694 807 756 q 771 660 779 683 q 590 14 590 160 q 610 -53 590 -37 q 614 -64 614 -57 q 608 -80 614 -72 q 596 -87 603 -87 z "},"O":{"ha":707,"x_min":57,"x_max":675,"o":"m 275 -87 q 149 -28 189 -87 q 110 119 110 31 q 125 232 110 171 q 57 350 57 256 q 110 565 58 446 q 256 774 163 683 q 447 864 349 864 q 619 789 564 864 q 675 588 675 714 q 619 292 675 449 q 469 24 564 135 q 275 -87 374 -87 m 296 32 q 398 153 340 32 q 479 361 456 275 q 528 636 528 550 q 451 763 528 763 q 369 726 408 763 q 305 637 331 690 q 263 531 279 583 q 243 438 247 478 q 279 447 257 447 q 379 424 303 447 q 389 408 389 419 q 382 394 389 401 q 307 267 354 364 q 258 93 260 171 l 258 88 q 289 33 258 42 l 296 32 z "},"P":{"ha":669,"x_min":-161,"x_max":669,"o":"m 169 -83 l 151 -83 q 50 -46 58 -83 q 49 -26 49 -40 q 124 331 49 60 q 236 686 200 603 q 281 704 244 704 q 351 690 315 704 q 386 658 386 675 l 385 653 q 352 558 375 631 q 308 417 329 486 l 288 347 q 313 336 294 336 q 434 419 361 336 q 522 589 507 501 q 525 625 525 611 q 497 722 525 681 q 410 768 468 763 q 372 769 397 769 q 46 640 207 769 q -62 486 -46 568 q -83 472 -65 472 l -90 474 q -139 533 -117 479 q -161 636 -161 586 q -140 701 -161 685 q 69 821 -53 778 q 326 864 192 864 l 332 864 q 480 833 404 863 q 613 740 556 803 q 669 600 669 678 l 669 599 q 569 330 668 436 q 314 222 469 224 q 281 230 299 222 q 258 249 263 238 q 211 76 235 176 q 188 -67 188 -25 q 182 -78 188 -72 q 169 -83 176 -83 z "},"Q":{"ha":742,"x_min":74,"x_max":756,"o":"m 639 -162 l 638 -162 q 610 -158 624 -162 q 581 -143 596 -154 q 556 -124 565 -132 q 529 -98 546 -117 q 506 -71 513 -79 q 480 -38 499 -62 q 457 -8 461 -14 q 292 -87 375 -87 q 165 -28 204 -87 q 126 121 126 32 q 140 232 126 176 q 74 350 74 256 l 74 356 q 108 513 75 425 q 191 678 140 600 q 315 810 242 757 q 464 864 389 864 q 636 789 581 864 q 692 588 692 714 q 658 369 692 489 q 542 99 617 217 q 683 -44 647 -22 q 714 -57 701 -57 q 726 -51 721 -57 q 736 -47 731 -47 q 756 -68 756 -47 q 751 -81 756 -75 q 701 -136 733 -110 q 639 -162 668 -162 m 313 32 q 374 83 339 32 q 321 97 346 97 q 310 114 310 97 q 313 124 310 118 q 359 176 329 154 q 421 197 389 197 l 433 196 q 496 361 474 285 q 544 636 544 550 q 468 763 544 763 l 464 763 q 383 724 421 761 q 320 635 344 688 q 280 531 296 582 q 260 438 264 479 q 294 447 271 447 q 396 424 314 447 q 404 408 404 419 q 399 394 404 400 q 311 249 343 335 l 299 217 q 275 93 275 136 q 306 33 275 40 l 313 32 z "},"R":{"ha":713,"x_min":-139,"x_max":692,"o":"m 511 -89 l 499 -89 q 282 249 346 -89 q 234 77 258 179 q 210 -67 210 -25 q 205 -78 210 -72 q 193 -83 200 -83 l 175 -83 q 72 -46 82 -83 q 71 -26 71 -40 q 147 331 71 60 q 258 686 222 603 q 303 704 267 704 q 373 690 338 704 q 408 658 408 675 l 407 653 q 374 558 397 631 q 331 417 351 486 l 310 347 q 335 336 317 336 q 456 419 383 336 q 544 589 529 501 q 547 625 547 611 q 519 722 547 681 q 432 768 490 763 q 394 769 419 769 q 68 640 229 769 q -40 486 -24 567 q -61 472 -43 472 l -68 474 q -117 533 -94 479 q -139 636 -139 586 q -118 701 -139 685 q 92 821 -31 778 q 349 864 214 864 l 354 864 q 502 833 426 863 q 635 740 578 803 q 692 600 692 678 l 692 599 q 615 358 690 458 q 414 231 539 258 q 496 63 447 117 q 622 3 547 3 l 642 4 q 656 -17 656 4 q 646 -37 656 -32 q 578 -71 621 -54 q 511 -89 536 -87 z "},"S":{"ha":625,"x_min":24,"x_max":638,"o":"m 219 -87 l 217 -87 q 97 -47 157 -87 q 25 50 38 -6 l 24 67 q 51 163 24 110 q 113 236 78 217 q 119 238 114 238 q 133 231 126 238 q 139 217 139 224 q 136 208 139 214 q 107 124 107 168 l 108 108 q 144 58 114 79 q 210 38 174 38 l 215 38 q 320 110 269 42 q 371 233 371 179 q 369 250 371 244 q 315 268 364 268 q 254 264 294 268 q 204 260 214 260 l 199 260 q 108 297 149 260 q 68 389 68 333 q 103 521 68 440 q 190 678 138 601 q 315 809 243 754 q 453 864 388 864 q 593 808 549 864 q 638 667 638 753 q 614 528 638 601 q 476 418 578 418 q 382 433 440 418 q 369 453 369 438 q 382 469 369 469 q 468 552 438 472 q 499 715 499 632 q 494 764 499 744 q 468 785 489 785 q 435 772 453 785 q 313 626 379 728 q 236 447 247 525 l 233 419 q 283 371 233 371 l 293 371 q 344 374 308 371 q 397 376 381 376 q 503 335 465 376 q 540 240 540 294 q 497 99 539 174 q 380 -31 456 25 q 219 -87 304 -86 z "},"T":{"ha":390,"x_min":-139,"x_max":736,"o":"m 150 -89 l 143 -89 q 65 -78 104 -89 q 22 -47 26 -67 q 21 -28 21 -42 q 98 326 21 57 q 214 688 175 594 q 228 699 217 694 q 153 703 189 703 q 4 690 104 703 q -99 639 -89 676 q -114 626 -101 626 q -124 631 -119 626 q -139 692 -139 640 q -133 760 -139 724 q -122 803 -126 796 q 61 863 -79 863 l 88 863 q 375 825 178 861 q 625 792 567 792 q 703 813 686 792 q 714 817 707 817 q 728 807 724 817 q 736 764 736 788 q 732 729 736 746 q 689 657 718 672 q 611 643 661 643 q 440 665 543 643 q 357 683 363 681 q 358 675 358 681 q 356 661 358 667 q 238 287 310 554 q 164 -74 165 19 q 150 -89 164 -86 z "},"U":{"ha":774,"x_min":-97,"x_max":801,"o":"m 590 -87 q 428 26 428 -87 q 486 340 428 136 q 415 216 439 257 q 340 94 390 175 q 250 -27 289 14 q 182 -74 211 -68 q 158 -75 174 -75 q 54 76 61 -75 l 54 86 q 125 406 54 196 q 265 769 196 617 l 261 771 q 148 653 229 771 q 57 488 67 536 l 54 465 q 58 456 54 456 q 69 438 69 453 q 57 417 69 421 q -26 401 17 401 q -71 411 -56 401 q -97 463 -97 426 q -92 501 -97 485 q 58 744 -65 603 q 235 864 153 856 l 254 865 q 324 858 289 865 q 388 832 358 851 q 418 785 418 813 q 411 757 418 774 q 285 418 365 647 q 204 114 204 189 q 214 88 204 89 l 215 88 q 397 338 250 88 q 574 668 543 588 q 633 828 618 794 q 700 849 643 849 q 769 839 738 849 q 801 815 801 829 l 800 810 q 672 410 754 696 q 590 6 590 124 q 604 -53 590 -40 q 608 -64 608 -57 q 603 -80 608 -72 q 590 -87 597 -87 z "},"V":{"ha":763,"x_min":-90,"x_max":785,"o":"m 318 -89 q 228 -71 271 -89 q 178 -11 185 -53 q 172 85 172 28 q 183 255 172 156 q 207 428 194 354 q 240 613 219 501 q 265 760 260 724 l 265 765 q 256 776 265 776 q 242 768 247 776 q 134 610 200 724 q 68 463 68 496 q 74 453 68 456 q 86 439 86 450 q 75 424 86 428 q -22 406 25 406 q -64 414 -50 406 q -90 465 -90 429 q -85 503 -90 486 q -20 644 -68 564 q 98 791 28 724 q 229 864 168 858 l 263 865 q 394 819 354 865 q 435 710 435 774 l 432 676 q 395 478 422 619 q 350 228 368 336 q 332 72 332 119 l 333 56 q 344 36 336 36 q 357 42 350 36 q 464 215 393 71 q 603 576 535 358 q 646 769 646 713 q 626 826 646 811 q 622 836 622 831 q 638 853 622 853 l 639 853 q 745 797 706 847 q 785 667 785 747 q 765 550 785 608 q 551 138 703 356 q 336 -87 400 -81 l 318 -89 z "},"W":{"ha":1175,"x_min":-94,"x_max":1200,"o":"m 732 -89 q 641 -71 685 -89 q 593 -11 597 -53 q 585 124 585 53 q 601 369 585 226 q 315 -87 432 -75 l 297 -89 q 207 -71 250 -89 q 157 -11 164 -53 q 151 69 151 21 q 171 285 151 161 q 222 561 190 410 q 263 761 254 713 l 263 765 q 253 778 263 778 q 239 769 244 778 q 131 611 197 725 q 65 464 65 497 q 71 454 65 457 q 83 440 83 453 q 72 425 83 429 q -28 406 24 406 q -67 414 -53 406 q -94 468 -94 432 q -89 504 -94 479 q 38 731 -61 606 q 226 865 138 857 q 265 867 240 867 q 429 732 429 867 q 426 699 429 721 q 365 401 417 639 q 314 106 314 164 l 315 92 q 326 71 318 71 q 339 78 329 71 q 431 204 378 110 q 522 382 485 299 q 604 578 558 465 q 654 701 650 692 q 672 764 658 715 q 690 828 685 813 q 756 853 699 853 l 772 853 q 825 838 803 850 q 847 808 847 825 l 846 801 q 777 452 810 669 q 744 117 744 235 q 749 56 744 76 q 760 36 751 36 q 772 42 765 36 q 878 215 807 71 q 1018 576 950 360 q 1060 769 1060 708 q 1042 826 1060 810 q 1036 838 1036 831 q 1051 853 1036 853 l 1053 853 q 1160 797 1121 847 q 1200 668 1200 747 q 1179 550 1200 615 q 1051 271 1139 422 q 877 18 963 119 q 750 -87 792 -83 l 732 -89 z "},"X":{"ha":725,"x_min":-61,"x_max":869,"o":"m 575 -96 q 489 -74 513 -96 q 428 38 453 -37 q 397 160 404 114 q 382 288 390 207 q 89 -62 163 -7 q 50 -75 72 -75 q -7 -59 24 -75 q -57 -19 -37 -43 q -61 -11 -61 -15 q -56 2 -61 -4 q -43 8 -50 8 l -39 8 q 74 117 -25 8 q 265 335 174 226 q 357 446 357 444 q 338 742 344 589 q 326 786 335 786 q 303 769 319 786 q 195 613 261 728 q 129 464 129 497 q 135 454 129 457 q 147 440 147 453 q 136 425 147 429 q 36 406 88 406 q -3 414 13 406 q -29 468 -29 431 q -25 504 -29 486 q 102 731 3 606 q 290 865 201 857 l 315 867 q 437 838 383 867 q 490 750 490 810 q 499 615 493 694 q 764 864 689 864 q 864 806 815 864 q 869 793 869 800 q 862 775 869 783 q 847 767 854 767 l 836 769 q 683 647 800 769 q 511 456 565 524 q 564 138 517 319 q 657 -51 611 -44 q 668 -65 668 -53 q 658 -82 668 -78 q 575 -96 622 -96 z "},"Y":{"ha":732,"x_min":-94,"x_max":799,"o":"m 244 -89 q 153 -57 188 -89 q 119 26 119 -25 q 128 76 119 50 q 147 90 132 90 q 163 79 163 90 q 228 46 164 46 q 258 49 250 46 q 372 133 314 61 q 477 303 431 204 q 555 485 524 403 q 607 638 586 567 q 541 513 575 574 q 455 371 507 451 q 348 240 403 290 q 246 189 293 190 l 240 189 q 135 304 135 189 q 138 344 135 331 q 203 567 151 431 q 268 761 254 704 l 269 774 q 263 786 269 786 q 239 769 253 786 q 131 613 197 728 q 65 464 65 497 q 71 454 65 457 q 82 439 82 451 q 72 425 82 429 q -28 406 24 406 q -67 414 -53 406 q -94 468 -94 432 q -89 504 -94 479 q 38 731 -61 606 q 226 865 138 857 l 247 867 q 350 830 313 867 q 388 732 388 793 q 374 653 388 693 q 338 557 361 617 q 305 462 315 497 q 294 400 294 426 l 296 385 q 304 374 299 374 l 308 375 q 501 574 382 397 q 653 849 619 750 q 693 865 658 865 q 763 851 728 865 q 799 817 799 836 l 797 811 q 765 704 790 788 q 723 567 740 621 q 673 422 706 513 q 612 269 640 331 q 540 133 583 207 q 455 16 497 60 q 358 -58 413 -28 q 244 -89 303 -89 z "},"Z":{"ha":785,"x_min":-28,"x_max":844,"o":"m 65 -81 l 58 -81 q 8 -46 32 -81 q -26 21 -15 -11 l -28 26 q -15 40 -28 39 q 42 54 -1 44 q 32 93 32 72 q 42 132 32 114 q 190 303 78 206 q 460 517 303 400 q 686 697 617 633 q 619 686 668 694 q 540 673 569 678 q 470 664 511 668 q 397 660 429 660 q 290 679 329 660 q 260 768 260 694 q 265 840 260 810 q 285 856 268 856 q 300 847 296 856 q 414 829 308 829 q 733 853 542 829 l 739 853 q 810 803 775 853 q 844 700 844 754 q 824 633 844 660 q 699 522 786 586 q 523 400 611 457 q 335 256 435 343 q 176 79 236 168 q 438 106 293 106 q 614 76 561 106 q 638 24 625 69 q 656 -54 650 -22 l 656 -56 q 649 -69 656 -64 q 636 -75 643 -75 q 629 -74 632 -75 q 450 -54 592 -54 q 229 -62 347 -54 q 65 -81 111 -71 z "},"[":{"ha":388,"x_min":31,"x_max":421,"o":"m 224 -64 l 92 -64 q 54 -40 78 -64 q 31 -4 31 -17 l 31 -3 q 122 353 40 92 q 253 726 204 614 q 268 739 256 739 l 378 739 q 392 733 385 739 q 412 699 403 722 q 421 660 421 676 q 410 643 421 643 l 335 642 q 240 356 306 579 q 149 28 174 132 l 210 28 q 222 21 217 28 q 242 -40 242 -7 q 224 -64 242 -64 z "},"\\":{"ha":446,"x_min":25,"x_max":293,"o":"m 228 -68 l 225 -68 q 202 -59 213 -68 q 189 -40 192 -50 q 97 425 163 125 q 25 757 31 725 l 25 761 q 27 773 25 767 q 36 786 29 779 q 47 798 43 793 q 63 813 51 803 q 79 828 74 822 q 94 833 88 833 l 97 833 q 116 826 107 833 q 128 808 125 818 q 228 383 174 647 q 293 14 283 118 l 293 11 q 244 -61 293 -24 q 228 -68 235 -68 z "},"]":{"ha":397,"x_min":-7,"x_max":383,"o":"m 190 739 l 322 739 q 360 715 336 739 q 383 679 383 692 l 383 678 q 292 322 374 583 q 161 -51 210 61 q 146 -64 158 -64 l 36 -64 q 22 -58 29 -64 q 2 -24 11 -47 q -7 15 -7 0 q 4 32 -7 32 l 79 33 q 174 319 108 96 q 265 647 240 543 l 204 647 q 192 654 197 647 q 172 715 172 682 q 190 739 172 739 z "},"^":{"ha":328,"x_min":32,"x_max":328,"o":"m 303 490 l 296 490 q 264 507 276 490 q 217 636 250 526 q 174 595 207 628 q 115 540 140 563 q 72 511 89 518 l 67 510 q 44 518 56 510 q 32 535 32 526 q 36 544 32 540 q 124 633 50 557 q 218 728 199 710 q 246 736 226 736 q 281 718 279 736 q 299 619 282 699 q 326 514 317 540 l 328 510 q 303 490 328 497 z "},"_":{"ha":607,"x_min":0,"x_max":479,"o":"m 446 -37 q 322 -37 429 -37 q 121 -36 215 -37 q 13 -32 26 -35 q 0 -14 0 -31 q 8 19 0 -1 q 25 46 15 40 q 81 47 28 47 q 464 40 339 47 q 479 21 479 40 q 468 -18 479 1 q 446 -37 457 -37 z "},"`":{"ha":208,"x_min":69,"x_max":231,"o":"m 210 583 l 203 586 q 169 609 200 588 q 112 650 139 631 q 76 678 85 669 q 69 693 69 685 q 83 722 69 707 q 111 736 97 736 q 128 731 121 736 q 192 661 153 708 q 231 608 231 614 q 224 592 231 600 q 210 583 217 583 z "},"a":{"ha":521,"x_min":-33,"x_max":565,"o":"m 131 165 q 212 249 160 167 q 264 381 264 331 q 235 414 264 414 l 228 414 q 167 369 197 411 q 117 272 136 328 q 101 203 101 226 q 131 165 101 165 m 294 -14 l 275 -12 q 197 88 197 -6 l 199 115 q 72 18 136 18 l 69 18 q -8 58 18 19 q -33 158 -33 96 q 44 401 -33 281 q 225 522 121 522 l 226 522 q 310 482 285 522 q 315 494 313 486 q 319 506 318 503 q 324 513 321 508 q 332 519 328 518 q 343 522 336 521 q 360 524 350 524 q 417 509 389 524 q 446 478 446 494 l 444 471 q 429 436 443 468 q 401 368 415 404 q 371 289 386 332 q 345 206 356 246 q 335 143 335 167 q 356 108 335 108 q 438 174 388 108 q 526 313 488 240 q 540 319 531 319 q 554 317 546 319 q 565 300 565 310 l 564 293 q 544 249 561 289 q 520 197 526 210 q 495 147 514 183 q 465 96 476 111 q 431 55 453 81 q 391 17 410 29 q 347 -4 372 6 q 294 -14 321 -14 z "},"b":{"ha":504,"x_min":-65,"x_max":549,"o":"m 44 -11 l 29 -11 q -64 28 -56 -11 l -65 43 q 17 369 -65 117 q 142 718 100 622 q 183 736 147 736 q 247 722 215 736 q 279 690 279 708 l 278 685 q 196 475 217 531 q 292 524 238 524 q 399 374 399 519 q 379 254 394 307 q 408 250 389 250 q 510 313 467 250 q 525 319 514 319 q 549 300 549 319 q 547 293 549 296 q 472 206 519 240 q 369 171 425 171 l 350 172 q 151 14 274 15 q 65 51 94 14 q 63 28 64 42 q 60 8 61 15 q 56 -4 60 1 q 44 -11 51 -10 m 140 132 q 213 189 178 133 q 122 150 124 189 q 138 132 122 132 l 140 132 m 131 267 q 210 276 160 276 l 254 275 q 272 367 272 329 q 249 410 272 410 q 131 267 189 408 z "},"c":{"ha":414,"x_min":-35,"x_max":458,"o":"m 146 -25 l 136 -25 q 14 25 63 -22 q -35 160 -35 72 q -7 300 -35 225 q 85 451 25 386 q 221 515 146 515 q 254 511 238 515 q 327 465 301 501 q 353 385 353 428 q 332 319 353 344 q 276 299 314 299 q 235 310 253 299 q 222 338 222 317 l 224 343 q 235 359 225 344 q 253 388 246 374 q 261 411 261 403 q 250 421 261 421 l 249 421 q 148 337 197 421 q 99 176 99 253 l 99 174 q 185 90 99 90 q 306 144 256 93 q 419 313 361 201 q 435 319 422 319 q 447 317 439 319 q 458 300 458 310 q 457 293 458 296 q 435 243 453 283 q 408 186 417 203 q 383 139 400 169 q 350 86 367 108 q 314 44 333 64 q 146 -25 242 -25 z "},"d":{"ha":544,"x_min":-33,"x_max":589,"o":"m 128 171 q 188 209 160 171 q 231 288 217 247 q 257 376 257 356 q 229 406 257 406 q 141 335 182 404 q 100 210 100 265 q 126 171 100 171 l 128 171 m 318 -14 l 299 -12 q 221 92 221 -6 q 225 150 221 121 q 72 18 149 18 l 71 18 q -8 58 18 19 q -33 160 -33 97 q 44 402 -33 282 q 226 522 121 522 l 228 522 q 314 485 289 522 q 401 718 361 624 q 443 736 410 736 q 505 723 475 736 q 535 693 535 710 l 535 689 q 489 574 532 681 q 406 351 446 468 q 360 165 367 235 l 358 142 q 379 108 358 108 q 461 174 411 108 q 550 313 511 240 q 564 319 553 319 q 578 317 569 319 q 589 300 589 310 l 588 293 q 567 249 585 289 q 544 197 550 210 q 519 147 538 183 q 488 96 500 111 q 455 55 476 81 q 415 17 433 29 q 370 -4 396 6 q 318 -14 344 -14 z "},"e":{"ha":421,"x_min":-25,"x_max":467,"o":"m 149 -22 q 18 38 61 -21 q -25 183 -25 96 q -3 310 -25 247 q 90 460 29 396 q 226 525 150 525 l 231 525 q 309 493 281 524 q 342 419 338 463 l 342 404 q 288 263 342 331 q 160 196 233 196 q 101 215 122 196 q 96 182 96 193 q 122 119 96 143 q 190 93 149 96 l 199 93 q 313 144 263 93 q 428 313 363 197 q 442 319 431 319 q 456 317 447 319 q 467 301 467 308 l 464 293 q 442 243 460 283 q 415 186 424 203 q 390 139 407 169 q 357 86 374 108 q 321 44 340 64 q 149 -22 253 -22 m 142 310 q 222 342 183 310 q 260 400 260 375 q 251 417 260 411 q 229 424 240 424 q 171 385 200 424 q 131 311 142 346 l 142 310 z "},"f":{"ha":329,"x_min":-124,"x_max":374,"o":"m -8 -297 q -124 -185 -124 -296 q -103 -57 -124 -143 q 15 369 -57 138 q 151 721 86 600 q 193 738 163 738 q 253 722 224 738 q 283 692 283 707 l 282 688 q 121 238 197 493 q 175 218 138 226 q 210 215 188 215 q 280 238 251 215 q 335 311 308 261 q 350 318 339 318 q 374 299 374 318 q 372 290 374 293 q 344 235 358 258 q 309 185 331 211 q 256 144 288 158 q 186 131 225 131 l 147 133 q 177 73 164 115 q 190 -7 190 31 q 123 -205 182 -112 q -8 -297 64 -297 m 31 -168 q 75 -106 50 -167 q 100 -10 100 -46 q 72 57 100 26 q 22 -150 22 -112 q 31 -168 22 -168 z "},"g":{"ha":524,"x_min":-79,"x_max":569,"o":"m 136 189 q 222 262 175 190 q 269 383 269 333 q 236 421 269 421 l 235 421 q 148 352 189 419 q 107 231 107 285 q 136 189 107 189 m 35 -293 l 22 -293 q -51 -260 -24 -290 q -79 -187 -79 -229 q -78 -167 -79 -174 q -6 -59 -68 -110 q 168 13 57 -8 q 207 132 185 54 q 78 39 149 39 q -2 78 24 40 q -28 179 -28 117 q 47 409 -28 296 q 225 522 121 522 l 226 522 q 311 486 282 522 q 321 510 318 507 q 363 524 336 524 q 416 509 390 524 q 442 479 442 494 l 440 474 q 381 288 426 435 q 301 51 342 157 q 436 169 361 72 q 529 313 479 226 q 544 319 533 319 q 557 317 549 319 q 569 301 569 310 l 567 293 q 453 76 496 138 q 428 44 440 60 q 261 -75 357 -44 q 226 -153 243 -121 q 181 -222 208 -186 q 117 -275 154 -257 q 35 -293 79 -293 m 69 -192 q 103 -161 85 -190 q 129 -100 121 -132 q 46 -156 64 -122 q 39 -176 39 -167 q 61 -192 39 -192 l 69 -192 z "},"h":{"ha":554,"x_min":-56,"x_max":599,"o":"m 328 -14 l 308 -12 q 231 93 231 -6 l 231 99 q 235 147 231 121 q 247 202 239 174 q 260 250 254 231 q 275 297 265 269 q 286 331 285 325 l 288 335 q 275 343 288 343 q 261 339 265 343 q 65 4 68 150 q 51 -11 65 -8 l 40 -11 q -53 31 -44 -11 q -56 57 -56 44 q -15 268 -56 128 q 71 522 19 383 q 149 718 122 660 q 188 736 154 736 q 249 722 218 736 q 281 689 281 707 l 279 683 q 249 610 275 674 q 191 466 222 547 q 135 308 160 385 q 250 441 171 363 q 374 524 329 519 l 382 524 q 433 506 413 524 q 453 460 453 489 q 451 442 453 447 q 414 326 451 439 q 371 161 376 213 l 369 142 q 389 108 369 108 q 471 174 421 108 q 560 313 521 240 q 575 319 564 319 q 588 317 579 319 q 599 300 599 310 q 597 293 599 296 q 577 249 594 289 q 553 197 560 210 q 528 147 547 183 q 498 96 510 111 q 465 55 486 81 q 424 17 443 29 q 380 -4 406 6 q 328 -14 354 -14 z "},"i":{"ha":278,"x_min":-46,"x_max":322,"o":"m 204 579 q 155 591 181 579 q 129 617 129 603 q 156 719 129 658 q 190 738 163 738 q 244 722 217 738 q 271 690 271 707 q 268 679 271 683 q 248 635 264 672 q 228 589 232 599 q 204 579 224 579 m 50 -14 l 32 -12 q -46 88 -46 -6 q -40 150 -46 108 q -21 247 -35 194 q 3 326 -7 299 q 40 423 13 354 q 72 508 67 492 q 110 524 82 524 q 167 509 139 524 q 196 478 196 494 l 194 471 q 94 165 103 246 l 92 139 q 113 108 92 108 q 194 174 144 108 q 283 313 244 240 q 299 319 286 319 q 311 317 303 319 q 322 300 322 310 q 321 293 322 296 q 301 249 319 289 q 277 197 283 208 q 252 148 271 185 q 222 96 233 111 q 188 54 210 81 q 147 17 165 28 q 102 -4 128 6 q 50 -14 76 -14 z "},"j":{"ha":263,"x_min":-342,"x_max":307,"o":"m 175 576 q 126 588 151 576 q 100 614 100 600 q 129 717 100 658 q 164 735 135 735 q 217 719 190 735 q 243 688 243 704 q 240 676 243 681 q 228 654 236 671 q 212 616 221 638 q 199 586 203 594 q 175 576 194 576 m -192 -194 q -159 -163 -178 -193 q -133 -103 -140 -133 q -217 -158 -199 -125 q -224 -179 -224 -169 q -200 -194 -224 -194 l -192 -194 m -226 -296 l -240 -296 q -314 -262 -286 -293 q -342 -190 -342 -232 q -340 -169 -342 -176 q -267 -62 -329 -112 q -94 10 -206 -11 q -42 174 -78 50 q 22 399 -7 297 q 57 507 51 501 q 99 521 72 521 q 152 506 126 521 q 178 475 178 492 l 176 471 q 110 265 153 407 q 39 49 67 122 q 267 310 133 82 q 282 317 269 317 q 294 314 286 317 q 307 299 307 307 l 304 290 q 292 265 303 288 q 280 237 282 242 q 269 212 278 232 q 256 185 260 192 q 244 161 253 179 q 230 135 235 143 q 216 113 225 128 q 200 88 207 97 q 184 65 193 78 q 167 42 175 53 q -1 -78 93 -47 q -91 -236 -40 -176 q -226 -296 -142 -296 z "},"k":{"ha":483,"x_min":-58,"x_max":529,"o":"m 282 -12 l 279 -12 q 192 40 218 -12 q 172 116 181 61 q 160 182 163 171 q 142 206 153 206 q 129 200 135 206 q 87 114 104 176 q 68 3 69 51 q 54 -12 68 -12 l 43 -12 q -56 29 -47 -12 l -58 51 q -14 272 -58 121 q 135 717 79 588 q 178 735 143 735 q 244 720 211 735 q 278 689 278 706 l 276 683 q 249 622 272 674 q 196 501 225 571 q 143 356 167 431 q 263 479 194 432 q 335 513 301 507 q 371 515 351 515 q 458 501 435 515 q 465 488 465 497 q 449 467 465 467 l 440 467 q 325 401 411 467 q 190 290 239 335 l 214 293 q 251 286 238 293 q 277 247 268 278 q 292 174 286 215 q 303 121 299 133 q 321 107 306 107 q 421 201 354 110 q 490 313 463 260 q 504 319 494 319 q 518 317 510 319 q 529 301 529 308 l 526 293 q 510 256 525 289 q 488 208 494 222 q 463 159 481 193 q 433 107 446 125 q 401 63 421 89 q 364 22 381 36 q 325 -2 347 8 q 282 -12 303 -12 z "},"l":{"ha":286,"x_min":-36,"x_max":332,"o":"m 61 -14 l 42 -12 q -36 82 -33 -6 l -36 93 q 21 388 -36 206 q 143 718 78 569 q 183 736 156 736 q 243 721 213 736 q 274 690 274 706 l 272 686 q 238 594 265 665 q 192 475 210 524 q 151 360 174 426 q 116 242 129 294 q 101 151 103 189 l 101 143 q 121 108 101 108 q 203 174 154 108 q 292 313 253 239 q 307 319 294 319 q 319 317 311 319 q 332 301 332 310 l 329 293 q 309 249 326 288 q 285 197 292 210 q 260 147 279 183 q 230 96 242 111 q 197 55 218 81 q 156 17 175 29 q 113 -4 138 6 q 61 -14 88 -14 z "},"m":{"ha":836,"x_min":-62,"x_max":881,"o":"m 619 -12 l 617 -12 q 535 17 571 -12 q 499 92 499 46 q 560 326 499 167 l 561 335 q 557 340 561 340 q 540 332 549 340 q 397 163 463 254 q 332 10 332 71 l 332 6 q 314 -11 332 -8 l 299 -11 q 207 72 207 -11 l 208 89 q 224 178 213 135 q 253 264 236 221 q 274 324 269 307 l 275 332 q 269 339 275 339 q 254 331 264 339 q 128 169 199 282 q 56 4 57 57 q 39 -11 56 -8 l 31 -11 q -33 -1 -4 -11 q -62 33 -61 10 l -62 35 q -15 259 -62 93 q 63 504 33 425 q 101 522 68 522 q 162 508 132 522 q 192 478 192 494 l 190 472 q 128 288 171 424 q 222 406 158 335 q 325 501 286 476 q 383 521 353 521 l 389 521 q 438 505 418 521 q 458 460 458 489 l 457 444 q 433 380 454 432 q 401 288 413 328 q 424 316 407 294 q 446 343 442 338 q 465 366 450 349 q 484 389 479 383 q 501 408 489 394 q 519 428 513 422 q 535 445 525 435 q 555 463 546 456 q 574 478 564 469 q 596 494 585 486 q 656 514 626 514 q 708 496 688 514 q 729 446 729 478 q 728 429 729 435 q 690 303 719 393 q 653 183 661 213 q 647 147 647 167 q 672 108 647 110 q 733 150 692 108 q 842 313 789 214 q 856 319 844 319 q 869 317 861 319 q 881 301 881 313 q 879 293 881 296 q 854 238 876 286 q 822 169 832 190 q 789 112 811 147 q 744 53 767 76 q 619 -12 685 -12 z "},"n":{"ha":550,"x_min":-64,"x_max":597,"o":"m 335 -12 l 329 -12 q 250 16 285 -12 q 215 89 215 44 q 245 220 215 125 q 278 326 275 315 l 279 336 q 275 340 279 340 q 258 332 267 340 q 54 4 56 139 q 38 -11 54 -11 l 22 -11 q -37 0 -11 -11 q -64 33 -64 11 l -64 36 q -18 252 -64 96 q 61 504 28 408 q 100 522 67 522 q 160 509 131 522 q 190 481 190 496 l 190 478 q 163 397 185 457 q 131 301 142 336 q 268 458 228 422 q 314 494 289 478 q 374 514 344 514 q 426 496 406 514 q 447 446 447 478 q 446 429 447 435 q 371 183 439 396 q 363 142 363 154 q 388 108 363 110 l 389 108 q 403 111 396 108 q 417 119 410 114 q 428 129 424 125 q 440 141 432 133 q 449 150 447 149 q 557 313 499 201 q 572 319 561 319 q 585 317 576 319 q 597 303 597 311 l 594 293 q 578 256 592 286 q 553 204 564 225 q 527 153 543 183 q 494 98 511 124 q 460 53 476 72 q 335 -12 401 -12 z "},"o":{"ha":449,"x_min":-31,"x_max":494,"o":"m 133 101 q 179 128 157 101 q 214 190 201 154 q 175 257 175 203 q 182 293 175 275 q 254 340 201 340 q 257 365 257 360 q 228 411 257 411 l 226 411 q 159 362 189 411 q 111 242 129 313 q 99 161 99 189 q 132 101 99 103 l 133 101 m 106 -11 q 3 38 38 -11 q -31 163 -31 86 q 42 406 -31 289 q 215 524 115 524 q 253 519 233 524 q 346 365 346 496 q 329 257 346 311 q 363 253 358 253 q 392 255 381 253 q 422 271 403 257 q 456 313 440 285 q 469 319 460 319 q 482 317 474 319 q 494 303 494 310 l 494 301 q 460 242 485 274 q 413 196 435 210 q 319 171 371 171 l 303 171 q 268 104 283 131 q 228 48 253 78 q 174 3 204 18 q 106 -11 143 -11 z "},"p":{"ha":508,"x_min":-124,"x_max":553,"o":"m -56 -299 q -121 -264 -111 -299 q -124 -237 -124 -250 q -49 143 -124 -139 q 63 507 25 425 q 101 524 69 524 q 163 509 132 524 q 193 478 193 494 l 192 471 l 188 461 q 292 524 235 522 q 373 481 346 524 q 400 371 400 439 q 382 253 400 318 q 413 249 407 249 q 513 311 471 249 q 528 318 517 318 q 553 300 553 318 q 483 206 533 243 q 374 168 432 168 l 351 171 q 151 11 274 13 q 61 53 90 11 q -11 -276 -11 -199 l -11 -282 q -25 -297 -11 -297 l -56 -299 m 122 261 q 210 275 164 275 l 256 274 q 268 351 268 315 q 243 399 268 399 q 170 353 206 397 q 122 261 135 308 m 147 128 q 218 186 183 129 l 192 188 q 114 151 115 188 q 144 128 114 128 l 147 128 z "},"q":{"ha":575,"x_min":-36,"x_max":617,"o":"m 250 -297 q 135 -185 135 -297 q 154 -58 135 -139 l 194 106 q 71 14 136 14 q -10 53 17 14 q -36 156 -36 92 q 42 399 -36 278 q 224 521 119 521 q 311 482 283 521 q 326 508 321 506 q 364 521 339 521 q 421 505 393 521 q 449 474 449 489 q 378 238 419 385 q 428 219 393 225 l 453 217 q 578 308 532 217 q 592 318 585 318 q 606 314 599 318 q 617 296 617 310 l 615 289 q 407 132 536 132 l 404 132 q 434 72 421 114 q 447 -8 447 29 q 382 -206 440 -114 q 250 -297 324 -297 m 122 156 q 194 211 149 156 q 250 300 239 267 q 269 382 269 339 q 238 425 269 425 q 144 341 190 424 q 97 196 97 258 q 122 156 97 156 m 289 -167 q 333 -106 308 -165 q 357 -11 357 -47 q 329 57 357 32 q 281 -149 281 -112 q 289 -167 281 -167 z "},"r":{"ha":426,"x_min":1,"x_max":472,"o":"m 199 -15 q 101 103 101 -15 q 117 211 101 153 q 164 348 133 269 q 199 439 194 426 q 150 436 172 436 q 117 439 126 436 q 96 401 107 424 q 68 345 85 379 q 39 285 51 311 q 29 279 36 279 q 1 299 1 282 l 3 306 q 60 457 40 389 q 56 467 60 458 q 48 488 51 476 q 44 510 44 499 l 47 542 q 60 590 49 560 q 85 624 71 621 q 174 588 174 624 q 153 519 174 578 q 199 522 172 519 q 239 524 225 524 q 301 503 276 524 q 328 444 325 482 q 315 389 328 428 q 281 286 303 350 q 246 164 260 222 q 242 139 242 156 q 263 107 242 108 q 345 174 294 107 q 433 313 396 240 q 446 319 435 319 q 464 314 456 319 q 472 300 472 308 l 469 292 q 449 247 465 283 q 426 196 433 211 q 400 147 418 181 q 369 96 382 113 q 336 53 357 79 q 296 16 315 28 q 251 -6 276 4 q 199 -15 225 -15 z "},"s":{"ha":342,"x_min":-93,"x_max":388,"o":"m 69 -22 l 63 -22 q -50 14 -7 -22 q -93 103 -93 50 l -93 106 q -53 215 -93 154 q -10 297 -44 228 q 26 379 6 328 q 53 446 46 431 q 117 528 74 490 q 142 539 131 539 l 150 539 l 256 518 q 269 504 269 515 q 267 494 269 497 q 217 318 217 422 l 218 215 q 207 118 217 151 q 285 201 233 129 q 349 313 324 256 q 363 319 353 319 q 376 317 372 319 q 388 303 388 308 l 388 300 q 376 271 386 296 q 360 233 365 246 q 342 194 354 221 q 321 151 331 168 q 299 113 311 135 q 272 76 286 92 q 244 47 258 60 q 165 -3 214 15 q 69 -22 115 -22 m 47 99 q 75 160 69 99 q 79 256 79 190 l 76 351 l 17 229 q 54 206 42 219 q 58 193 58 200 q 54 183 58 188 q 28 129 31 163 l 28 119 q 46 99 28 99 l 47 99 z "},"t":{"ha":288,"x_min":-35,"x_max":333,"o":"m 64 -14 l 61 -14 q -35 83 -35 -14 l -35 89 q 63 524 -35 258 l -24 525 q -32 540 -32 525 q -24 574 -32 557 q -7 592 -17 592 q 88 590 53 592 q 139 718 111 653 q 176 736 147 736 q 239 722 207 736 q 271 692 271 707 l 269 686 q 260 656 267 672 q 243 618 254 640 q 228 586 232 596 l 304 583 q 313 569 313 583 q 303 535 313 554 q 283 515 293 515 l 203 515 q 175 435 197 497 q 142 340 153 372 q 119 256 132 307 q 104 165 107 206 l 103 135 q 122 108 103 108 q 212 182 156 108 q 293 313 268 256 q 308 319 297 319 q 321 317 313 319 q 333 303 333 310 l 331 293 q 224 86 267 144 q 64 -14 150 -14 z "},"u":{"ha":536,"x_min":-49,"x_max":582,"o":"m 318 -14 l 292 -12 q 213 93 213 -10 q 217 147 213 97 q 78 -11 140 -10 l 50 -11 q -36 25 -14 -11 q -49 88 -49 47 q -33 201 -49 136 q 15 367 -17 274 q 68 506 47 461 q 106 522 75 522 q 160 509 132 522 q 188 481 188 496 l 188 478 q 140 327 179 438 q 97 179 101 217 l 96 169 q 110 153 96 153 l 114 153 q 244 326 153 153 q 328 506 292 418 q 365 524 336 524 q 421 510 393 524 q 449 481 449 497 l 449 478 q 397 319 442 440 q 350 151 351 197 q 371 108 350 108 q 452 172 404 108 q 542 313 500 235 q 557 319 544 319 q 569 317 561 319 q 582 303 582 310 l 579 293 q 558 245 578 289 q 526 178 538 201 q 489 113 515 154 q 440 47 463 71 q 385 5 418 24 q 318 -14 351 -14 z "},"v":{"ha":450,"x_min":-15,"x_max":425,"o":"m 111 -32 l 97 -32 q 8 6 25 -32 q -15 154 -15 63 q 40 494 -15 303 q 79 514 46 514 q 141 499 110 514 q 172 467 172 485 l 171 460 q 106 165 106 286 l 106 146 q 128 97 107 97 q 156 115 138 97 q 256 290 204 165 q 307 475 307 415 q 304 493 307 485 l 303 499 q 309 511 303 506 q 322 517 315 517 l 324 517 q 406 496 388 504 q 425 468 425 488 l 425 460 q 324 206 419 376 q 164 -7 229 35 q 150 -17 158 -11 q 138 -25 142 -22 q 126 -30 133 -28 q 111 -32 119 -32 z "},"w":{"ha":704,"x_min":-11,"x_max":678,"o":"m 389 -19 l 375 -19 q 286 18 301 -19 q 268 143 268 64 l 269 169 q 219 72 250 122 q 168 4 188 22 q 138 -16 147 -12 q 103 -19 129 -19 q 14 18 29 -19 q -11 175 -11 78 q 39 493 -11 319 q 78 513 44 513 q 141 498 110 513 q 172 465 172 483 l 171 458 q 111 182 111 308 q 132 108 111 108 q 161 126 143 108 q 211 199 189 156 q 242 268 233 243 q 269 360 251 293 q 292 438 288 426 q 331 457 297 457 q 392 442 361 457 q 424 410 424 428 l 422 403 q 382 215 382 297 q 390 115 383 126 q 404 108 396 108 q 433 126 415 108 q 515 295 478 174 q 553 488 553 417 q 549 519 553 506 q 567 536 549 536 q 651 513 607 532 q 678 479 678 500 q 590 213 671 381 q 440 4 508 46 q 426 -5 433 0 q 415 -12 418 -10 q 404 -17 411 -15 q 389 -19 397 -19 z "},"x":{"ha":504,"x_min":-35,"x_max":550,"o":"m 275 -15 q 189 23 218 -15 q 147 129 160 61 q 83 46 114 88 q 47 -3 53 4 q 24 -10 43 -10 q -16 -3 3 -10 q -35 14 -35 4 q -32 22 -35 17 q 13 83 -12 49 q 73 165 39 118 q 128 239 107 211 q 113 429 124 272 q 83 372 101 410 q 51 308 64 333 q 35 282 38 282 l 31 281 q 11 288 21 281 q 1 301 1 294 q 7 314 1 303 q 26 355 13 325 q 53 422 39 385 q 103 514 83 500 q 174 538 138 538 q 197 535 188 538 q 213 524 207 532 q 222 506 219 515 q 227 480 225 497 q 229 447 229 463 q 231 404 229 431 q 233 354 232 378 q 298 440 260 386 q 360 519 336 493 q 393 526 364 526 q 444 507 444 526 l 442 500 l 250 238 q 315 100 260 101 q 419 165 365 100 q 510 313 474 231 q 524 319 514 319 q 550 300 550 319 l 547 293 q 528 250 543 283 q 505 200 513 217 q 481 152 497 183 q 451 103 464 121 q 419 60 439 85 q 382 23 400 36 q 340 -1 364 10 q 290 -14 315 -12 l 275 -15 z "},"y":{"ha":518,"x_min":-83,"x_max":565,"o":"m 65 -192 q 99 -161 81 -190 q 125 -100 117 -132 q 42 -156 60 -122 q 35 -176 35 -167 q 53 -192 35 -192 l 65 -192 m 38 -293 l 31 -293 q -53 -265 -24 -293 q -83 -187 -83 -236 q -82 -167 -83 -174 q -10 -59 -72 -110 q 164 13 53 -8 q 208 151 175 40 q 140 83 183 118 q 69 46 97 47 q 47 44 56 44 q -17 79 0 44 q -32 149 -32 107 q -21 238 -32 192 q 67 506 13 388 q 104 522 74 522 q 158 509 131 522 q 186 481 186 496 l 186 478 q 145 345 178 438 q 108 215 113 253 l 107 206 q 121 188 107 188 l 128 188 q 197 238 160 188 q 258 347 233 288 q 300 458 282 407 l 319 510 q 361 524 335 524 q 413 510 388 524 q 439 481 439 496 l 438 474 q 410 362 428 422 q 378 265 392 301 q 336 152 365 228 q 297 51 307 76 q 422 153 358 74 q 525 313 486 232 q 540 319 528 319 q 553 317 544 319 q 565 303 565 310 l 563 293 q 541 249 556 281 q 519 203 526 217 q 499 163 513 189 q 476 121 486 138 q 453 83 467 104 q 424 44 439 63 q 257 -75 353 -44 q 168 -233 218 -174 q 38 -293 118 -293 z "}}}
